<?xml version="1.0" standalone="no"?>
<!DOCTYPE svg PUBLIC "-//W3C//DTD SVG 20010904//EN"
 "http://www.w3.org/TR/2001/REC-SVG-20010904/DTD/svg10.dtd">
<svg version="1.0" xmlns="http://www.w3.org/2000/svg"
 width="482.000000pt" height="482.000000pt" viewBox="0 0 482.000000 482.000000"
 preserveAspectRatio="xMidYMid meet">
<metadata>
Created by potrace 1.11, written by Peter Selinger 2001-2013
</metadata>
<g transform="translate(0.000000,482.000000) scale(0.100000,-0.100000)"
fill="#000000" stroke="none">
<path d="M298 4815 c-2 -2 -44 -6 -93 -9 -94 -6 -134 -12 -143 -20 -3 -3 16
-52 41 -108 110 -248 244 -632 301 -868 2 -8 9 -35 16 -60 7 -25 13 -52 15
-60 2 -8 10 -45 19 -81 17 -77 18 -79 45 -214 11 -55 23 -120 26 -145 4 -24 8
-47 10 -50 1 -3 6 -30 9 -61 4 -31 9 -67 12 -80 11 -55 41 -300 48 -399 12
-151 17 -222 21 -290 5 -84 5 -598 0 -675 -12 -201 -17 -263 -20 -285 -2 -14
-6 -54 -10 -90 -7 -78 -56 -402 -69 -465 -2 -11 -14 -67 -26 -125 -35 -169
-96 -387 -155 -557 -30 -87 -55 -161 -55 -166 0 -4 246 -6 548 -5 l547 3 43
125 c35 102 88 288 107 377 25 115 55 267 60 303 3 25 8 52 10 60 6 22 13 77
35 245 22 179 29 259 45 515 5 80 5 563 1 645 -5 81 -16 242 -20 285 -10 113
-19 198 -22 215 -3 11 -7 40 -9 65 -3 25 -8 56 -10 70 -3 14 -7 48 -10 75 -4
28 -8 57 -10 65 -3 8 -7 33 -11 55 -3 22 -9 58 -14 80 -5 22 -12 56 -15 75
-13 76 -47 221 -81 348 -20 73 -34 136 -31 139 14 13 403 -184 596 -302 89
-55 300 -212 399 -297 89 -78 334 -331 408 -423 295 -369 507 -774 653 -1247
24 -76 87 -326 96 -378 3 -19 10 -54 16 -78 5 -23 12 -59 14 -80 3 -20 8 -48
11 -62 2 -14 6 -34 8 -45 2 -11 7 -49 11 -85 3 -36 8 -76 10 -90 5 -26 10 -84
20 -210 11 -142 14 -225 15 -337 l0 -113 531 0 531 0 -6 193 c-4 105 -8 212
-11 237 -2 25 -7 78 -10 118 -4 40 -8 81 -10 90 -1 9 -6 44 -9 77 -4 33 -9 67
-11 75 -2 8 -6 38 -10 65 -17 143 -72 384 -148 660 -24 83 -131 386 -163 460
-10 22 -18 42 -19 45 0 3 -11 27 -23 54 -12 27 -22 50 -22 52 0 11 -175 351
-223 436 -116 200 -327 509 -418 613 -10 11 -54 64 -98 117 -90 107 -85 103
-223 244 -112 115 -163 163 -274 259 -112 97 -117 102 -224 183 -52 40 -100
76 -105 80 -6 5 -57 40 -115 79 -395 264 -822 457 -1255 568 -151 38 -147 37
-280 61 -99 17 -110 19 -205 29 -36 4 -78 9 -95 12 -36 5 -511 13 -517 8z"/>
</g>
</svg>
