<?xml version="1.0" standalone="no"?>
<!DOCTYPE svg PUBLIC "-//W3C//DTD SVG 20010904//EN"
 "http://www.w3.org/TR/2001/REC-SVG-20010904/DTD/svg10.dtd">
<svg version="1.0" xmlns="http://www.w3.org/2000/svg"
 width="409.000000pt" height="409.000000pt" viewBox="0 0 409.000000 409.000000"
 preserveAspectRatio="xMidYMid meet">
<metadata>
Created by potrace 1.11, written by Peter Selinger 2001-2013
</metadata>
<g transform="translate(0.000000,409.000000) scale(0.100000,-0.100000)"
fill="#000000" stroke="none">
<path d="M229 4085 c-4 -3 -116 -14 -158 -14 -31 -1 -28 -10 48 -189 159 -373
313 -950 356 -1332 3 -30 8 -62 10 -70 2 -8 7 -49 10 -90 3 -41 8 -82 10 -90
2 -8 7 -62 11 -120 3 -58 8 -125 10 -150 5 -65 5 -566 0 -625 -3 -27 -7 -88
-11 -135 -17 -223 -57 -493 -100 -676 -9 -38 -18 -76 -20 -84 -23 -105 -107
-378 -151 -494 -6 -15 38 -16 461 -14 l468 3 28 80 c57 159 129 452 159 650
18 113 18 118 25 170 3 28 8 66 10 85 3 19 7 62 10 95 4 33 8 74 10 90 22 166
22 741 0 957 -2 24 -7 74 -10 111 -4 37 -8 76 -10 86 -2 10 -6 44 -9 77 -4 32
-8 66 -11 74 -2 8 -6 35 -9 60 -7 53 -13 86 -26 155 -6 28 -12 61 -15 75 -11
55 -38 178 -52 230 -8 30 -16 62 -18 71 -2 9 -9 35 -16 57 -7 23 -10 45 -7 47
7 7 170 -64 283 -124 188 -100 386 -233 543 -365 64 -54 298 -291 347 -351
211 -258 364 -521 488 -835 41 -104 101 -287 111 -336 2 -10 13 -53 24 -94 25
-92 67 -315 82 -430 6 -47 12 -98 15 -115 4 -29 13 -151 20 -265 2 -30 4 -101
4 -157 l1 -103 451 0 452 0 -7 188 c-4 103 -9 210 -11 237 -11 110 -27 236
-46 345 -17 97 -29 155 -64 310 -38 170 -128 436 -223 660 -450 1062 -1356
1903 -2384 2214 -65 20 -128 37 -140 40 -13 2 -43 9 -68 16 -25 7 -56 14 -70
16 -23 4 -39 7 -100 19 -14 3 -56 10 -95 15 -38 5 -88 12 -110 15 -45 6 -501
16 -506 10z"/>
</g>
</svg>
