<?xml version="1.0" encoding="UTF-8"?>
<svg width="699px" height="89px" viewBox="0 0 699 89" version="1.1" xmlns="http://www.w3.org/2000/svg" xmlns:xlink="http://www.w3.org/1999/xlink">
    <title>logo</title>
    <g id="Page-1" stroke="none" stroke-width="1" fill-rule="evenodd">
        <g id="logo">
            <path class="logo__tail" d="M178.317,0.982 C189.814,25.313 192.808,61.141 182.486,87.503 L202.325,87.503 C206.91,75.957 211.694,48.015 203.458,19.67 C229.852,30.42 244.577,54.634 244.392,87.503 L263.498,87.503 C264.045,34.873 220.72,-4.688 178.317,0.982" id="logo__tail"></path>
            <polyline id="logo__y" points="679.244 15.882 663.209 47.737 662.14 47.737 645.892 15.882 626.65 15.882 654.444 63.558 654.444 87.503 670.478 87.503 670.478 63.558 698.272 15.882 679.244 15.882"></polyline>
            <path d="M570.453,59.175 L580.074,31.916 L581.143,31.916 L590.657,59.175 L570.453,59.175 Z M571.843,15.775 L542.446,87.503 L559.87,87.503 L565.215,73.286 L595.895,73.286 L601.346,87.503 L619.092,87.503 L589.481,15.775 L571.843,15.775 Z" id="logo__a"></path>
            <path d="M511.507,50.517 C509.049,52.654 505.735,53.724 501.459,53.724 L486.921,53.724 L486.921,30.206 L502.1,30.206 C506.483,30.206 509.69,31.275 511.935,33.413 C514.073,35.444 515.142,38.331 515.142,41.858 C515.142,45.492 513.966,48.379 511.507,50.517 Z M523.48,22.937 C520.914,20.799 517.922,18.982 514.394,17.806 C510.866,16.523 507.018,15.882 502.742,15.882 L470.887,15.882 L470.887,87.503 L486.921,87.503 L486.921,67.941 L501.459,67.941 C505.628,67.941 509.583,67.407 513.218,66.124 C516.852,65.055 520.059,63.344 522.625,60.993 C525.404,58.855 527.435,56.075 529.039,52.868 C530.535,49.555 531.284,45.92 531.284,41.751 C531.284,37.796 530.642,34.268 529.253,31.061 C527.863,27.961 525.939,25.289 523.48,22.937 Z" id="logo__p"></path>
            <path d="M417.212,48.333 L443.028,15.882 L423.251,15.882 L402.11,41.974 C399.888,41.53 397.602,41.261 395.244,41.176 L395.244,15.882 L379.424,15.882 L379.424,87.503 L395.244,87.503 L395.244,56.816 L395.541,57.037 C411.226,57.346 421.384,73.548 427.948,87.503 L446.663,87.503 C437.878,69.022 428.406,55.813 417.212,48.333" id="logo__k"></path>
            <path d="M303.473,30.206 L318.652,30.206 C323.035,30.206 326.242,31.275 328.487,33.413 C330.624,35.444 331.693,38.331 331.693,41.858 C331.693,45.492 330.518,48.379 328.059,50.517 C325.6,52.654 322.287,53.724 318.01,53.724 L303.473,53.724 L303.473,30.206 Z M339.176,60.993 C341.955,58.855 343.987,56.075 345.59,52.868 C347.087,49.555 347.835,45.92 347.835,41.751 C347.835,37.796 347.194,34.268 345.804,31.061 C344.414,27.961 342.49,25.289 340.031,22.937 C337.466,20.799 334.473,18.982 330.945,17.806 C327.418,16.523 323.569,15.882 319.293,15.882 L287.438,15.882 L287.438,87.503 L303.473,87.503 L303.473,67.941 L318.01,67.941 C318.281,67.941 318.547,67.933 318.816,67.928 C322.267,75.024 326.788,81.595 331.152,87.503 L352.316,87.503 C346.06,79.782 339.469,72.571 335.318,63.782 C336.72,62.981 338.017,62.056 339.176,60.993 Z" id="logo__r"></path>
            <polyline id="logo__h" points="136.286 43.889 104.966 43.889 104.966 15.882 88.824 15.882 88.824 87.503 104.966 87.503 104.966 58.748 136.286 58.748 136.286 87.503 152.428 87.503 152.428 15.882 136.286 15.882 136.286 43.889"></polyline>
            <path d="M37.949,43.889 L27.472,42.499 C24.159,42.072 21.807,41.323 20.311,40.255 C18.814,39.292 18.065,37.689 18.065,35.658 C18.065,33.413 19.028,31.703 21.059,30.42 C23.09,29.244 26.403,28.603 31.107,28.603 C34.848,28.603 38.483,29.137 42.01,30.206 C45.538,31.275 48.638,32.879 51.524,34.91 L59.435,23.472 C55.8,20.371 51.524,18.126 46.714,16.63 C41.904,15.134 36.559,14.386 30.787,14.386 C26.511,14.386 22.662,14.813 19.028,15.882 C15.607,16.737 12.507,18.234 10.048,20.051 C7.59,21.868 5.558,24.22 4.276,26.999 C2.779,29.672 2.138,32.879 2.138,36.406 C2.138,42.927 4.062,47.844 7.91,51.265 C11.759,54.686 17.21,56.824 24.159,57.786 L35.169,59.175 C38.804,59.71 41.369,60.565 42.973,61.741 C44.576,62.917 45.325,64.627 45.325,66.658 C45.325,69.117 44.149,71.041 41.904,72.431 C39.552,73.82 36.024,74.568 31.321,74.568 C26.938,74.568 22.662,74.034 18.707,72.965 C14.752,71.896 10.689,70.079 6.734,67.62 L0,80.769 C4.597,83.869 9.407,86.007 14.217,87.183 C19.028,88.359 24.479,89 30.359,89 C35.383,89 39.766,88.466 43.614,87.29 C47.569,86.221 50.776,84.724 53.449,82.586 C56.014,80.662 57.939,78.203 59.328,75.317 C60.718,72.431 61.359,69.331 61.359,65.803 C61.359,59.71 59.435,54.793 55.587,51.158 C51.632,47.31 45.752,44.958 37.949,43.889" id="logo__s"></path>
        </g>
    </g>
</svg>