<?xml version="1.0" encoding="UTF-8"?><!DOCTYPE svg PUBLIC "-//W3C//DTD SVG 1.1//EN" "http://www.w3.org/Graphics/SVG/1.1/DTD/svg11.dtd"><svg xmlns="http://www.w3.org/2000/svg"><symbol id="icon-bag" viewBox="0 0 13.2 13.41"><title>bag</title><g data-name="Layer 2"><g data-name="&#x421;&#x43B;&#x43E;&#x439; 1"><path class="cls-1" d="M6.6 4.93l3-3.37H7.74V0H5.46v1.56H3.58l3 3.37zM0 5.7v.49C.28 8.11.53 10 .75 12a1.51 1.51 0 0 0 1.61 1.46h8.63a1.33 1.33 0 0 0 1.39-1.15c.07-.44.12-.89.18-1.33.16-1.27.32-2.53.47-3.79.06-.47.11-.94.17-1.43zm8.48 4.06a2.45 2.45 0 0 1-2.67.77 2.42 2.42 0 0 1-1.64-2.24v-1h.74v1A1.68 1.68 0 0 0 6.62 9.9a1.71 1.71 0 0 0 1.66-1.66v-1H9a3.43 3.43 0 0 1-.52 2.52z"/></g></g></symbol><symbol id="icon-branches" viewBox="0 0 9.9 9.9"><title>branches</title><g data-name="Layer 2"><path class="cls-1" d="M5 0h4a.85.85 0 0 1 .9.94V9a.89.89 0 0 1-.9.9H.88A.85.85 0 0 1 0 9V.87A.83.83 0 0 1 .89 0zm-.38 6.49h-.33c-.44 0-.6.16-.6.61v1.34a.48.48 0 0 0 .53.56h1.46a.48.48 0 0 0 .52-.5V6.98a.46.46 0 0 0-.51-.49H5.3v-4h1.11c.27 0 .51 0 .63.29a.41.41 0 0 0 .2.16.34.34 0 0 1 .2.36v1.69a.36.36 0 0 1-.19.37.91.91 0 0 0-.34 1.2.93.93 0 0 0 1.74-.16.88.88 0 0 0-.37-1 .45.45 0 0 1-.22-.44v-1.6a.43.43 0 0 1 .21-.42.88.88 0 0 0 .39-1 .92.92 0 0 0-.74-.71.85.85 0 0 0-.94.4.4.4 0 0 1-.39.21H3.35a.36.36 0 0 1-.35-.2 1.11 1.11 0 0 0-.46-.37.91.91 0 0 0-1.18.51.94.94 0 0 0 1.64.91c.06-.08.12-.2.18-.21h1.44v2.14H3.39a.53.53 0 0 1-.39-.2A1.33 1.33 0 0 0 2.34 4a.92.92 0 0 0-1 .66 1 1 0 0 0 .49 1.11.94.94 0 0 0 1.17-.3c.06-.07.13-.19.19-.19h1.45z" data-name="&#x421;&#x43B;&#x43E;&#x439; 1"/></g></symbol><symbol id="icon-building" viewBox="0 0 8.8 7.55"><title>building</title><g data-name="Layer 2"><g data-name="&#x421;&#x43B;&#x43E;&#x439; 1"><path class="cls-1" d="M0 7.55v-1h.93V2.72h1.4v3.84h1.34V2.72H5.1v3.84h1.34V2.72h1.43v3.85h.77c.12 0 .16 0 .16.16v.67c0 .22 0 .15-.15.15H0zM0 2.17v-.8L1.73.81 4.21 0a.33.33 0 0 1 .22 0l4.23 1.33c.11 0 .15.08.14.19a4.17 4.17 0 0 0 0 .5c0 .12 0 .15-.15.15H0zM4.39.55a.58.58 0 0 0-.58.59.59.59 0 1 0 1.19 0 .6.6 0 0 0-.61-.59z"/></g></g></symbol><symbol id="icon-calculator" viewBox="0 0 10.57 10.73"><title>calculator</title><g data-name="Layer 2"><g data-name="&#x421;&#x43B;&#x43E;&#x439; 1"><path class="cls-1" d="M0 0v9.23a1.48 1.48 0 0 0 1.53 1.51h4.28A1.51 1.51 0 0 0 7.48 9V0zm1.86 9a.58.58 0 1 1-.05-1.15.58.58 0 0 1 .59.55.6.6 0 0 1-.54.6zM1.8 7.08a.6.6 0 0 1-.56-.58.62.62 0 0 1 .61-.58.63.63 0 0 1 .56.59.61.61 0 0 1-.61.57zm-.56-2.52A.62.62 0 0 1 1.83 4a.62.62 0 0 1 .57.59.63.63 0 0 1-.61.58.64.64 0 0 1-.55-.61zM3.74 9a.6.6 0 0 1-.57-.57.58.58 0 1 1 1.15 0 .6.6 0 0 1-.58.57zm0-3.84a.61.61 0 0 1-.58-.56.6.6 0 0 1 .58-.6.6.6 0 0 1 .58.56.61.61 0 0 1-.57.61zm.57 1.36a.58.58 0 0 1-.6.55.57.57 0 0 1-.55-.59.61.61 0 0 1 .62-.57.6.6 0 0 1 .54.62zm1.34.55a.55.55 0 0 1-.56-.56.57.57 0 0 1 .57-.59.58.58 0 1 1 0 1.15zm0-1.91a.6.6 0 0 1-.56-.6.61.61 0 0 1 .58-.56.64.64 0 0 1 .58.62.63.63 0 0 1-.6.55zm.66-2.8a.62.62 0 0 1-.48.28H1.61a.66.66 0 0 1-.47-.34 8 8 0 0 1-.28-1.16h5.77a10.5 10.5 0 0 1-.32 1.23zM10.56 2.71a2.06 2.06 0 0 0 0-.26H8.84v.65c0 1.76.05 3.52.12 5.28a6.08 6.08 0 0 0 .35 1.49c0 .16.25.28.39.42.13-.14.28-.26.4-.41a1 1 0 0 0 .13-.38 18.87 18.87 0 0 0 .32-2.24c.05-1.52.02-3.03.01-4.55zM10.32 1.78a8.61 8.61 0 0 0 0-1A.61.61 0 0 0 9.1.77v1z"/></g></g></symbol><symbol id="icon-card-2" viewBox="0 0 21.12 14.45"><title>card-2</title><g data-name="Layer 2"><g data-name="&#x421;&#x43B;&#x43E;&#x439; 1"><path class="cls-1" d="M6.54 13.34a.56.56 0 0 0 0 1.11h13a1.56 1.56 0 0 0 1.55-1.56V1.55A1.55 1.55 0 0 0 19.57 0h-18A1.56 1.56 0 0 0 0 1.55v5.16a.56.56 0 0 0 .56.56.56.56 0 0 0 .55-.56V4.45H20v8.44a.45.45 0 0 1-.44.45zm13-12.23a.45.45 0 0 1 .45.44v1.79H1.11V1.55a.44.44 0 0 1 .44-.44z"/><path class="cls-1" d="M10 8.57a.55.55 0 0 0 .55.55h6.67a.56.56 0 1 0 0-1.11h-6.66a.56.56 0 0 0-.55.56zM14.57 10a.56.56 0 1 0 0 1.11h2.66a.56.56 0 1 0 0-1.11zM17.3 7.11a.55.55 0 0 0 .55-.55.56.56 0 0 0-.55-.56h-6.67a.56.56 0 1 0 0 1.11z"/></g></g></symbol><symbol id="icon-card" viewBox="0 0 20.51 15.35"><title>card</title><g data-name="Layer 2"><g data-name="&#x421;&#x43B;&#x43E;&#x439; 1"><path class="cls-1" d="M20.51 2.65A2.51 2.51 0 0 0 17.86 0H2.64A2.5 2.5 0 0 0 0 2.65v10a2.5 2.5 0 0 0 2.66 2.66h15.21a2.51 2.51 0 0 0 2.64-2.63zM19.35 12.8a1.35 1.35 0 0 1-1.41 1.4H2.57a1.35 1.35 0 0 1-1.42-1.42V2.58a1.37 1.37 0 0 1 1.44-1.43h15.32a1.35 1.35 0 0 1 1.44 1.42q.01 5.12 0 10.23z"/><path class="cls-1" d="M7.38 3.16a1.94 1.94 0 1 0 1.9 2 1.93 1.93 0 0 0-1.9-2zM17.33 3.24H12.2v1.11h5.13zM12.22 7h5.12V5.84h-5.12z"/></g></g></symbol><symbol id="icon-check" viewBox="0 0 512 512"><path d="M448 0H64C28.8 0 0 28.8 0 64v384c0 35.2 28.8 64 64 64h384c35.2 0 64-28.8 64-64V64c0-35.2-28.8-64-64-64zM224 397.255L105.373 278.627l45.255-45.254L224 306.745l153.373-153.373 45.254 45.255L224 397.255z"/></symbol><symbol id="icon-cloud" viewBox="0 0 11.55 7.68"><title>cloud</title><g data-name="Layer 2"><path class="cls-1" d="M5.48 7.67H2a2.08 2.08 0 0 1 0-4.16.41.41 0 0 0 .44-.28A2 2 0 0 1 4.56 2c.15 0 .24 0 .3-.15a2.76 2.76 0 0 1 5.35.55.52.52 0 0 0 .22.29 2.68 2.68 0 0 1 1 2.84 2.59 2.59 0 0 1-2.05 2.09 2.51 2.51 0 0 1-.61 0H5.48z" data-name="&#x421;&#x43B;&#x43E;&#x439; 1"/></g></symbol><symbol id="icon-contractor" viewBox="0 0 16.57 10.42"><title>contractor</title><g data-name="Layer 2"><g data-name="&#x421;&#x43B;&#x43E;&#x439; 1"><g data-name="15TDxb"><path class="cls-1" d="M7.89 8.28h1c0-.38 0-.75.07-1.12a5.31 5.31 0 0 1 .42-1.84 2.1 2.1 0 0 1 2-1.33 4.06 4.06 0 0 1 1 .08 2.15 2.15 0 0 1 1.58 1.59A8.16 8.16 0 0 1 14.27 8v.3h2.3v.77H7.88l-.07 1.35H2.36l-.08-1.34H0V8.3h2.25c0-.41 0-.8.07-1.19a4.8 4.8 0 0 1 .54-2A2.18 2.18 0 0 1 4.72 4a3.38 3.38 0 0 1 1.38.12 2.32 2.32 0 0 1 1.51 1.72 6.78 6.78 0 0 1 .25 2c0 .16.02.27.03.44zm5.61 0c0-.34 0-.65-.05-1A4.85 4.85 0 0 0 13 5.52a1.2 1.2 0 0 0-.74-.66 3.17 3.17 0 0 0-1-.09 1.35 1.35 0 0 0-1.24.83 4.85 4.85 0 0 0-.32 1.58c0 .36 0 .73-.07 1.1zM5.08 3.13a1.54 1.54 0 0 1-1.56-1.55A1.55 1.55 0 0 1 5.05 0a1.57 1.57 0 1 1 0 3.13zM11.49 3.13a1.56 1.56 0 1 1 1.64-1.5 1.57 1.57 0 0 1-1.64 1.5zm-.7-1.57a.78.78 0 0 0 1.55 0 .75.75 0 0 0-.76-.76.75.75 0 0 0-.79.76z"/></g></g></g></symbol><symbol id="icon-cross" viewBox="0 0 12.43 12.42"><title>cross</title><g data-name="Layer 2"><g data-name="&#x421;&#x43B;&#x43E;&#x439; 1"><path class="cls-1" d="M12.42 11.08L1.35 0 0 1.35l11.08 11.07z"/><path class="cls-1" d="M11.08 0L0 11.08l1.35 1.34L12.43 1.35z"/></g></g></symbol><symbol id="icon-crowdfounding" viewBox="0 0 12.1 14.66"><title>crowdfounding</title><g data-name="Layer 2"><g data-name="&#x421;&#x43B;&#x43E;&#x439; 1"><path class="cls-1" d="M7.32 1.19a1.21 1.21 0 0 1-1.19 1.22 1.22 1.22 0 0 1-1.24-1.18 1.22 1.22 0 1 1 2.43 0zM2.43 5.14A1.22 1.22 0 0 1 0 5.18 1.18 1.18 0 0 1 1.09 4a1.19 1.19 0 0 1 1.34 1.14zM12.1 5.14a1.22 1.22 0 0 1-2.43 0 1.22 1.22 0 1 1 2.43 0zM8.42 5.89a2.3 2.3 0 0 1-2.26 2.32A2.33 2.33 0 0 1 3.82 6 2.25 2.25 0 0 1 5.9 3.63a2.24 2.24 0 0 1 2.52 2.26zM6.19 14.66a6.47 6.47 0 0 0 5.06-2.44 5.46 5.46 0 0 0-4.11-3.29 5.58 5.58 0 0 0-6 3.26 6.49 6.49 0 0 0 5.05 2.47z"/></g></g></symbol><symbol id="icon-currency-2" viewBox="0 0 7.02 10.52"><title>currency-2</title><g data-name="Layer 2"><g data-name="&#x421;&#x43B;&#x43E;&#x439; 1"><path class="cls-1" d="M3 10.52a4.2 4.2 0 0 1-1.84-.94 3.34 3.34 0 0 1-1-1.81 4.27 4.27 0 0 0 6.82 0 3.4 3.4 0 0 1-2 2.47c-.26.11-.54.19-.82.28zM3.51 7A3.48 3.48 0 0 1 0 3.7a3.51 3.51 0 1 1 7-.36A3.48 3.48 0 0 1 3.51 7zM4.9 2.3A1.29 1.29 0 0 0 4 1.05a1.36 1.36 0 0 0-1.8 1.29c0 .26-.1.5-.13.75s0 .39 0 .59c0 .44.08.88.07 1.32a3 3 0 0 1-.17.73H4.9V5H3V3.67h1.1V3H3c-.14-.75 0-1.19.38-1.31s.7.06.92.6z"/><path class="cls-1" d="M.08 6a4.27 4.27 0 0 0 6.83 0A3.52 3.52 0 0 1 4 8.77 3.52 3.52 0 0 1 .08 6z"/></g></g></symbol><symbol id="icon-currency" viewBox="0 0 19.03 17.01"><title>currency</title><g data-name="Layer 2"><g data-name="&#x421;&#x43B;&#x43E;&#x439; 1"><path class="cls-1" d="M10 9.9a2.84 2.84 0 0 0 2.85-2.8 2.77 2.77 0 0 0-2.77-2.84A2.85 2.85 0 0 0 7.18 7 2.87 2.87 0 0 0 10 9.9zm0-4.64a1.74 1.74 0 0 1 1.8 1.84A1.81 1.81 0 0 1 10 8.91a1.87 1.87 0 0 1-1.82-1.84A1.79 1.79 0 0 1 10 5.26zM13.29 4.39a2.22 2.22 0 0 0 2.24-2.17 2.2 2.2 0 0 0-4.39-.07 2.17 2.17 0 0 0 2.15 2.24zM13.35 1a1.18 1.18 0 0 1 1.18 1.18 1.2 1.2 0 1 1-2.4 0A1.2 1.2 0 0 1 13.35 1zM18.86 10.45a1.8 1.8 0 0 0-2.07-.65c-1.4.61-2.77 1.27-4.14 1.95l.51.81a2.29 2.29 0 0 0 .27-.14c1.13-.53 2.25-1.06 3.39-1.57a3.93 3.93 0 0 1 .84-.18l.06.2c-2.22 1.62-4.42 3.27-6.68 4.82a2.62 2.62 0 0 1-1.63.31c-1.25-.14-2.5-.37-3.75-.58-2-.35-2.09-.35-3.41.75l.64.79c.25-.23.5-.45.76-.66a.81.81 0 0 1 .53-.12c1.68.26 3.35.54 5 .82a3.26 3.26 0 0 0 2.53-.49c2.34-1.68 4.67-3.38 7-5.07a.59.59 0 0 0 .15-.99z"/><path class="cls-1" d="M10 12.33a1.43 1.43 0 0 1-.7.34H6.93c-.34 0-.73.06-.66.49a.81.81 0 0 0 .58.48 22.09 22.09 0 0 0 2.7 0A1.57 1.57 0 0 0 11 12.27c.1-.5 0-.82-.56-1-.91-.26-1.81-.53-2.7-.83a5.56 5.56 0 0 0-4.87.63L0 12.84l.57.78h.14a16.76 16.76 0 0 0 2.37-1.43c2.35-1.8 4.62-.76 6.92.14z"/></g></g></symbol><symbol id="icon-enter" viewBox="0 0 15.2 9.6"><title>enter</title><g data-name="Layer 2"><path class="cls-1" d="M1.6 8.8V5.6h10.56L9.28 8.48 10.4 9.6l4.8-4.8L10.4 0 9.28 1.12 12.16 4H0v4.8z" data-name="&#x421;&#x43B;&#x43E;&#x439; 1"/></g></symbol><symbol id="icon-eye" viewBox="0 0 11.28 7.67"><title>eye</title><g data-name="Layer 2"><g data-name="&#x421;&#x43B;&#x43E;&#x439; 1"><path class="cls-1" d="M11.14 3.48A9.39 9.39 0 0 0 9 1.18a5.14 5.14 0 0 0-5.87-.5A9 9 0 0 0 0 3.7V4a10.2 10.2 0 0 0 2.16 2.38 5.74 5.74 0 0 0 2.68 1.24 5.34 5.34 0 0 0 2.66-.29 8.17 8.17 0 0 0 3.67-3.16.53.53 0 0 0-.03-.69zM5.59 5.64a1.79 1.79 0 1 1 1.84-1.79 1.81 1.81 0 0 1-1.84 1.79z"/><path class="cls-1" d="M5.67 2.88a1 1 0 0 0-1 1 1 1 0 1 0 2 0 1 1 0 0 0-1-1z"/></g></g></symbol><symbol id="icon-facebook" viewBox="0 0 5.07 9.37"><title>facebook</title><g data-name="Layer 2"><g data-name="&#x421;&#x43B;&#x43E;&#x439; 1"><g data-name="&lt;Group&gt;"><path data-name="&lt;Compound Path&gt;" class="cls-1" d="M4.88 0H3.66a2.14 2.14 0 0 0-2.25 2.31v1.06H.19a.2.2 0 0 0-.19.19V5.1a.19.19 0 0 0 .19.19h1.22v3.89a.19.19 0 0 0 .19.19h1.6a.19.19 0 0 0 .19-.19V5.29h1.43A.19.19 0 0 0 5 5.1V3.56a.21.21 0 0 0-.19-.19H3.39v-.9c0-.43.1-.65.67-.65h.82a.19.19 0 0 0 .19-.19V.19A.2.2 0 0 0 4.88 0z"/></g></g></g></symbol><symbol id="icon-fee" viewBox="0 0 12.56 12.51"><title>fee</title><g data-name="Layer 2"><g data-name="&#x421;&#x43B;&#x43E;&#x439; 1"><path class="cls-1" d="M9.52 3.79a1.9 1.9 0 0 0 1.87-1.92A1.87 1.87 0 0 0 9.29 0a1.85 1.85 0 0 0-1.71 1.93 1.91 1.91 0 0 0 1.94 1.86z"/><path class="cls-1" d="M12.55 5.71c0-.51-.35-.77-.94-.77H5.54a.74.74 0 0 1-.76-.37.77.77 0 0 1 .07-.87c.34-.52.67-1.05 1-1.59A1.78 1.78 0 0 0 5.52 0l-.23.28C4.05 1.63 2.84 3 1.57 4.32A5.19 5.19 0 0 0 0 7.92a6.44 6.44 0 0 0 6.12 4.59 1.12 1.12 0 0 0 .21-.18A6.48 6.48 0 0 0 8 8.26v-1.1c1.27-.15 2.51-.29 3.74-.45a.82.82 0 0 0 .81-1z"/></g></g></symbol><symbol id="icon-flag" viewBox="0 0 9.5 11.12"><title>flag</title><g data-name="Layer 2"><path class="cls-1" d="M0 0a4.5 4.5 0 0 0 .15.51l3.66 10c.23.64.38.7 1 .47s.73-.37.5-1c-.46-1.28-.92-2.57-1.4-3.84a.59.59 0 0 1 .18-.74C5.77 3.77 7.4 2.13 9 .5c.14-.14.27-.3.46-.5z" data-name="&#x421;&#x43B;&#x43E;&#x439; 1"/></g></symbol><symbol id="icon-founds" viewBox="0 0 14.38 9.28"><title>founds</title><g data-name="Layer 2"><g data-name="&#x421;&#x43B;&#x43E;&#x439; 1"><path class="cls-1" d="M5.66 9.28c-.32 0-.72 0-.88-.14a3.07 3.07 0 0 1-1-1.77l1.65.37c.1.57.16.87.23 1.54zM11 9.28c-.3 0-.65.05-.8-.09a2.42 2.42 0 0 1-1-1.46l1.48-.16c.07.66.17 1.01.32 1.71zM1.41 1.66a.8.8 0 0 1-.4.93.79.79 0 0 1-1 0z"/><path class="cls-1" d="M.84 5.13A8 8 0 0 0 1.93 9a.69.69 0 0 0 .25.28h.9V7.8a1.7 1.7 0 0 1 .2-.6c.26-.53.34-.52.9-.38.73.19 1.48.31 2.23.43a.38.38 0 0 1 .34.29c.16.47.37.93.57 1.39a.68.68 0 0 0 .29.35h.74c.07-.61.12-1.18.19-1.75 0-.21.15-.29.38-.33 1.19-.17 2.36-.37 3.54-.57.15 0 1.91-.48 1.91-2-.33-.1-.68-.19-1-.32a8.18 8.18 0 0 0-.59-1.22 1.76 1.76 0 0 0 .77-1.87l-1.58.69h-.09A4.35 4.35 0 0 0 10.14.75 7.87 7.87 0 0 0 8 .11 7.27 7.27 0 0 0 3.36.8 4.51 4.51 0 0 0 .84 5.13zM5.46.68a7.32 7.32 0 0 1 1-.07 6 6 0 0 1 3.8 1.25l-.45.47a5.57 5.57 0 0 0-3.48-1.08 4.84 4.84 0 0 0-.86.06z"/></g></g></symbol><symbol id="icon-gear" viewBox="0 0 16.3 16.29"><title>gear</title><g data-name="Layer 2"><g data-name="&#x421;&#x43B;&#x43E;&#x439; 1"><path class="cls-1" d="M15.49 6.48l-1.18-.2a6.55 6.55 0 0 0-.48-1.17l.69-1a1 1 0 0 0-.1-1.24l-1-1a1 1 0 0 0-.68-.28 1 1 0 0 0-.56.17l-1 .7A6.3 6.3 0 0 0 10 2L9.78.81A1 1 0 0 0 8.84 0H7.39a1 1 0 0 0-.95.8L6.24 2a5.61 5.61 0 0 0-1.16.49l-1-.69a.94.94 0 0 0-.56-.18 1 1 0 0 0-.68.28l-1 1a1 1 0 0 0-.1 1.24l.7 1A5.4 5.4 0 0 0 2 6.32l-1.17.2a1 1 0 0 0-.83.94v1.45a1 1 0 0 0 .8.95l1.2.2a5.61 5.61 0 0 0 .49 1.16l-.69 1a1 1 0 0 0 .1 1.24l1 1a1 1 0 0 0 .68.28.91.91 0 0 0 .56-.18l1-.7a5.83 5.83 0 0 0 1.13.46l.19 1.18a1 1 0 0 0 1 .8h1.41a1 1 0 0 0 1-.8l.2-1.18a6.55 6.55 0 0 0 1.17-.48l1 .69a1 1 0 0 0 1.24-.1l1-1a1 1 0 0 0 .11-1.25l-.7-1a7.06 7.06 0 0 0 .43-1.18l1.17-.19a1 1 0 0 0 .81-1V7.42a1 1 0 0 0-.81-.94zm0 2.39a.15.15 0 0 1-.11.14l-1.44.24a.39.39 0 0 0-.33.3A5.42 5.42 0 0 1 13 11a.41.41 0 0 0 0 .45l.85 1.19a.15.15 0 0 1 0 .18l-1 1a.19.19 0 0 1-.1 0h-.08L11.45 13a.39.39 0 0 0-.45 0 5.42 5.42 0 0 1-1.45.6.42.42 0 0 0-.3.33L9 15.36a.15.15 0 0 1-.14.11H7.43a.14.14 0 0 1-.14-.11l-.24-1.44a.41.41 0 0 0-.3-.33A5.66 5.66 0 0 1 5.33 13a.38.38 0 0 0-.21 0 .39.39 0 0 0-.23.07l-1.2.85h-.08a.15.15 0 0 1-.1-.05l-1-1a.13.13 0 0 1 0-.17l.84-1.19a.39.39 0 0 0 0-.45 5.72 5.72 0 0 1-.61-1.44.39.39 0 0 0-.33-.3L.94 9a.14.14 0 0 1-.11-.13V7.46a.14.14 0 0 1 .11-.13l1.43-.24a.43.43 0 0 0 .34-.31 5.21 5.21 0 0 1 .59-1.45.43.43 0 0 0 0-.45l-.85-1.2a.14.14 0 0 1 0-.17l1-1a.12.12 0 0 1 .09-.05h.08l1.18.84a.41.41 0 0 0 .46 0 5.25 5.25 0 0 1 1.44-.61.41.41 0 0 0 .3-.3L7.26.94a.13.13 0 0 1 .13-.11h1.45A.13.13 0 0 1 9 .94l.24 1.43a.42.42 0 0 0 .31.33 5.78 5.78 0 0 1 1.45.61.41.41 0 0 0 .45 0l1.19-.84h.08a.15.15 0 0 1 .1.05l1 1a.15.15 0 0 1 0 .18L13 4.85a.43.43 0 0 0 0 .45 5.42 5.42 0 0 1 .6 1.45.42.42 0 0 0 .34.3l1.44.25a.14.14 0 0 1 .11.13z"/><path class="cls-1" d="M8.73 7.73H7.57a.86.86 0 0 1 0-1.73h2a.42.42 0 0 0 0-.83H8.56v-.8A.41.41 0 0 0 8.15 4a.42.42 0 0 0-.42.42v.8h-.16a1.69 1.69 0 1 0 0 3.38h1.16a.86.86 0 0 1 0 1.72H6.64a.41.41 0 0 0 0 .82h1.09v.82a.41.41 0 0 0 .42.41.41.41 0 0 0 .41-.41v-.86h.19a1.69 1.69 0 0 0 0-3.37z"/></g></g></symbol><symbol id="icon-globe" viewBox="0 0 15.45 15.45"><title>globe</title><g data-name="Layer 2"><path class="cls-1" d="M0 7.71a7.72 7.72 0 1 1 7.68 7.73A7.74 7.74 0 0 1 0 7.71zm8.35 1.94l1-.07a10.87 10.87 0 0 0 3.69-.86 4.18 4.18 0 0 0 1-.64.42.42 0 0 0 0-.72 4.06 4.06 0 0 0-.91-.62 10.05 10.05 0 0 0-3.24-.83c-.5-.06-1-.09-1.54-.13zM7.1 5.79A12.17 12.17 0 0 0 2 6.91a2.6 2.6 0 0 0-.51.38c-.33.31-.34.58 0 .86a4.68 4.68 0 0 0 1 .63 10.52 10.52 0 0 0 3.08.75l1.52.13zm6.79 3.9a9.25 9.25 0 0 1-2.7.86c-.93.15-1.88.24-2.83.36v3.26a6.36 6.36 0 0 0 5.53-4.48zM8.35 4.52c1 .13 1.9.22 2.84.37a9.76 9.76 0 0 1 2.73.87 6.39 6.39 0 0 0-5.57-4.48zm-1.26.06V1.27c-2.26 0-5.25 2.42-5.52 4.47a14.15 14.15 0 0 1 5.52-1.16zm0 6.33c-1-.12-1.9-.21-2.83-.36a9.44 9.44 0 0 1-2.73-.87 6.4 6.4 0 0 0 5.57 4.48z" data-name="&#x421;&#x43B;&#x43E;&#x439; 1"/></g></symbol><symbol id="icon-hash" viewBox="0 0 10 10"><title>hash</title><g data-name="Layer 2"><g data-name="&#x421;&#x43B;&#x43E;&#x439; 1"><path class="cls-1" d="M5 3.81c-.39 0-.76 0-1.13-.05 0 .4-.06.82-.06 1.24a12.41 12.41 0 0 0 .06 1.24h2.26A12.41 12.41 0 0 0 6.19 5c0-.42 0-.84-.06-1.24-.36.03-.74.05-1.13.05z"/><path class="cls-1" d="M5 0a5 5 0 1 0 5 5 5 5 0 0 0-5-5zm3.27 7a.36.36 0 0 1-.35.26h-.1A9.39 9.39 0 0 0 6.76 7a9.54 9.54 0 0 1-.32 1.4.35.35 0 0 1-.34.24.25.25 0 0 1-.12 0 .34.34 0 0 1-.22-.45A7.58 7.58 0 0 0 6 7H4a6.94 6.94 0 0 0 .3 1.25.36.36 0 0 1-.3.4h-.11a.37.37 0 0 1-.34-.24A8.73 8.73 0 0 1 3.25 7a9.14 9.14 0 0 0-1.07.22.36.36 0 0 1-.44-.22.35.35 0 0 1 .26-.44 9.28 9.28 0 0 1 1.17-.24c0-.42-.06-.87-.06-1.32s0-.89.06-1.32A7.82 7.82 0 0 1 2 3.45.36.36 0 0 1 1.74 3a.35.35 0 0 1 .44-.25A9.23 9.23 0 0 0 3.25 3a7.45 7.45 0 0 1 .32-1.4.36.36 0 0 1 .68.23A7.54 7.54 0 0 0 4 3.05h2a7.56 7.56 0 0 0-.29-1.24.36.36 0 0 1 .29-.46.37.37 0 0 1 .46.23A8.35 8.35 0 0 1 6.76 3a9.47 9.47 0 0 0 1.06-.21.36.36 0 1 1 .18.66 7.94 7.94 0 0 1-1.16.23q.06.65.06 1.32t-.05 1.32A9.49 9.49 0 0 1 8 6.56a.35.35 0 0 1 .27.44z"/></g></g></symbol><symbol id="icon-id" viewBox="0 0 15.86 14.18"><title>id</title><g data-name="Layer 2"><g data-name="&#x421;&#x43B;&#x43E;&#x439; 1"><path class="cls-1" d="M6 2.94l1.69 1.27a.41.41 0 0 0 .24.08.43.43 0 0 0 .24-.08l1.72-1.27a.4.4 0 0 0 .17-.33V.41A.41.41 0 0 0 9.65 0H6.21a.41.41 0 0 0-.41.41v2.2a.4.4 0 0 0 .2.33zM6.62.82h2.63V2.4l-1.32 1-1.31-1z"/><path class="cls-1" d="M14.15 1.74h-3a.41.41 0 1 0 0 .81h3a.9.9 0 0 1 .9.9v9a.89.89 0 0 1-.9.89H1.71a.89.89 0 0 1-.89-.89v-9a.89.89 0 0 1 .89-.9h3a.41.41 0 1 0 0-.81h-3A1.71 1.71 0 0 0 0 3.45v9a1.72 1.72 0 0 0 1.71 1.71h12.44a1.71 1.71 0 0 0 1.71-1.71v-9a1.7 1.7 0 0 0-1.71-1.71z"/><path class="cls-1" d="M3 6a1.43 1.43 0 1 0 1.39-1.41A1.44 1.44 0 0 0 3 6zm2 0a.61.61 0 0 1-.61.61.61.61 0 1 1 0-1.22A.61.61 0 0 1 5 6zM4.39 7.74A2.11 2.11 0 0 0 2.5 8.82a4.83 4.83 0 0 0-.59 2 .42.42 0 0 0 .38.45.41.41 0 0 0 .44-.27c.14-1.59.7-2.39 1.66-2.39S5.9 9.36 6.05 11a.4.4 0 0 0 .4.37.41.41 0 0 0 .37-.44 5 5 0 0 0-.58-2 2.12 2.12 0 0 0-1.85-1.19zM13 5.35H8.42a.42.42 0 0 0-.42.41.41.41 0 0 0 .41.41H13a.41.41 0 0 0 .41-.41.42.42 0 0 0-.41-.41zM13.4 8.69a.41.41 0 0 0-.4-.41H8.42a.41.41 0 0 0-.42.41.42.42 0 0 0 .41.41H13a.41.41 0 0 0 .41-.41zM8.42 9.74a.41.41 0 1 0 0 .81h2.28a.41.41 0 1 0 0-.81zM13 6.81H8.42a.42.42 0 0 0-.42.41.41.41 0 0 0 .41.41H13a.41.41 0 0 0 .41-.41.42.42 0 0 0-.41-.41z"/></g></g></symbol><symbol id="icon-key" viewBox="0 0 16.66 13.85"><title>key</title><g data-name="Layer 2"><path class="cls-1" d="M16.48 10a.6.6 0 0 0-.84 0l-2.39 2.39-1.11-1.12 1.68-1.68a.6.6 0 0 0-.82-.83l-1.68 1.69-3.57-3.54a4.31 4.31 0 1 0-6.49.45 4.27 4.27 0 0 0 3.05 1.26 4.24 4.24 0 0 0 2.6-.87l4 4 2 1.95a.59.59 0 0 0 .42.18.58.58 0 0 0 .42-.18l2.81-2.8a.61.61 0 0 0 0-.85zM4.31 7.43a3.11 3.11 0 0 1-2.2-5.32 3.1 3.1 0 0 1 4.41 0 3.13 3.13 0 0 1 0 4.41 3.09 3.09 0 0 1-2.21.91z" data-name="&#x421;&#x43B;&#x43E;&#x439; 1"/></g></symbol><symbol id="icon-lamp" viewBox="0 0 7.53 11.45"><title>lamp</title><g data-name="Layer 2"><g data-name="&#x421;&#x43B;&#x43E;&#x439; 1"><path class="cls-1" d="M2.89.11a3.7 3.7 0 0 0-2.63 5c.37.95.87 1.86 1.3 2.79a.33.33 0 0 0 .34.22h3.72A.35.35 0 0 0 6 7.89c.32-.68.65-1.34 1-2a4.9 4.9 0 0 0 .58-2.19A3.73 3.73 0 0 0 2.89.11zM4.65 7H3a.24.24 0 0 1-.17-.17V5.6a.84.84 0 0 1 .87-.78.84.84 0 0 1 .88.74c.1.44.07.94.07 1.44zM5 8.92H2.24v1.11a1.5 1.5 0 0 0 1.6 1.41 1.47 1.47 0 0 0 1.45-1.52v-.74c0-.25-.07-.27-.29-.26z"/></g></g></symbol><symbol id="icon-lock" viewBox="0 0 6.73 8.42"><title>lock</title><g data-name="Layer 2"><path class="cls-1" d="M0 3.37h.84v-.86a2.53 2.53 0 1 1 5.05 0v.83h.84v3.4a1.67 1.67 0 0 1-1.65 1.68H1.66A1.67 1.67 0 0 1 0 6.77zm1.71 0H5a10.27 10.27 0 0 0 0-1.12A1.66 1.66 0 0 0 3.39.84a1.64 1.64 0 0 0-1.67 1.4 8.34 8.34 0 0 0-.01 1.12z" data-name="&#x421;&#x43B;&#x43E;&#x439; 1"/></g></symbol><symbol id="icon-payer" viewBox="0 0 11.07 8.3"><title>payer</title><g data-name="Layer 2"><g data-name="&#x421;&#x43B;&#x43E;&#x439; 1"><path class="cls-1" d="M11.06 8.3a.49.49 0 0 0 0-.11 3.08 3.08 0 0 0-2.67-2.94H6.56a5.86 5.86 0 0 1-1.19-.11A4.64 4.64 0 0 1 1.8 1.48.51.51 0 0 0 1.26 1H.57a.5.5 0 0 0-.57.7 6.37 6.37 0 0 0 2.6 4.07.37.37 0 0 1 .17.34V8.29h5.44v-.36a.41.41 0 0 1 .42-.4A.4.4 0 0 1 9 8v.3zM8.47 2.09a2.07 2.07 0 1 0-2.09 2.05 2.06 2.06 0 0 0 2.09-2.05z"/><path class="cls-1" d="M11.06 8.3H9V8a.4.4 0 0 0-.39-.42.41.41 0 0 0-.42.4v.36H2.77v-.5-1.68a.37.37 0 0 0-.17-.34A6.37 6.37 0 0 1 0 1.7.5.5 0 0 1 .57 1h.69a.51.51 0 0 1 .54.44 4.64 4.64 0 0 0 3.57 3.65 5.86 5.86 0 0 0 1.19.11h1.83a3.08 3.08 0 0 1 2.68 2.94.49.49 0 0 1-.01.16z"/><path class="cls-1" d="M8.47 2.09A2.07 2.07 0 1 1 6.41 0a2.07 2.07 0 0 1 2.06 2.09z"/></g></g></symbol><symbol id="icon-payment-1" viewBox="0 0 33.67 20.53"><title>payment-1</title><g data-name="Layer 2"><g data-name="&#x421;&#x43B;&#x43E;&#x439; 1"><path class="cls-1" d="M33.67 0v20.53H0V0h32.1zM16.83 5.32a6.29 6.29 0 0 0-9 8.65 6 6 0 0 0 3.61 2.4 6.17 6.17 0 0 0 5.34-1.16 6.33 6.33 0 0 0 8.7-.89 6.29 6.29 0 0 0-8.69-9z"/><path class="cls-1" d="M18.32 13.52a6.32 6.32 0 0 0 0-6.49 3.92 3.92 0 0 1 5 .15 4.05 4.05 0 0 1-5 6.34z"/></g></g></symbol><symbol id="icon-payment-2" viewBox="0 0 33.67 20.53"><title>payment-2</title><g data-name="Layer 2"><g data-name="&#x421;&#x43B;&#x43E;&#x439; 1"><path class="cls-1" d="M12.82 10.06h-.25a1.11 1.11 0 0 0-.87.81A1 1 0 0 0 12 12a1.25 1.25 0 0 0 1.73 0 1.07 1.07 0 0 0 .13-1.44 1.19 1.19 0 0 0-1.04-.5z"/><path class="cls-1" d="M32.1 0H0v20.51h33.67V0zM3.78 13.42H2.32V7h1.46zm4.14 0H6.3a.25.25 0 0 1-.15-.06L4 10.44l.62-.47A3.65 3.65 0 0 0 6 7.39 2.61 2.61 0 0 0 6 7h1.48A5 5 0 0 1 6 10.64l2 2.78zm1.92 0H8.46V7h1.38zm5.57 0h-1.33v-.27h-.09a2.12 2.12 0 0 1-.94.33h-.55c-.13 0-.27 0-.39-.09a2.34 2.34 0 0 1 .32-4.58 2.29 2.29 0 0 1 1.57.38l.09.05V9h1.34zm3.37-3.19a4.06 4.06 0 0 0-.62.19 1 1 0 0 0-.65.74.93.93 0 0 0 0 .23v2h-1.39V9h1.36v.56a1.76 1.76 0 0 1 1.3-.56zM24 13.36a.2.2 0 0 1 0 .07h-1.32v-.14-2.2a1.37 1.37 0 0 0-.05-.4.75.75 0 0 0-.69-.59 1.41 1.41 0 0 0-.5 0 .88.88 0 0 0-.67.87v2.42h-1.36V9h1.32v.46a1.53 1.53 0 0 1 1.09-.55 2 2 0 0 1 1.52.4 1.49 1.49 0 0 1 .66 1.17v2.88zm5.47.06h-1.31v-.27h-.07a2.28 2.28 0 0 1-1 .35h-.56l-.38-.08a2.35 2.35 0 0 1 .31-4.59 2.31 2.31 0 0 1 1.58.33l.08.05V9h1.32zm1.43.1a.84.84 0 0 1-.84-.83.85.85 0 0 1 .84-.85.84.84 0 0 1 0 1.68z"/><path class="cls-1" d="M26.93 10.05h-.29a1.13 1.13 0 0 0-.87.84 1 1 0 0 0 .35 1.11 1.25 1.25 0 0 0 1.7 0 1.05 1.05 0 0 0 .32-.85 1.18 1.18 0 0 0-1.21-1.1z"/></g></g></symbol><symbol id="icon-payment-3" viewBox="0 0 33.67 20.53"><title>payment-3</title><g data-name="Layer 2"><g data-name="&#x421;&#x43B;&#x43E;&#x439; 1"><path class="cls-1" d="M6.46 9.45a.58.58 0 0 0-.57.5 2.56 2.56 0 0 0 0 .27 1 1 0 0 0 0 .17.66.66 0 0 0 .46.59.63.63 0 0 0 .65-.24.91.91 0 0 0 .12-.83.64.64 0 0 0-.66-.46zM25.58 9.78a1.06 1.06 0 0 0-.72-1 2.81 2.81 0 0 0-2 .05.14.14 0 0 0-.07.11v.66l.21-.08a2.14 2.14 0 0 1 1.12-.15c.29 0 .47.23.43.49h-.27a2.56 2.56 0 0 0-1.31.22 1 1 0 0 0-.25 1.55 1.29 1.29 0 0 0 1.86-.18h.05v.43h1v-.31c-.03-.63-.03-1.21-.05-1.79zm-1.87 1.37a.3.3 0 0 1-.24-.27.29.29 0 0 1 .18-.35 2.72 2.72 0 0 1 .57-.1 1.82 1.82 0 0 1 .32 0 .65.65 0 0 1-.83.72zM20.36 8.64a1.27 1.27 0 0 0-.91.56v-.41c0-.14-.05-.1-.08-.1h-.91v4.43h1.08v-1.7a1.36 1.36 0 0 0 2 .11 2 2 0 0 0 .15-2.34 1.21 1.21 0 0 0-1.33-.55zm.41 2a.61.61 0 0 1-1.14.09 1 1 0 0 1 0-.93.61.61 0 0 1 .7-.32.71.71 0 0 1 .49.66v.11c0 .12-.01.25-.05.38zM15 9.38a.63.63 0 0 0-.65.47 2.85 2.85 0 0 0-.09.44 3 3 0 0 0 .13.49.6.6 0 0 0 .63.37.63.63 0 0 0 .58-.37 1.25 1.25 0 0 0 0-.93.66.66 0 0 0-.6-.47z"/><path class="cls-1" d="M32.1 0H0v20.51h33.67V0zm-.7 14.17a2.75 2.75 0 0 1 0 .41 2.25 2.25 0 0 1-2.29 1.93H4.58a2.29 2.29 0 0 1-.52-.05 2.23 2.23 0 0 1-1.79-2.24v-2.71V6.2a2.21 2.21 0 0 1 1.54-2.07A4.72 4.72 0 0 1 4.35 4h25a5.08 5.08 0 0 1 .59.15 2.23 2.23 0 0 1 1.49 2.2z"/><path class="cls-1" d="M28.5 8.69s-.1.06-.12.11l-.21.67-.4 1.27c-.19-.56-.36-1.09-.54-1.61-.05-.15-.06-.34-.17-.42s-.29 0-.44 0h-.71l.07.2c.38 1 .76 1.93 1.15 2.89a.3.3 0 0 1-.05.35.72.72 0 0 1-.32.2 3.45 3.45 0 0 1-.56 0l-.07.78.34.06a1.35 1.35 0 0 0 1.59-.83 1.19 1.19 0 0 0 .08-.16c.45-1.13.89-2.26 1.33-3.39V8.7zM4.64 4.92a1.4 1.4 0 0 0-1.45 1.45v7.79a1.4 1.4 0 0 0 1.47 1.46h12.85V4.92H4.64zm3.57 5.68c0 .47 0 .94-.05 1.4a1.24 1.24 0 0 1-1.06 1.11A3.79 3.79 0 0 1 5.24 13c-.09 0-.12-.06-.11-.16s0-.47 0-.68c.31.07.6.15.91.2a1.68 1.68 0 0 0 .5 0 .84.84 0 0 0 .62-1h-.07a1.25 1.25 0 0 1-1.34.42 1.28 1.28 0 0 1-1-1 2.21 2.21 0 0 1 .09-1.32 1.2 1.2 0 0 1 1-.79 1.21 1.21 0 0 1 1.26.47l.09.1V8.7h.88c.12 0 .09.1.09.16.05.58.06 1.14.05 1.74zM10 11.83H9a1 1 0 0 1 0-.17V8.88c0-.14 0-.19.18-.18s.58 0 .88 0zm0-3.67H9V7.4h1zm3 1.38a3.36 3.36 0 0 0-.55 0 .77.77 0 0 0-.6.77v1.52H10.8V8.87c0-.13 0-.18.17-.17s.53 0 .81 0v.51a1 1 0 0 1 1.28-.58zm3.71 1.12a1.46 1.46 0 0 1-1.14 1.16 6.37 6.37 0 0 1-.63.11 2 2 0 0 1-1.39-.53 1.58 1.58 0 0 1-.38-1.6 1.46 1.46 0 0 1 1.09-1.08 2.05 2.05 0 0 1 1.89.28 1.52 1.52 0 0 1 .59 1.66z"/></g></g></symbol><symbol id="icon-pencil" viewBox="0 0 10.24 10.15"><title>pencil</title><g data-name="Layer 2"><g data-name="&#x421;&#x43B;&#x43E;&#x439; 1"><path class="cls-1" d="M9.67 2.34a.78.78 0 0 0 0-1.18C9.47.94 9.25.73 9 .52c-.7-.7-1-.69-1.72 0C5.89 2 4.52 3.45 3 4.8A10.58 10.58 0 0 0 .12 9.34a3.78 3.78 0 0 0-.12.57.89.89 0 0 0 .32 0A11.23 11.23 0 0 0 3.8 8.19C5.79 6.27 7.73 4.3 9.67 2.34zM10.24 8.23c0-.62 0-.62-1.24-.79-.23-.44.33-1.21-.69-1.24s-.61.8-.77 1.23c-.43.22-1.15-.27-1.26.62-.13 1.12.76.72 1.26.84.11 1.23.11 1.25.54 1.25.24 0 .64 0 .69-.09A4.83 4.83 0 0 0 9 8.91c.41-.24 1.27.37 1.24-.68z"/></g></g></symbol><symbol id="icon-phones" viewBox="0 0 9.19 10.52"><title>phones</title><g data-name="Layer 2"><g data-name="&#x421;&#x43B;&#x43E;&#x439; 1"><path class="cls-1" d="M1 5.22a3.65 3.65 0 0 1 1.43-3.64 3.71 3.71 0 0 1 4.51.14 3.63 3.63 0 0 1 1.28 3.54c-.18 0-.37 0-.55-.06a.23.23 0 0 0-.25.12 2.71 2.71 0 0 0-.51 2.38c0 .2.12.33.36.36s.51.13.77.19l.56.14c.16-.91.3-1.79.47-2.66a5.21 5.21 0 0 0 0-2.08A4.6 4.6 0 0 0 0 5.1c.11.64.24 1.27.35 1.9.07.45.16.89.24 1.37L2.11 8c.05 0 .09-.08.1-.14a2.67 2.67 0 0 0-.47-2.56.29.29 0 0 0-.2-.09c-.2-.03-.39 0-.54.01zM2.82 9h-.74a.5.5 0 0 0-.56.49.5.5 0 0 0 .55.49h1.29a.66.66 0 0 1 .57.22 1 1 0 0 0 1.34 0 1 1 0 0 0 .05-1.37A.93.93 0 0 0 4 8.79a.78.78 0 0 1-.7.25z"/><path class="cls-1" d="M1 5.22h.59a.29.29 0 0 1 .2.09 2.67 2.67 0 0 1 .47 2.56c0 .06 0 .13-.1.14l-1.52.4C.51 7.89.42 7.45.35 7 .24 6.37.11 5.74 0 5.1a4.6 4.6 0 0 1 9.1-1.45 5.21 5.21 0 0 1 0 2.08c-.17.87-.31 1.75-.47 2.66L8 8.25c-.26-.06-.51-.15-.77-.19S7 7.9 6.91 7.7a2.71 2.71 0 0 1 .51-2.38.23.23 0 0 1 .25-.12c.18 0 .37 0 .55.06a3.63 3.63 0 0 0-1.28-3.54 3.71 3.71 0 0 0-4.51-.14A3.65 3.65 0 0 0 1 5.22zM2.82 9h.45A.78.78 0 0 0 4 8.79a.93.93 0 0 1 1.35.08 1 1 0 0 1-.05 1.37 1 1 0 0 1-1.34 0 .66.66 0 0 0-.6-.24H2.07a.5.5 0 0 1-.55-.49.5.5 0 0 1 .56-.51z"/></g></g></symbol><symbol id="icon-pie" viewBox="0 0 9.93 9.94"><title>pie</title><g data-name="Layer 2"><g data-name="&#x421;&#x43B;&#x43E;&#x439; 1"><path class="cls-1" d="M4.41 1.12A4.42 4.42 0 1 0 5 9.92c2.12-.23 4.13-2.47 3.82-4.4H4.86c-.41 0-.41 0-.41-.42v-4zm5.52 3.24A4.3 4.3 0 0 0 5.55 0v4.36z"/><path class="cls-1" d="M4.41 1.12v4c0 .42 0 .42.41.42h3.96C9.09 7.45 7.08 9.69 5 9.92a4.42 4.42 0 1 1-.55-8.8z"/><path class="cls-1" d="M9.93 4.36H5.55V0a4.3 4.3 0 0 1 4.38 4.36z"/></g></g></symbol><symbol id="icon-pin" viewBox="0 0 9.58 9.83"><title>pin</title><g data-name="Layer 2"><path class="cls-1" d="M2.94 9.83A2.86 2.86 0 0 1 .26 8.06a2.87 2.87 0 0 1 .65-3.29l2.93-2.93C4.26 1.42 4.67 1 5.1.58A1.81 1.81 0 0 1 7.66.49a1.79 1.79 0 0 1 0 2.6c-1.3 1.29-2.59 2.55-3.85 3.84-.33.33-.57.29-.9 0S2.65 6.34 3 6c1.16-1.14 2.33-2.32 3.51-3.5l.21-.22c.27-.28.41-.59.09-.89s-.61-.19-.89.09l-.61.61C4.17 3.24 3 4.38 1.88 5.52a1.73 1.73 0 0 0-.12 2.62A1.77 1.77 0 0 0 4.34 8C5.7 6.62 7.07 5.26 8.42 3.89c.31-.31.57-.43.93-.06s.26.62-.06.94C7.87 6.17 6.47 7.58 5.06 9a2.89 2.89 0 0 1-2.12.83z" data-name="&#x421;&#x43B;&#x43E;&#x439; 1"/></g></symbol><symbol id="icon-resize" viewBox="0 0 10.13 8.37"><title>resize</title><g data-name="Layer 2"><g data-name="&#x421;&#x43B;&#x43E;&#x439; 1"><path class="cls-1" d="M8 5.8V2.6c0-.39-.11-.54-.51-.53s-.81 0-1.21 0H2.62c-.42 0-.51.14-.51.52V5.8c0 .35.11.5.48.5h4.94c.37 0 .47-.14.47-.5zM1.06 2.81c.11-.53.06-1.15.34-1.42s.92-.23 1.42-.33v-1C.64-.24-.26.66.07 2.81zM9.06 2.82h1C10.48.34 9-.27 7.32.1v1c.52.11 1.14.06 1.41.35s.27.87.33 1.37zM1.06 5.56h-1c-.37 2.51 1.05 3 2.76 2.73v-1c-.5-.1-1.12 0-1.4-.32s-.25-.89-.36-1.41zM9.06 5.56C9 6.09 9 6.71 8.73 7s-.92.23-1.42.33v1c2.18.31 3.08-.6 2.75-2.74z"/></g></g></symbol><symbol id="icon-search-2" viewBox="0 0 10.94 10.92"><title>search-2</title><g data-name="Layer 2"><g data-name="&#x421;&#x43B;&#x43E;&#x439; 1"><path class="cls-1" d="M10.85 3.28A4.05 4.05 0 0 0 6.82 0a6.7 6.7 0 0 0-.9.1 4.09 4.09 0 0 0-2.8 5.8.4.4 0 0 1-.12.52c-.94 1-1.87 2-2.79 3.07a.84.84 0 0 0 0 1.22.89.89 0 0 0 1.18 0c1-.92 2.05-1.84 3.06-2.77a.4.4 0 0 1 .54-.08 4 4 0 0 0 4.31-.48 3.94 3.94 0 0 0 1.55-4.1zm-4 3.6a2.76 2.76 0 1 1 2.74-2.73 2.77 2.77 0 0 1-2.76 2.73z"/><path class="cls-1" d="M6.83 2.75A1.36 1.36 0 0 0 5.46 4.1a1.37 1.37 0 1 0 1.37-1.35z"/></g></g></symbol><symbol id="icon-search" viewBox="0 0 32 32"><title>search</title><path d="M31.008 27.231l-7.58-6.447c-.784-.705-1.622-1.029-2.299-.998a11.954 11.954 0 0 0 2.87-7.787c0-6.627-5.373-12-12-12s-12 5.373-12 12 5.373 12 12 12c2.972 0 5.691-1.081 7.787-2.87-.031.677.293 1.515.998 2.299l6.447 7.58c1.104 1.226 2.907 1.33 4.007.23s.997-2.903-.23-4.007zM12 20a8 8 0 1 1 0-16 8 8 0 0 1 0 16z"/></symbol><symbol id="icon-sheet" viewBox="0 0 10.87 14.44"><title>sheet</title><g data-name="Layer 2"><path class="cls-1" d="M10.87 7.25v6.52c0 .5-.17.67-.67.67H.69c-.51 0-.69-.18-.69-.7V4.47a.89.89 0 0 1 .28-.67L3.81.27A.85.85 0 0 1 4.45 0h5.82c.41 0 .6.2.6.62zM5.09 1.08v3.33c0 .48-.19.67-.68.67H1.08v8.28h8.73V1.08zM4 1.66L1.65 4H4z" data-name="&#x421;&#x43B;&#x43E;&#x439; 1"/></g></symbol><symbol id="icon-split" viewBox="0 0 12.13 12.14"><title>split</title><g data-name="Layer 2"><g data-name="&#x421;&#x43B;&#x43E;&#x439; 1"><path class="cls-1" d="M4.85 2.92h2.23v5a.3.3 0 0 0 .07.21l3.93 3.94.08.07 1-1-.16-.07-3.45-3.46a.31.31 0 0 1-.09-.19V3a.2.2 0 0 1 0-.07h2.22L7.77 0zM0 7.77a.61.61 0 0 0 .07.1l2.77 2.76V8.48H5.7V7.11H2.91V5v-.17z"/></g></g></symbol><symbol id="icon-tags" viewBox="0 0 9.81 10.49"><title>tags</title><g data-name="Layer 2"><g data-name="&#x421;&#x43B;&#x43E;&#x439; 1"><path class="cls-1" d="M2.05 0h1.31a1 1 0 0 1 .78.31l4 4 1.4 1.38c.35.35.35.49 0 .84l-3 3.05c-.27.27-.45.27-.71 0L.36 4.16A1.13 1.13 0 0 1 0 3.34V.59C0 .18.17 0 .59 0zM.76 1.45a.63.63 0 0 0 .61.65.66.66 0 0 0 .63-.62.65.65 0 0 0-.6-.64.63.63 0 0 0-.64.61zM4.85 10c-.45.18-.84.36-1.23.51s-.45-.05-.56-.3Q2 7.91.91 5.68a5.49 5.49 0 0 1-.37-.9zM2.06 10.15H.74c-.42 0-.42-.15-.42-.53v-3.5a4.15 4.15 0 0 1 .06-.85z"/></g></g></symbol><symbol id="icon-tooltip" viewBox="0 0 14.07 10.71"><title>tooltip</title><g data-name="Layer 2"><path class="cls-1" d="M4.23 8.44H5l3.44 2.27V8.44h1.4A4.22 4.22 0 0 0 9.87 0H4.23A4.26 4.26 0 0 0 0 4.23a4.24 4.24 0 0 0 4.23 4.21zM8.1 3.67l.84.84 1.77-1.77.66.66-2.43 2.43-1.5-1.5zm-5.6-.51l.66-.66 1.07 1.07L5.3 2.5l.7.66-1.11 1.07L6 5.3l-.7.7-1.07-1.11L3.16 6l-.66-.7 1.07-1.07z" data-name="&#x421;&#x43B;&#x43E;&#x439; 1"/></g></symbol><symbol id="icon-user" viewBox="0 0 13.27 14.3"><title>user</title><g data-name="Layer 2"><g data-name="&#x421;&#x43B;&#x43E;&#x439; 1"><path class="cls-1" d="M12.67 9.27H.48a.44.44 0 0 0-.48.47v.45a3 3 0 0 0 .79 2.08 5.63 5.63 0 0 0 2.49 1.51 11.06 11.06 0 0 0 4.88.42 8.18 8.18 0 0 0 2.94-.86 3.51 3.51 0 0 0 2.16-3.49c-.02-.44-.15-.58-.59-.58zm-1 2.5A4.51 4.51 0 0 1 9.56 13a10.11 10.11 0 0 1-6.43-.22 4 4 0 0 1-1.74-1.21 1.86 1.86 0 0 1-.47-1.35h11.41a2.09 2.09 0 0 1-.62 1.55zM6.58 7.09a3.55 3.55 0 1 0-3.49-3.66 3.54 3.54 0 0 0 3.49 3.66zm0-6.17a2.64 2.64 0 0 1 2.68 2.62A2.63 2.63 0 1 1 4 3.55 2.62 2.62 0 0 1 6.61.92z"/></g></g></symbol><symbol id="icon-wallet" viewBox="0 0 7.41 13.26"><title>wallet</title><g data-name="Layer 2"><path class="cls-1" d="M6.74 0a1 1 0 0 1 .67 1.14v3.21a.9.9 0 0 1-.49.89c-.51.29-1 .6-1.5.87a.45.45 0 0 1-.39 0c-.87-.5-1.74-1-2.67-1.57L3.4 4l2.93-1.7a.75.75 0 0 0 .46-.68.68.68 0 0 0-.17-.47c-.08-.06-.32 0-.45.06l-3.29 2c-.54.32-1.08.63-1.61 1s-.45.48 0 .75C3 5.92 4.7 7 6.43 8a1.8 1.8 0 0 1 1 1.71v2.79a.67.67 0 0 1-1.1.62C4.33 12 2.38 10.77.41 9.59A.78.78 0 0 1 0 8.88V4.22a.82.82 0 0 1 .53-.72L6.38 0z" data-name="&#x421;&#x43B;&#x43E;&#x439; 1"/></g></symbol><symbol id="icon-youtube" viewBox="0 0 8.84 6.22"><title>youtube</title><g data-name="Layer 2"><g data-name="&#x421;&#x43B;&#x43E;&#x439; 1"><g data-name="&lt;Group&gt;"><path data-name="&lt;Compound Path&gt;" class="cls-1" d="M8.49.53C8.17.15 7.58 0 6.46 0H2.38C1.23 0 .63.16.31.57A2.87 2.87 0 0 0 0 2.34v1.53c0 1.56.37 2.35 2.38 2.35h4.08a2.57 2.57 0 0 0 1.86-.47 2.49 2.49 0 0 0 .52-1.88V2.34A2.83 2.83 0 0 0 8.49.53zM5.67 3.32l-1.85 1a.31.31 0 0 1-.13 0 .26.26 0 0 1-.15 0A.27.27 0 0 1 3.4 4V2.11a.29.29 0 0 1 .14-.25.31.31 0 0 1 .28 0l1.85 1a.29.29 0 0 1 .16.26.28.28 0 0 1-.16.25z"/></g></g></g></symbol></svg>