<?xml version="1.0" encoding="UTF-8"?><!DOCTYPE svg PUBLIC "-//W3C//DTD SVG 1.1//EN" "http://www.w3.org/Graphics/SVG/1.1/DTD/svg11.dtd"><svg xmlns="http://www.w3.org/2000/svg"><symbol id="icon-bag" viewBox="0 0 13.2 13.41"><title>bag</title><g data-name="Layer 2"><g data-name="&#x421;&#x43B;&#x43E;&#x439; 1"><path class="cls-1" d="M6.6 4.93l3-3.37H7.74V0H5.46v1.56H3.58l3 3.37zM0 5.7v.49C.28 8.11.53 10 .75 12a1.51 1.51 0 0 0 1.61 1.46h8.63a1.33 1.33 0 0 0 1.39-1.15c.07-.44.12-.89.18-1.33.16-1.27.32-2.53.47-3.79.06-.47.11-.94.17-1.43zm8.48 4.06a2.45 2.45 0 0 1-2.67.77 2.42 2.42 0 0 1-1.64-2.24v-1h.74v1A1.68 1.68 0 0 0 6.62 9.9a1.71 1.71 0 0 0 1.66-1.66v-1H9a3.43 3.43 0 0 1-.52 2.52z"/></g></g></symbol><symbol id="icon-building" viewBox="0 0 8.8 7.55"><title>building</title><g data-name="Layer 2"><g data-name="&#x421;&#x43B;&#x43E;&#x439; 1"><path class="cls-1" d="M0 7.55v-1h.93V2.72h1.4v3.84h1.34V2.72H5.1v3.84h1.34V2.72h1.43v3.85h.77c.12 0 .16 0 .16.16v.67c0 .22 0 .15-.15.15H0zM0 2.17v-.8L1.73.81 4.21 0a.33.33 0 0 1 .22 0l4.23 1.33c.11 0 .15.08.14.19a4.17 4.17 0 0 0 0 .5c0 .12 0 .15-.15.15H0zM4.39.55a.58.58 0 0 0-.58.59.59.59 0 1 0 1.19 0 .6.6 0 0 0-.61-.59z"/></g></g></symbol><symbol id="icon-calculator" viewBox="0 0 10.57 10.73"><title>calculator</title><g data-name="Layer 2"><g data-name="&#x421;&#x43B;&#x43E;&#x439; 1"><path class="cls-1" d="M0 0v9.23a1.48 1.48 0 0 0 1.53 1.51h4.28A1.51 1.51 0 0 0 7.48 9V0zm1.86 9a.58.58 0 1 1-.05-1.15.58.58 0 0 1 .59.55.6.6 0 0 1-.54.6zM1.8 7.08a.6.6 0 0 1-.56-.58.62.62 0 0 1 .61-.58.63.63 0 0 1 .56.59.61.61 0 0 1-.61.57zm-.56-2.52A.62.62 0 0 1 1.83 4a.62.62 0 0 1 .57.59.63.63 0 0 1-.61.58.64.64 0 0 1-.55-.61zM3.74 9a.6.6 0 0 1-.57-.57.58.58 0 1 1 1.15 0 .6.6 0 0 1-.58.57zm0-3.84a.61.61 0 0 1-.58-.56.6.6 0 0 1 .58-.6.6.6 0 0 1 .58.56.61.61 0 0 1-.57.61zm.57 1.36a.58.58 0 0 1-.6.55.57.57 0 0 1-.55-.59.61.61 0 0 1 .62-.57.6.6 0 0 1 .54.62zm1.34.55a.55.55 0 0 1-.56-.56.57.57 0 0 1 .57-.59.58.58 0 1 1 0 1.15zm0-1.91a.6.6 0 0 1-.56-.6.61.61 0 0 1 .58-.56.64.64 0 0 1 .58.62.63.63 0 0 1-.6.55zm.66-2.8a.62.62 0 0 1-.48.28H1.61a.66.66 0 0 1-.47-.34 8 8 0 0 1-.28-1.16h5.77a10.5 10.5 0 0 1-.32 1.23zM10.56 2.71a2.06 2.06 0 0 0 0-.26H8.84v.65c0 1.76.05 3.52.12 5.28a6.08 6.08 0 0 0 .35 1.49c0 .16.25.28.39.42.13-.14.28-.26.4-.41a1 1 0 0 0 .13-.38 18.87 18.87 0 0 0 .32-2.24c.05-1.52.02-3.03.01-4.55zM10.32 1.78a8.61 8.61 0 0 0 0-1A.61.61 0 0 0 9.1.77v1z"/></g></g></symbol><symbol id="icon-card" viewBox="0 0 20.51 15.35"><title>card</title><g data-name="Layer 2"><g data-name="&#x421;&#x43B;&#x43E;&#x439; 1"><path class="cls-1" d="M20.51 2.65A2.51 2.51 0 0 0 17.86 0H2.64A2.5 2.5 0 0 0 0 2.65v10a2.5 2.5 0 0 0 2.66 2.66h15.21a2.51 2.51 0 0 0 2.64-2.63zM19.35 12.8a1.35 1.35 0 0 1-1.41 1.4H2.57a1.35 1.35 0 0 1-1.42-1.42V2.58a1.37 1.37 0 0 1 1.44-1.43h15.32a1.35 1.35 0 0 1 1.44 1.42q.01 5.12 0 10.23z"/><path class="cls-1" d="M7.38 3.16a1.94 1.94 0 1 0 1.9 2 1.93 1.93 0 0 0-1.9-2zM17.33 3.24H12.2v1.11h5.13zM12.22 7h5.12V5.84h-5.12z"/></g></g></symbol><symbol id="icon-check" viewBox="0 0 512 512"><path d="M448 0H64C28.8 0 0 28.8 0 64v384c0 35.2 28.8 64 64 64h384c35.2 0 64-28.8 64-64V64c0-35.2-28.8-64-64-64zM224 397.255L105.373 278.627l45.255-45.254L224 306.745l153.373-153.373 45.254 45.255L224 397.255z"/></symbol><symbol id="icon-cloud" viewBox="0 0 11.55 7.68"><title>cloud</title><g data-name="Layer 2"><path class="cls-1" d="M5.48 7.67H2a2.08 2.08 0 0 1 0-4.16.41.41 0 0 0 .44-.28A2 2 0 0 1 4.56 2c.15 0 .24 0 .3-.15a2.76 2.76 0 0 1 5.35.55.52.52 0 0 0 .22.29 2.68 2.68 0 0 1 1 2.84 2.59 2.59 0 0 1-2.05 2.09 2.51 2.51 0 0 1-.61 0H5.48z" data-name="&#x421;&#x43B;&#x43E;&#x439; 1"/></g></symbol><symbol id="icon-contractor" viewBox="0 0 16.57 10.42"><title>contractor</title><g data-name="Layer 2"><g data-name="&#x421;&#x43B;&#x43E;&#x439; 1"><g data-name="15TDxb"><path class="cls-1" d="M7.89 8.28h1c0-.38 0-.75.07-1.12a5.31 5.31 0 0 1 .42-1.84 2.1 2.1 0 0 1 2-1.33 4.06 4.06 0 0 1 1 .08 2.15 2.15 0 0 1 1.58 1.59A8.16 8.16 0 0 1 14.27 8v.3h2.3v.77H7.88l-.07 1.35H2.36l-.08-1.34H0V8.3h2.25c0-.41 0-.8.07-1.19a4.8 4.8 0 0 1 .54-2A2.18 2.18 0 0 1 4.72 4a3.38 3.38 0 0 1 1.38.12 2.32 2.32 0 0 1 1.51 1.72 6.78 6.78 0 0 1 .25 2c0 .16.02.27.03.44zm5.61 0c0-.34 0-.65-.05-1A4.85 4.85 0 0 0 13 5.52a1.2 1.2 0 0 0-.74-.66 3.17 3.17 0 0 0-1-.09 1.35 1.35 0 0 0-1.24.83 4.85 4.85 0 0 0-.32 1.58c0 .36 0 .73-.07 1.1zM5.08 3.13a1.54 1.54 0 0 1-1.56-1.55A1.55 1.55 0 0 1 5.05 0a1.57 1.57 0 1 1 0 3.13zM11.49 3.13a1.56 1.56 0 1 1 1.64-1.5 1.57 1.57 0 0 1-1.64 1.5zm-.7-1.57a.78.78 0 0 0 1.55 0 .75.75 0 0 0-.76-.76.75.75 0 0 0-.79.76z"/></g></g></g></symbol><symbol id="icon-cross" viewBox="0 0 12.43 12.42"><title>cross</title><g data-name="Layer 2"><g data-name="&#x421;&#x43B;&#x43E;&#x439; 1"><path class="cls-1" d="M12.42 11.08L1.35 0 0 1.35l11.08 11.07z"/><path class="cls-1" d="M11.08 0L0 11.08l1.35 1.34L12.43 1.35z"/></g></g></symbol><symbol id="icon-crowdfounding" viewBox="0 0 12.1 14.66"><title>crowdfounding</title><g data-name="Layer 2"><g data-name="&#x421;&#x43B;&#x43E;&#x439; 1"><path class="cls-1" d="M7.32 1.19a1.21 1.21 0 0 1-1.19 1.22 1.22 1.22 0 0 1-1.24-1.18 1.22 1.22 0 1 1 2.43 0zM2.43 5.14A1.22 1.22 0 0 1 0 5.18 1.18 1.18 0 0 1 1.09 4a1.19 1.19 0 0 1 1.34 1.14zM12.1 5.14a1.22 1.22 0 0 1-2.43 0 1.22 1.22 0 1 1 2.43 0zM8.42 5.89a2.3 2.3 0 0 1-2.26 2.32A2.33 2.33 0 0 1 3.82 6 2.25 2.25 0 0 1 5.9 3.63a2.24 2.24 0 0 1 2.52 2.26zM6.19 14.66a6.47 6.47 0 0 0 5.06-2.44 5.46 5.46 0 0 0-4.11-3.29 5.58 5.58 0 0 0-6 3.26 6.49 6.49 0 0 0 5.05 2.47z"/></g></g></symbol><symbol id="icon-enter" viewBox="0 0 15.2 9.6"><title>enter</title><g data-name="Layer 2"><path class="cls-1" d="M1.6 8.8V5.6h10.56L9.28 8.48 10.4 9.6l4.8-4.8L10.4 0 9.28 1.12 12.16 4H0v4.8z" data-name="&#x421;&#x43B;&#x43E;&#x439; 1"/></g></symbol><symbol id="icon-facebook" viewBox="0 0 5.07 9.37"><title>facebook</title><g data-name="Layer 2"><g data-name="&#x421;&#x43B;&#x43E;&#x439; 1"><g data-name="&lt;Group&gt;"><path data-name="&lt;Compound Path&gt;" class="cls-1" d="M4.88 0H3.66a2.14 2.14 0 0 0-2.25 2.31v1.06H.19a.2.2 0 0 0-.19.19V5.1a.19.19 0 0 0 .19.19h1.22v3.89a.19.19 0 0 0 .19.19h1.6a.19.19 0 0 0 .19-.19V5.29h1.43A.19.19 0 0 0 5 5.1V3.56a.21.21 0 0 0-.19-.19H3.39v-.9c0-.43.1-.65.67-.65h.82a.19.19 0 0 0 .19-.19V.19A.2.2 0 0 0 4.88 0z"/></g></g></g></symbol><symbol id="icon-fee" viewBox="0 0 12.56 12.51"><title>fee</title><g data-name="Layer 2"><g data-name="&#x421;&#x43B;&#x43E;&#x439; 1"><path class="cls-1" d="M9.52 3.79a1.9 1.9 0 0 0 1.87-1.92A1.87 1.87 0 0 0 9.29 0a1.85 1.85 0 0 0-1.71 1.93 1.91 1.91 0 0 0 1.94 1.86z"/><path class="cls-1" d="M12.55 5.71c0-.51-.35-.77-.94-.77H5.54a.74.74 0 0 1-.76-.37.77.77 0 0 1 .07-.87c.34-.52.67-1.05 1-1.59A1.78 1.78 0 0 0 5.52 0l-.23.28C4.05 1.63 2.84 3 1.57 4.32A5.19 5.19 0 0 0 0 7.92a6.44 6.44 0 0 0 6.12 4.59 1.12 1.12 0 0 0 .21-.18A6.48 6.48 0 0 0 8 8.26v-1.1c1.27-.15 2.51-.29 3.74-.45a.82.82 0 0 0 .81-1z"/></g></g></symbol><symbol id="icon-flag" viewBox="0 0 9.5 11.12"><title>flag</title><g data-name="Layer 2"><path class="cls-1" d="M0 0a4.5 4.5 0 0 0 .15.51l3.66 10c.23.64.38.7 1 .47s.73-.37.5-1c-.46-1.28-.92-2.57-1.4-3.84a.59.59 0 0 1 .18-.74C5.77 3.77 7.4 2.13 9 .5c.14-.14.27-.3.46-.5z" data-name="&#x421;&#x43B;&#x43E;&#x439; 1"/></g></symbol><symbol id="icon-founds" viewBox="0 0 14.38 9.28"><title>founds</title><g data-name="Layer 2"><g data-name="&#x421;&#x43B;&#x43E;&#x439; 1"><path class="cls-1" d="M5.66 9.28c-.32 0-.72 0-.88-.14a3.07 3.07 0 0 1-1-1.77l1.65.37c.1.57.16.87.23 1.54zM11 9.28c-.3 0-.65.05-.8-.09a2.42 2.42 0 0 1-1-1.46l1.48-.16c.07.66.17 1.01.32 1.71zM1.41 1.66a.8.8 0 0 1-.4.93.79.79 0 0 1-1 0z"/><path class="cls-1" d="M.84 5.13A8 8 0 0 0 1.93 9a.69.69 0 0 0 .25.28h.9V7.8a1.7 1.7 0 0 1 .2-.6c.26-.53.34-.52.9-.38.73.19 1.48.31 2.23.43a.38.38 0 0 1 .34.29c.16.47.37.93.57 1.39a.68.68 0 0 0 .29.35h.74c.07-.61.12-1.18.19-1.75 0-.21.15-.29.38-.33 1.19-.17 2.36-.37 3.54-.57.15 0 1.91-.48 1.91-2-.33-.1-.68-.19-1-.32a8.18 8.18 0 0 0-.59-1.22 1.76 1.76 0 0 0 .77-1.87l-1.58.69h-.09A4.35 4.35 0 0 0 10.14.75 7.87 7.87 0 0 0 8 .11 7.27 7.27 0 0 0 3.36.8 4.51 4.51 0 0 0 .84 5.13zM5.46.68a7.32 7.32 0 0 1 1-.07 6 6 0 0 1 3.8 1.25l-.45.47a5.57 5.57 0 0 0-3.48-1.08 4.84 4.84 0 0 0-.86.06z"/></g></g></symbol><symbol id="icon-globe" viewBox="0 0 15.45 15.45"><title>globe</title><g data-name="Layer 2"><path class="cls-1" d="M0 7.71a7.72 7.72 0 1 1 7.68 7.73A7.74 7.74 0 0 1 0 7.71zm8.35 1.94l1-.07a10.87 10.87 0 0 0 3.69-.86 4.18 4.18 0 0 0 1-.64.42.42 0 0 0 0-.72 4.06 4.06 0 0 0-.91-.62 10.05 10.05 0 0 0-3.24-.83c-.5-.06-1-.09-1.54-.13zM7.1 5.79A12.17 12.17 0 0 0 2 6.91a2.6 2.6 0 0 0-.51.38c-.33.31-.34.58 0 .86a4.68 4.68 0 0 0 1 .63 10.52 10.52 0 0 0 3.08.75l1.52.13zm6.79 3.9a9.25 9.25 0 0 1-2.7.86c-.93.15-1.88.24-2.83.36v3.26a6.36 6.36 0 0 0 5.53-4.48zM8.35 4.52c1 .13 1.9.22 2.84.37a9.76 9.76 0 0 1 2.73.87 6.39 6.39 0 0 0-5.57-4.48zm-1.26.06V1.27c-2.26 0-5.25 2.42-5.52 4.47a14.15 14.15 0 0 1 5.52-1.16zm0 6.33c-1-.12-1.9-.21-2.83-.36a9.44 9.44 0 0 1-2.73-.87 6.4 6.4 0 0 0 5.57 4.48z" data-name="&#x421;&#x43B;&#x43E;&#x439; 1"/></g></symbol><symbol id="icon-lamp" viewBox="0 0 7.53 11.45"><title>lamp</title><g data-name="Layer 2"><g data-name="&#x421;&#x43B;&#x43E;&#x439; 1"><path class="cls-1" d="M2.89.11a3.7 3.7 0 0 0-2.63 5c.37.95.87 1.86 1.3 2.79a.33.33 0 0 0 .34.22h3.72A.35.35 0 0 0 6 7.89c.32-.68.65-1.34 1-2a4.9 4.9 0 0 0 .58-2.19A3.73 3.73 0 0 0 2.89.11zM4.65 7H3a.24.24 0 0 1-.17-.17V5.6a.84.84 0 0 1 .87-.78.84.84 0 0 1 .88.74c.1.44.07.94.07 1.44zM5 8.92H2.24v1.11a1.5 1.5 0 0 0 1.6 1.41 1.47 1.47 0 0 0 1.45-1.52v-.74c0-.25-.07-.27-.29-.26z"/></g></g></symbol><symbol id="icon-lock" viewBox="0 0 6.73 8.42"><title>lock</title><g data-name="Layer 2"><path class="cls-1" d="M0 3.37h.84v-.86a2.53 2.53 0 1 1 5.05 0v.83h.84v3.4a1.67 1.67 0 0 1-1.65 1.68H1.66A1.67 1.67 0 0 1 0 6.77zm1.71 0H5a10.27 10.27 0 0 0 0-1.12A1.66 1.66 0 0 0 3.39.84a1.64 1.64 0 0 0-1.67 1.4 8.34 8.34 0 0 0-.01 1.12z" data-name="&#x421;&#x43B;&#x43E;&#x439; 1"/></g></symbol><symbol id="icon-payer" viewBox="0 0 11.07 8.3"><title>payer</title><g data-name="Layer 2"><g data-name="&#x421;&#x43B;&#x43E;&#x439; 1"><path class="cls-1" d="M11.06 8.3a.49.49 0 0 0 0-.11 3.08 3.08 0 0 0-2.67-2.94H6.56a5.86 5.86 0 0 1-1.19-.11A4.64 4.64 0 0 1 1.8 1.48.51.51 0 0 0 1.26 1H.57a.5.5 0 0 0-.57.7 6.37 6.37 0 0 0 2.6 4.07.37.37 0 0 1 .17.34V8.29h5.44v-.36a.41.41 0 0 1 .42-.4A.4.4 0 0 1 9 8v.3zM8.47 2.09a2.07 2.07 0 1 0-2.09 2.05 2.06 2.06 0 0 0 2.09-2.05z"/><path class="cls-1" d="M11.06 8.3H9V8a.4.4 0 0 0-.39-.42.41.41 0 0 0-.42.4v.36H2.77v-.5-1.68a.37.37 0 0 0-.17-.34A6.37 6.37 0 0 1 0 1.7.5.5 0 0 1 .57 1h.69a.51.51 0 0 1 .54.44 4.64 4.64 0 0 0 3.57 3.65 5.86 5.86 0 0 0 1.19.11h1.83a3.08 3.08 0 0 1 2.68 2.94.49.49 0 0 1-.01.16z"/><path class="cls-1" d="M8.47 2.09A2.07 2.07 0 1 1 6.41 0a2.07 2.07 0 0 1 2.06 2.09z"/></g></g></symbol><symbol id="icon-pencil" viewBox="0 0 10.24 10.15"><title>pencil</title><g data-name="Layer 2"><g data-name="&#x421;&#x43B;&#x43E;&#x439; 1"><path class="cls-1" d="M9.67 2.34a.78.78 0 0 0 0-1.18C9.47.94 9.25.73 9 .52c-.7-.7-1-.69-1.72 0C5.89 2 4.52 3.45 3 4.8A10.58 10.58 0 0 0 .12 9.34a3.78 3.78 0 0 0-.12.57.89.89 0 0 0 .32 0A11.23 11.23 0 0 0 3.8 8.19C5.79 6.27 7.73 4.3 9.67 2.34zM10.24 8.23c0-.62 0-.62-1.24-.79-.23-.44.33-1.21-.69-1.24s-.61.8-.77 1.23c-.43.22-1.15-.27-1.26.62-.13 1.12.76.72 1.26.84.11 1.23.11 1.25.54 1.25.24 0 .64 0 .69-.09A4.83 4.83 0 0 0 9 8.91c.41-.24 1.27.37 1.24-.68z"/></g></g></symbol><symbol id="icon-phones" viewBox="0 0 9.19 10.52"><title>phones</title><g data-name="Layer 2"><g data-name="&#x421;&#x43B;&#x43E;&#x439; 1"><path class="cls-1" d="M1 5.22a3.65 3.65 0 0 1 1.43-3.64 3.71 3.71 0 0 1 4.51.14 3.63 3.63 0 0 1 1.28 3.54c-.18 0-.37 0-.55-.06a.23.23 0 0 0-.25.12 2.71 2.71 0 0 0-.51 2.38c0 .2.12.33.36.36s.51.13.77.19l.56.14c.16-.91.3-1.79.47-2.66a5.21 5.21 0 0 0 0-2.08A4.6 4.6 0 0 0 0 5.1c.11.64.24 1.27.35 1.9.07.45.16.89.24 1.37L2.11 8c.05 0 .09-.08.1-.14a2.67 2.67 0 0 0-.47-2.56.29.29 0 0 0-.2-.09c-.2-.03-.39 0-.54.01zM2.82 9h-.74a.5.5 0 0 0-.56.49.5.5 0 0 0 .55.49h1.29a.66.66 0 0 1 .57.22 1 1 0 0 0 1.34 0 1 1 0 0 0 .05-1.37A.93.93 0 0 0 4 8.79a.78.78 0 0 1-.7.25z"/><path class="cls-1" d="M1 5.22h.59a.29.29 0 0 1 .2.09 2.67 2.67 0 0 1 .47 2.56c0 .06 0 .13-.1.14l-1.52.4C.51 7.89.42 7.45.35 7 .24 6.37.11 5.74 0 5.1a4.6 4.6 0 0 1 9.1-1.45 5.21 5.21 0 0 1 0 2.08c-.17.87-.31 1.75-.47 2.66L8 8.25c-.26-.06-.51-.15-.77-.19S7 7.9 6.91 7.7a2.71 2.71 0 0 1 .51-2.38.23.23 0 0 1 .25-.12c.18 0 .37 0 .55.06a3.63 3.63 0 0 0-1.28-3.54 3.71 3.71 0 0 0-4.51-.14A3.65 3.65 0 0 0 1 5.22zM2.82 9h.45A.78.78 0 0 0 4 8.79a.93.93 0 0 1 1.35.08 1 1 0 0 1-.05 1.37 1 1 0 0 1-1.34 0 .66.66 0 0 0-.6-.24H2.07a.5.5 0 0 1-.55-.49.5.5 0 0 1 .56-.51z"/></g></g></symbol><symbol id="icon-pie" viewBox="0 0 9.93 9.94"><title>pie</title><g data-name="Layer 2"><g data-name="&#x421;&#x43B;&#x43E;&#x439; 1"><path class="cls-1" d="M4.41 1.12A4.42 4.42 0 1 0 5 9.92c2.12-.23 4.13-2.47 3.82-4.4H4.86c-.41 0-.41 0-.41-.42v-4zm5.52 3.24A4.3 4.3 0 0 0 5.55 0v4.36z"/><path class="cls-1" d="M4.41 1.12v4c0 .42 0 .42.41.42h3.96C9.09 7.45 7.08 9.69 5 9.92a4.42 4.42 0 1 1-.55-8.8z"/><path class="cls-1" d="M9.93 4.36H5.55V0a4.3 4.3 0 0 1 4.38 4.36z"/></g></g></symbol><symbol id="icon-pin" viewBox="0 0 9.58 9.83"><title>pin</title><g data-name="Layer 2"><path class="cls-1" d="M2.94 9.83A2.86 2.86 0 0 1 .26 8.06a2.87 2.87 0 0 1 .65-3.29l2.93-2.93C4.26 1.42 4.67 1 5.1.58A1.81 1.81 0 0 1 7.66.49a1.79 1.79 0 0 1 0 2.6c-1.3 1.29-2.59 2.55-3.85 3.84-.33.33-.57.29-.9 0S2.65 6.34 3 6c1.16-1.14 2.33-2.32 3.51-3.5l.21-.22c.27-.28.41-.59.09-.89s-.61-.19-.89.09l-.61.61C4.17 3.24 3 4.38 1.88 5.52a1.73 1.73 0 0 0-.12 2.62A1.77 1.77 0 0 0 4.34 8C5.7 6.62 7.07 5.26 8.42 3.89c.31-.31.57-.43.93-.06s.26.62-.06.94C7.87 6.17 6.47 7.58 5.06 9a2.89 2.89 0 0 1-2.12.83z" data-name="&#x421;&#x43B;&#x43E;&#x439; 1"/></g></symbol><symbol id="icon-search" viewBox="0 0 32 32"><title>search</title><path d="M31.008 27.231l-7.58-6.447c-.784-.705-1.622-1.029-2.299-.998a11.954 11.954 0 0 0 2.87-7.787c0-6.627-5.373-12-12-12s-12 5.373-12 12 5.373 12 12 12c2.972 0 5.691-1.081 7.787-2.87-.031.677.293 1.515.998 2.299l6.447 7.58c1.104 1.226 2.907 1.33 4.007.23s.997-2.903-.23-4.007zM12 20a8 8 0 1 1 0-16 8 8 0 0 1 0 16z"/></symbol><symbol id="icon-sheet" viewBox="0 0 10.87 14.44"><title>sheet</title><g data-name="Layer 2"><path class="cls-1" d="M10.87 7.25v6.52c0 .5-.17.67-.67.67H.69c-.51 0-.69-.18-.69-.7V4.47a.89.89 0 0 1 .28-.67L3.81.27A.85.85 0 0 1 4.45 0h5.82c.41 0 .6.2.6.62zM5.09 1.08v3.33c0 .48-.19.67-.68.67H1.08v8.28h8.73V1.08zM4 1.66L1.65 4H4z" data-name="&#x421;&#x43B;&#x43E;&#x439; 1"/></g></symbol><symbol id="icon-split" viewBox="0 0 12.13 12.14"><title>split</title><g data-name="Layer 2"><g data-name="&#x421;&#x43B;&#x43E;&#x439; 1"><path class="cls-1" d="M4.85 2.92h2.23v5a.3.3 0 0 0 .07.21l3.93 3.94.08.07 1-1-.16-.07-3.45-3.46a.31.31 0 0 1-.09-.19V3a.2.2 0 0 1 0-.07h2.22L7.77 0zM0 7.77a.61.61 0 0 0 .07.1l2.77 2.76V8.48H5.7V7.11H2.91V5v-.17z"/></g></g></symbol><symbol id="icon-wallet" viewBox="0 0 7.41 13.26"><title>wallet</title><g data-name="Layer 2"><path class="cls-1" d="M6.74 0a1 1 0 0 1 .67 1.14v3.21a.9.9 0 0 1-.49.89c-.51.29-1 .6-1.5.87a.45.45 0 0 1-.39 0c-.87-.5-1.74-1-2.67-1.57L3.4 4l2.93-1.7a.75.75 0 0 0 .46-.68.68.68 0 0 0-.17-.47c-.08-.06-.32 0-.45.06l-3.29 2c-.54.32-1.08.63-1.61 1s-.45.48 0 .75C3 5.92 4.7 7 6.43 8a1.8 1.8 0 0 1 1 1.71v2.79a.67.67 0 0 1-1.1.62C4.33 12 2.38 10.77.41 9.59A.78.78 0 0 1 0 8.88V4.22a.82.82 0 0 1 .53-.72L6.38 0z" data-name="&#x421;&#x43B;&#x43E;&#x439; 1"/></g></symbol><symbol id="icon-youtube" viewBox="0 0 8.84 6.22"><title>youtube</title><g data-name="Layer 2"><g data-name="&#x421;&#x43B;&#x43E;&#x439; 1"><g data-name="&lt;Group&gt;"><path data-name="&lt;Compound Path&gt;" class="cls-1" d="M8.49.53C8.17.15 7.58 0 6.46 0H2.38C1.23 0 .63.16.31.57A2.87 2.87 0 0 0 0 2.34v1.53c0 1.56.37 2.35 2.38 2.35h4.08a2.57 2.57 0 0 0 1.86-.47 2.49 2.49 0 0 0 .52-1.88V2.34A2.83 2.83 0 0 0 8.49.53zM5.67 3.32l-1.85 1a.31.31 0 0 1-.13 0 .26.26 0 0 1-.15 0A.27.27 0 0 1 3.4 4V2.11a.29.29 0 0 1 .14-.25.31.31 0 0 1 .28 0l1.85 1a.29.29 0 0 1 .16.26.28.28 0 0 1-.16.25z"/></g></g></g></symbol></svg>