<svg xmlns="http://www.w3.org/2000/svg" viewBox="0 0 15.95 14.56">
    <title>api</title>
    <g id="Layer_2" data-name="Layer 2">
        <g id="Слой_1" data-name="Слой 1">
            <path class="cls-1"
                  d="M4.51,9.71a.35.35,0,0,0,.34-.35V5.89a1,1,0,0,0-1-1H2.43a1,1,0,0,0-1,1V9.36a.35.35,0,1,0,.69,0v-1H4.16v1A.35.35,0,0,0,4.51,9.71ZM2.08,7.63V5.89a.35.35,0,0,1,.35-.34H3.81a.35.35,0,0,1,.35.34V7.63Z"/>
            <path class="cls-1"
                  d="M7.28,9.36v-1h1a1.74,1.74,0,0,0,0-3.47H6.93a.35.35,0,0,0-.34.35V9.36a.35.35,0,1,0,.69,0Zm0-3.81h1a1,1,0,0,1,0,2.08h-1Z"/>
            <path class="cls-1"
                  d="M11.44,9a.35.35,0,1,0,0,.7h2.77a.35.35,0,1,0,0-.7h-1V5.55h1a.35.35,0,1,0,0-.7H11.44a.35.35,0,0,0,0,.7h1V9Z"/>
            <path class="cls-1"
                  d="M14.91,1.39H9.5L8.22.1a.36.36,0,0,0-.49,0L6.44,1.39H1a1,1,0,0,0-1,1v1a.34.34,0,0,0,.35.34.34.34,0,0,0,.34-.34v-1A.35.35,0,0,1,1,2.08H6.59A.35.35,0,0,0,6.83,2L8,.84,9.11,2a.39.39,0,0,0,.25.1h5.55a.35.35,0,0,1,.34.35v1a.35.35,0,0,0,.7,0v-1A1,1,0,0,0,14.91,1.39Z"/>
            <path class="cls-1"
                  d="M15.6,10.75a.35.35,0,0,0-.35.34v1a.35.35,0,0,1-.34.35H9.36a.39.39,0,0,0-.25.1L8,13.72,6.83,12.58a.35.35,0,0,0-.24-.1H1a.35.35,0,0,1-.35-.35v-1a.34.34,0,0,0-.34-.34.34.34,0,0,0-.35.34v1a1,1,0,0,0,1,1h5.4l1.29,1.29a.33.33,0,0,0,.24.1.35.35,0,0,0,.25-.1L9.5,13.17h5.41a1,1,0,0,0,1-1v-1A.35.35,0,0,0,15.6,10.75Z"/>
        </g>
    </g>
</svg>