<svg xmlns="http://www.w3.org/2000/svg" viewBox="0 0 15.88 15.86">
    <title>arrows</title>
    <g id="Layer_2" data-name="Layer 2">
        <g id="Слой_1" data-name="Слой 1">
            <path class="cls-1"
                  d="M9.58,5.92H7.87a.36.36,0,0,0,0,.72H9.58a2.81,2.81,0,0,1,0,5.62H1L3,10a.36.36,0,0,0,0-.51.36.36,0,0,0-.51,0L.21,12.07a.83.83,0,0,0,0,1.1L2.5,15.74A.36.36,0,0,0,3,15.26L1,13H9.58a3.53,3.53,0,0,0,0-7.06Z"/>
            <path class="cls-1"
                  d="M15.67,2.69,13.38.12a.36.36,0,0,0-.51,0,.37.37,0,0,0,0,.51l2,2.28H6.31a3.53,3.53,0,0,0,0,7.06H8a.36.36,0,1,0,0-.72H6.31a2.81,2.81,0,1,1,0-5.62h8.57l-2,2.28a.37.37,0,0,0,0,.51.38.38,0,0,0,.24.09.36.36,0,0,0,.27-.12l2.29-2.57A.83.83,0,0,0,15.67,2.69Z"/>
        </g>
    </g>
</svg>