<svg xmlns="http://www.w3.org/2000/svg" viewBox="0 0 13.2 13.41">
    <title>bag</title>
    <g id="Layer_2" data-name="Layer 2">
        <g id="Слой_1" data-name="Слой 1">
            <path class="cls-1" d="M6.6,4.93h0l3-3.37H7.74V0H5.46V1.56H3.58l3,3.37Z"/>
            <path class="cls-1"
                  d="M0,5.7C0,5.89,0,6,0,6.19.28,8.11.53,10,.75,12a1.51,1.51,0,0,0,1.61,1.46c2.87,0,5.75,0,8.63,0a1.33,1.33,0,0,0,1.39-1.15c.07-.44.12-.89.18-1.33.16-1.27.32-2.53.47-3.79.06-.47.11-.94.17-1.43ZM8.48,9.76a2.45,2.45,0,0,1-2.67.77A2.42,2.42,0,0,1,4.17,8.29c0-.34,0-.69,0-1h.74c0,.35,0,.68,0,1A1.68,1.68,0,0,0,6.62,9.9,1.71,1.71,0,0,0,8.28,8.24v-1H9A3.43,3.43,0,0,1,8.48,9.76Z"/>
        </g>
    </g>
</svg>