<svg xmlns="http://www.w3.org/2000/svg" viewBox="0 0 15.61 15.06">
    <title>bell</title>
    <g id="Layer_2" data-name="Layer 2">
        <g id="Слой_1" data-name="Слой 1">
            <path class="cls-1"
                  d="M12.65,12.84H10.83c-.19,0-.28.05-.33.24a2.81,2.81,0,0,1-5.36,0c-.07-.23-.17-.28-.39-.28H1.27A1.14,1.14,0,0,1,0,11.89a1.21,1.21,0,0,1,.79-1.45A2.75,2.75,0,0,0,2.59,7.82c0-.86,0-1.71,0-2.56A5.21,5.21,0,0,1,12.9,4.19,9.39,9.39,0,0,1,13,5.78c0,.8,0,1.6,0,2.39a2.61,2.61,0,0,0,1.7,2.25,1.17,1.17,0,0,1,.84,1.3,1.11,1.11,0,0,1-1.1,1.11c-.62,0-1.24,0-1.86,0Zm1.75-1.21,0-.05-.19-.1a3.86,3.86,0,0,1-2.37-3.66c0-.84,0-1.68,0-2.52a4.06,4.06,0,0,0-1.74-3.36A3.76,3.76,0,0,0,6,1.63,3.91,3.91,0,0,0,3.77,5.19c0,.89,0,1.79,0,2.69a3.82,3.82,0,0,1-2.34,3.59l-.21.11,0,.05ZM6.33,12.86a1.61,1.61,0,0,0,1.51,1,1.58,1.58,0,0,0,1.45-1Z"/>
        </g>
    </g>
</svg>