<svg xmlns="http://www.w3.org/2000/svg" viewBox="0 0 8.8 7.55">
    <title>building</title>
    <g id="Layer_2" data-name="Layer 2">
        <g id="Слой_1" data-name="Слой 1">
            <g id="hL7OKX.tif">
                <path class="cls-1"
                      d="M0,7.55v-1H.93V2.72h1.4V6.56H3.67V2.72H5.1V6.56H6.44V2.72H7.87V6.57h.77c.12,0,.16,0,.16.16s0,.45,0,.67,0,.15-.15.15H0Z"/>
                <path class="cls-1"
                      d="M0,2.17v-.8L1.73.81,4.21,0a.33.33,0,0,1,.22,0L8.66,1.33c.11,0,.15.08.14.19a4.17,4.17,0,0,0,0,.5c0,.12,0,.15-.15.15H0ZM4.39.55a.58.58,0,0,0-.58.59A.59.59,0,1,0,5,1.14.6.6,0,0,0,4.39.55Z"/>
            </g>
        </g>
    </g>
</svg>