<svg xmlns="http://www.w3.org/2000/svg" viewBox="0 0 10.57 10.73">
    <title>calculator</title>
    <g id="Layer_2" data-name="Layer 2">
        <g id="Слой_1" data-name="Слой 1">
            <path class="cls-1"
                  d="M0,0C0,.1,0,.16,0,.23c0,3,0,6,0,9a1.48,1.48,0,0,0,1.53,1.51H5.81A1.51,1.51,0,0,0,7.48,9q0-4.33,0-8.66V0ZM1.86,9a.58.58,0,1,1-.05-1.15.58.58,0,0,1,.59.55A.6.6,0,0,1,1.86,9ZM1.8,7.08a.6.6,0,0,1-.56-.58.62.62,0,0,1,.61-.58.63.63,0,0,1,.56.59A.61.61,0,0,1,1.8,7.08ZM1.24,4.56A.62.62,0,0,1,1.83,4a.62.62,0,0,1,.57.59.63.63,0,0,1-.61.58A.64.64,0,0,1,1.24,4.56ZM3.74,9a.6.6,0,0,1-.57-.57.58.58,0,1,1,1.15,0A.6.6,0,0,1,3.74,9Zm0-3.84a.61.61,0,0,1-.58-.56A.6.6,0,0,1,3.74,4a.6.6,0,0,1,.58.56A.61.61,0,0,1,3.75,5.17Zm.57,1.36a.58.58,0,0,1-.6.55.57.57,0,0,1-.55-.59.61.61,0,0,1,.62-.57A.6.6,0,0,1,4.32,6.53Zm1.34.55a.55.55,0,0,1-.56-.56.57.57,0,0,1,.57-.59.58.58,0,1,1,0,1.15Zm0-1.91a.6.6,0,0,1-.56-.6A.61.61,0,0,1,5.67,4a.64.64,0,0,1,.58.62A.63.63,0,0,1,5.65,5.17Zm.66-2.8a.62.62,0,0,1-.48.28c-1.41,0-2.81,0-4.22,0a.66.66,0,0,1-.47-.34A8,8,0,0,1,.86,1.14H6.63A10.5,10.5,0,0,1,6.31,2.37Z"/>
            <path class="cls-1"
                  d="M10.56,2.71a2.06,2.06,0,0,0,0-.26H8.84V3.1c0,1.76.05,3.52.12,5.28a6.08,6.08,0,0,0,.35,1.49c0,.16.25.28.39.42.13-.14.28-.26.4-.41a1,1,0,0,0,.13-.38,18.87,18.87,0,0,0,.32-2.24C10.6,5.74,10.57,4.23,10.56,2.71Z"/>
            <path class="cls-1" d="M10.32,1.78a8.61,8.61,0,0,0,0-1A.61.61,0,0,0,9.1.77c0,.33,0,.66,0,1Z"/>
        </g>
    </g>
</svg>