<svg xmlns="http://www.w3.org/2000/svg" viewBox="0 0 17.37 13.35">
    <title>cards</title>
    <g id="Layer_2" data-name="Layer 2">
        <g id="Слой_1" data-name="Слой 1">
            <path class="cls-1"
                  d="M15.92,4H14.15V1.45A1.45,1.45,0,0,0,12.7,0H1.45A1.45,1.45,0,0,0,0,1.45V8A1.45,1.45,0,0,0,1.45,9.41H3.22V11.9a1.45,1.45,0,0,0,1.45,1.45H15.92a1.45,1.45,0,0,0,1.45-1.45V5.4A1.45,1.45,0,0,0,15.92,4ZM.83,1.45A.62.62,0,0,1,1.45.83H12.7a.62.62,0,0,1,.62.62V2H.83Zm2.39,4V8.58H1.45A.62.62,0,0,1,.83,8V4.78H3.36A1.38,1.38,0,0,0,3.22,5.4ZM.83,4V2.86H13.32V4H.83Zm15.09,8.57H4.67a.62.62,0,0,1-.62-.62V5.4a.61.61,0,0,1,.57-.62h11.3a.63.63,0,0,1,.62.63v6.5h0A.62.62,0,0,1,15.92,12.52Z"/>
            <path class="cls-1"
                  d="M11.54,6.65a2,2,0,0,0-1.24.44,2,2,0,1,0,0,3.12,2,2,0,1,0,1.24-3.56ZM9.77,9.57a1.17,1.17,0,1,1,0-1.84,2,2,0,0,0,0,1.84Zm1.77.25a1.17,1.17,0,1,1,0-2.34,1.17,1.17,0,1,1,0,2.34Z"/>
        </g>
    </g>
</svg>