<svg xmlns="http://www.w3.org/2000/svg" viewBox="0 0 21.12 14.45">
    <title>card-2</title>
    <g id="Layer_2" data-name="Layer 2">
        <g id="Слой_1" data-name="Слой 1">
            <path class="cls-1"
                  d="M6.54,13.34a.56.56,0,0,0,0,1.11h13a1.56,1.56,0,0,0,1.55-1.56V1.55A1.55,1.55,0,0,0,19.57,0h-18A1.56,1.56,0,0,0,0,1.55V6.71a.56.56,0,0,0,.56.56.56.56,0,0,0,.55-.56V4.45H20v8.44a.45.45,0,0,1-.44.45Zm13-12.23a.45.45,0,0,1,.45.44V3.34H1.11V1.55a.44.44,0,0,1,.44-.44Z"/>
            <path class="cls-1" d="M10,8.57a.55.55,0,0,0,.55.55h6.67a.56.56,0,1,0,0-1.11H10.56a.56.56,0,0,0-.55.56Z"/>
            <path class="cls-1" d="M14.57,10a.56.56,0,1,0,0,1.11h2.66a.56.56,0,1,0,0-1.11Z"/>
            <path class="cls-1" d="M17.3,7.11a.55.55,0,0,0,.55-.55A.56.56,0,0,0,17.3,6H10.63a.56.56,0,1,0,0,1.11Z"/>
        </g>
    </g>
</svg>