<svg xmlns="http://www.w3.org/2000/svg" viewBox="0 0 20.51 15.35">
    <title>card</title>
    <g id="Layer_2" data-name="Layer 2">
        <g id="Слой_1" data-name="Слой 1">
            <path class="cls-1"
                  d="M20.51,2.65A2.51,2.51,0,0,0,17.86,0H2.64A2.5,2.5,0,0,0,0,2.65v10a2.5,2.5,0,0,0,2.66,2.66H17.87a2.51,2.51,0,0,0,2.64-2.63ZM19.35,12.8a1.35,1.35,0,0,1-1.41,1.4q-7.68,0-15.37,0a1.35,1.35,0,0,1-1.42-1.42q0-5.1,0-10.2A1.37,1.37,0,0,1,2.59,1.15H17.91a1.35,1.35,0,0,1,1.44,1.42Q19.36,7.69,19.35,12.8Z"/>
            <path class="cls-1" d="M7.38,3.16a1.94,1.94,0,1,0,1.9,2A1.93,1.93,0,0,0,7.38,3.16Z"/>
            <path class="cls-1" d="M17.33,3.24H12.2V4.35h5.13Z"/>
            <path class="cls-1" d="M12.22,7h5.12V5.84H12.22Z"/>
        </g>
    </g>
</svg>