<svg xmlns="http://www.w3.org/2000/svg" viewBox="0 0 17.37 15.28">
    <title>checked</title>
    <g id="Layer_2" data-name="Layer 2">
        <g id="Слой_1" data-name="Слой 1">
            <path class="cls-1"
                  d="M14.76,6.66a.47.47,0,0,0-.43.5c0,.16,0,.32,0,.48A6.71,6.71,0,1,1,7.64.93a6.61,6.61,0,0,1,4,1.34.47.47,0,0,0,.65-.09.45.45,0,0,0-.09-.65A7.56,7.56,0,0,0,7.64,0a7.64,7.64,0,1,0,7.64,7.64c0-.18,0-.37,0-.55A.46.46,0,0,0,14.76,6.66Z"/>
            <path class="cls-1"
                  d="M16.84,1.05a1.8,1.8,0,0,0-2.56,0L7.59,7.74,5.22,5.37a1.8,1.8,0,0,0-2.56,0,1.82,1.82,0,0,0,0,2.56L6.75,12a1.2,1.2,0,0,0,1.69,0l8.4-8.4A1.8,1.8,0,0,0,16.84,1.05ZM16.19,3l-8.4,8.4a.27.27,0,0,1-.39,0L3.32,7.27A.88.88,0,0,1,3.32,6a.89.89,0,0,1,.62-.26A.91.91,0,0,1,4.57,6L7,8.46a.78.78,0,0,0,.58.24.81.81,0,0,0,.59-.24l6.76-6.75A.88.88,0,1,1,16.19,3Z"/>
        </g>
    </g>
</svg>