<svg xmlns="http://www.w3.org/2000/svg" viewBox="0 0 16.57 10.42">
    <title>contractor</title>
    <g id="Layer_2" data-name="Layer 2">
        <g id="Слой_1" data-name="Слой 1">
            <g id="_15TDxb" data-name="15TDxb">
                <path class="cls-1"
                      d="M7.89,8.28h1c0-.38,0-.75.07-1.12a5.31,5.31,0,0,1,.42-1.84,2.1,2.1,0,0,1,2-1.33,4.06,4.06,0,0,1,1,.08,2.15,2.15,0,0,1,1.58,1.59A8.16,8.16,0,0,1,14.27,8V8.3h2.3v.77H7.88l-.07,1.35H2.36L2.28,9.08H0V8.3H2.25c0-.41,0-.8.07-1.19a4.8,4.8,0,0,1,.54-2A2.18,2.18,0,0,1,4.72,4a3.38,3.38,0,0,1,1.38.12A2.32,2.32,0,0,1,7.61,5.84a6.78,6.78,0,0,1,.25,2C7.86,8,7.88,8.11,7.89,8.28Zm5.61,0c0-.34,0-.65-.05-1A4.85,4.85,0,0,0,13,5.52a1.2,1.2,0,0,0-.74-.66,3.17,3.17,0,0,0-1-.09,1.35,1.35,0,0,0-1.24.83A4.85,4.85,0,0,0,9.7,7.18c0,.36,0,.73-.07,1.1Z"/>
                <path class="cls-1"
                      d="M5.08,3.13A1.54,1.54,0,0,1,3.52,1.58,1.55,1.55,0,0,1,5.05,0a1.57,1.57,0,1,1,0,3.13Z"/>
                <path class="cls-1"
                      d="M11.49,3.13a1.56,1.56,0,1,1,1.64-1.5A1.57,1.57,0,0,1,11.49,3.13Zm-.7-1.57a.78.78,0,0,0,1.55,0A.75.75,0,0,0,11.58.8.75.75,0,0,0,10.79,1.56Z"/>
            </g>
        </g>
    </g>
</svg>