<svg xmlns="http://www.w3.org/2000/svg" viewBox="0 0 12.1 14.66">
    <title>crowdfounding</title>
    <g id="Layer_2" data-name="Layer 2">
        <g id="Слой_1" data-name="Слой 1">
            <path class="cls-1"
                  d="M7.32,1.19A1.21,1.21,0,0,1,6.13,2.41,1.22,1.22,0,0,1,4.89,1.23a1.22,1.22,0,1,1,2.43,0Z"/>
            <path class="cls-1"
                  d="M2.43,5.14A1.22,1.22,0,0,1,0,5.18,1.18,1.18,0,0,1,1.09,4,1.19,1.19,0,0,1,2.43,5.14Z"/>
            <path class="cls-1" d="M12.1,5.14a1.22,1.22,0,0,1-2.43,0,1.22,1.22,0,1,1,2.43,0Z"/>
            <path class="cls-1"
                  d="M8.42,5.89A2.3,2.3,0,0,1,6.16,8.21,2.33,2.33,0,0,1,3.82,6,2.25,2.25,0,0,1,5.9,3.63,2.24,2.24,0,0,1,8.42,5.89Z"/>
            <path class="cls-1"
                  d="M6.19,14.66a6.47,6.47,0,0,0,5.06-2.44A5.46,5.46,0,0,0,7.14,8.93a5.58,5.58,0,0,0-6,3.26A6.49,6.49,0,0,0,6.19,14.66Z"/>
        </g>
    </g>
</svg>