<svg xmlns="http://www.w3.org/2000/svg" viewBox="0 0 19.03 17.01">
    <title>currency</title>
    <g id="Layer_2" data-name="Layer 2">
        <g id="Слой_1" data-name="Слой 1">
            <path class="cls-1"
                  d="M10,9.9a2.84,2.84,0,0,0,2.85-2.8,2.77,2.77,0,0,0-2.77-2.84A2.85,2.85,0,0,0,7.18,7,2.87,2.87,0,0,0,10,9.9Zm0-4.64a1.74,1.74,0,0,1,1.8,1.84A1.81,1.81,0,0,1,10,8.91,1.87,1.87,0,0,1,8.18,7.07,1.79,1.79,0,0,1,10,5.26Z"/>
            <path class="cls-1"
                  d="M13.29,4.39a2.22,2.22,0,0,0,2.24-2.17,2.2,2.2,0,0,0-4.39-.07A2.17,2.17,0,0,0,13.29,4.39ZM13.35,1a1.18,1.18,0,0,1,1.18,1.18,1.2,1.2,0,1,1-2.4,0A1.2,1.2,0,0,1,13.35,1Z"/>
            <path class="cls-1"
                  d="M18.86,10.45a1.8,1.8,0,0,0-2.07-.65c-1.4.61-2.77,1.27-4.14,1.95l0,0,.51.81a2.29,2.29,0,0,0,.27-.14c1.13-.53,2.25-1.06,3.39-1.57a3.93,3.93,0,0,1,.84-.18l.06.2c-2.22,1.62-4.42,3.27-6.68,4.82A2.62,2.62,0,0,1,9.41,16c-1.25-.14-2.5-.37-3.75-.58-2-.35-2.09-.35-3.41.75l.64.79c.25-.23.5-.45.76-.66a.81.81,0,0,1,.53-.12c1.68.26,3.35.54,5,.82a3.26,3.26,0,0,0,2.53-.49c2.34-1.68,4.67-3.38,7-5.07A.59.59,0,0,0,18.86,10.45Z"/>
            <path class="cls-1"
                  d="M10,12.33a1.43,1.43,0,0,1-.7.34c-.79,0-1.58,0-2.37,0-.34,0-.73.06-.66.49a.81.81,0,0,0,.58.48,22.09,22.09,0,0,0,2.7,0A1.57,1.57,0,0,0,11,12.27c.1-.5,0-.82-.56-1-.91-.26-1.81-.53-2.7-.83a5.56,5.56,0,0,0-4.87.63L0,12.84l.57.78.14,0a16.76,16.76,0,0,0,2.37-1.43C5.43,10.39,7.7,11.43,10,12.33Z"/>
        </g>
    </g>
</svg>