<svg xmlns="http://www.w3.org/2000/svg" viewBox="0 0 7.02 10.52">
    <title>currency-2</title>
    <g id="Layer_2" data-name="Layer 2">
        <g id="Слой_1" data-name="Слой 1">
            <g id="osCjoZ.tif">
                <path class="cls-1"
                      d="M3,10.52a4.2,4.2,0,0,1-1.84-.94,3.34,3.34,0,0,1-1-1.81,4.27,4.27,0,0,0,6.82,0,3.4,3.4,0,0,1-2,2.47c-.26.11-.54.19-.82.28Z"/>
                <path class="cls-1"
                      d="M3.51,7A3.48,3.48,0,0,1,0,3.7a3.51,3.51,0,1,1,7-.36A3.48,3.48,0,0,1,3.51,7ZM4.9,2.3A1.29,1.29,0,0,0,4,1.05a1.36,1.36,0,0,0-1.8,1.29c0,.26-.1.5-.13.75s0,.39,0,.59c0,.44.08.88.07,1.32a3,3,0,0,1-.17.73H4.9V5H3V3.67H4.1V3H3c-.14-.75,0-1.19.38-1.31s.7.06.92.6Z"/>
                <path class="cls-1" d="M.08,6A4.27,4.27,0,0,0,6.91,6,3.52,3.52,0,0,1,4,8.77,3.52,3.52,0,0,1,.08,6Z"/>
            </g>
        </g>
    </g>
</svg>