<svg xmlns="http://www.w3.org/2000/svg" viewBox="0 0 11.28 14.1">
    <title>dislike</title>
    <g id="Layer_2" data-name="Layer 2">
        <g id="Слой_1" data-name="Слой 1">
            <path class="cls-1"
                  d="M7.67,9.52c.13.5.29,1,.4,1.5a3.25,3.25,0,0,1-.28,2.21A1.47,1.47,0,0,1,7,14a.91.91,0,0,1-1.3-.56,4,4,0,0,1-.22-.72,4.8,4.8,0,0,0-1-2.15c-.73-1-1.41-2-2.12-2.94a.82.82,0,0,1-.18-.79Q3,4.13,3.91,1.41A.72.72,0,0,1,4.6.87C5.53.84,6.47.79,7.41.82a3.53,3.53,0,0,1,2.08.71,1.91,1.91,0,0,1,.78,1.19c.32,1.5.64,3,1,4.51a1.23,1.23,0,0,1-.16.95,2.34,2.34,0,0,1-2,1.14H7.61C7.63,9.4,7.65,9.46,7.67,9.52Zm.06-1c.52,0,1,0,1.55,0a1.38,1.38,0,0,0,1.17-.81.4.4,0,0,0,0-.24c-.33-1.54-.66-3.08-1-4.62A1.17,1.17,0,0,0,9,2.12,3,3,0,0,0,7.25,1.6c-.71,0-1.43,0-2.14,0-.45,0-.45,0-.59.46C4,3.69,3.51,5.28,3,6.88a.34.34,0,0,0,.06.35c.81,1.13,1.61,2.28,2.44,3.4A3.54,3.54,0,0,1,6.1,12c.09.37.2.75.31,1.12s.14.24.34.13a.92.92,0,0,0,.41-.52A2.76,2.76,0,0,0,7.26,11Q7,10.13,6.75,9.29a.43.43,0,0,0-.2-.22c-.2-.12-.41-.21-.62-.31a1.66,1.66,0,0,1-.14-.13l0-.1Z"/>
            <path class="cls-1"
                  d="M2.89.42A.39.39,0,0,0,2.56,0a.38.38,0,0,0-.44.26C2,.63,1.89,1,1.78,1.34L0,6.78c-.09.29,0,.49.19.59a.4.4,0,0,0,.55-.29l.87-2.73c.4-1.25.8-2.5,1.19-3.75A1,1,0,0,0,2.89.42Z"/>
        </g>
    </g>
</svg>