<svg xmlns="http://www.w3.org/2000/svg" viewBox="0 0 11.28 7.67">
    <title>eye</title>
    <g id="Layer_2" data-name="Layer 2">
        <g id="Слой_1" data-name="Слой 1">
            <path class="cls-1"
                  d="M11.14,3.48A9.39,9.39,0,0,0,9,1.18,5.14,5.14,0,0,0,3.13.68,9,9,0,0,0,0,3.7V4A10.2,10.2,0,0,0,2.16,6.38,5.74,5.74,0,0,0,4.84,7.62,5.34,5.34,0,0,0,7.5,7.33a8.17,8.17,0,0,0,3.67-3.16A.53.53,0,0,0,11.14,3.48ZM5.59,5.64A1.79,1.79,0,1,1,7.43,3.85,1.81,1.81,0,0,1,5.59,5.64Z"/>
            <path class="cls-1" d="M5.67,2.88a1,1,0,0,0-1,1,1,1,0,1,0,2,0A1,1,0,0,0,5.67,2.88Z"/>
        </g>
    </g>
</svg>