<svg xmlns="http://www.w3.org/2000/svg" viewBox="0 0 5.07 9.37">
    <title>facebook</title>
    <g id="Layer_2" data-name="Layer 2">
        <g id="Слой_1" data-name="Слой 1">
            <g id="_Group_" data-name="&lt;Group&gt;">
                <g id="_Group_2" data-name="&lt;Group&gt;">
                    <path id="_Compound_Path_" data-name="&lt;Compound Path&gt;" class="cls-1"
                          d="M4.88,0H3.66A2.14,2.14,0,0,0,1.41,2.31V3.37H.19A.2.2,0,0,0,0,3.56V5.1a.19.19,0,0,0,.19.19H1.41V9.18a.19.19,0,0,0,.19.19H3.2a.19.19,0,0,0,.19-.19V5.29H4.82A.19.19,0,0,0,5,5.1V3.56a.21.21,0,0,0-.19-.19H3.39v-.9c0-.43.1-.65.67-.65h.82a.19.19,0,0,0,.19-.19V.19A.2.2,0,0,0,4.88,0Z"/>
                </g>
            </g>
        </g>
    </g>
</svg>