<svg xmlns="http://www.w3.org/2000/svg" viewBox="0 0 12.56 12.51">
    <title>fee</title>
    <g id="Layer_2" data-name="Layer 2">
        <g id="Слой_1" data-name="Слой 1">
            <path class="cls-1"
                  d="M9.52,3.79a1.9,1.9,0,0,0,1.87-1.92A1.87,1.87,0,0,0,9.29,0,1.85,1.85,0,0,0,7.58,1.93,1.91,1.91,0,0,0,9.52,3.79Z"/>
            <path class="cls-1"
                  d="M12.55,5.71c0-.51-.35-.77-.94-.77H5.54a.74.74,0,0,1-.76-.37.77.77,0,0,1,.07-.87c.34-.52.67-1.05,1-1.59A1.78,1.78,0,0,0,5.52,0L5.29.28C4.05,1.63,2.84,3,1.57,4.32A5.19,5.19,0,0,0,0,7.92a6.44,6.44,0,0,0,6.12,4.59,1.12,1.12,0,0,0,.21-.18A6.48,6.48,0,0,0,8,8.26c0-.36,0-.73,0-1.1,1.27-.15,2.51-.29,3.74-.45A.82.82,0,0,0,12.55,5.71Z"/>
        </g>
    </g>
</svg>