<svg xmlns="http://www.w3.org/2000/svg" viewBox="0 0 14.38 9.28">
    <title>founds</title>
    <g id="Layer_2" data-name="Layer 2">
        <g id="Слой_1" data-name="Слой 1">
            <path class="cls-1"
                  d="M5.66,9.28c-.32,0-.72,0-.88-.14a3.07,3.07,0,0,1-1-1.77l1.65.37C5.53,8.31,5.59,8.61,5.66,9.28Z"/>
            <path class="cls-1"
                  d="M11,9.28c-.3,0-.65.05-.8-.09a2.42,2.42,0,0,1-1-1.46l1.48-.16C10.75,8.23,10.85,8.58,11,9.28Z"/>
            <path class="cls-1" d="M1.41,1.66a.8.8,0,0,1-.4.93.79.79,0,0,1-1,0Z"/>
            <path class="cls-1"
                  d="M.84,5.13A8,8,0,0,0,1.93,9a.69.69,0,0,0,.25.28h.9c0-.53,0-1,0-1.48a1.7,1.7,0,0,1,.2-.6c.26-.53.34-.52.9-.38.73.19,1.48.31,2.23.43a.38.38,0,0,1,.34.29c.16.47.37.93.57,1.39a.68.68,0,0,0,.29.35h.74c.07-.61.12-1.18.19-1.75,0-.21.15-.29.38-.33,1.19-.17,2.36-.37,3.54-.57.15,0,1.91-.48,1.91-2-.33-.1-.68-.19-1-.32l0,0a8.18,8.18,0,0,0-.59-1.22,1.76,1.76,0,0,0,.77-1.87l-1.58.69-.09,0A4.35,4.35,0,0,0,10.14.75h0A7.87,7.87,0,0,0,8,.11,7.27,7.27,0,0,0,3.36.8,4.51,4.51,0,0,0,.84,5.13ZM5.46.68a7.32,7.32,0,0,1,1-.07,6,6,0,0,1,3.8,1.25l-.45.47A5.57,5.57,0,0,0,6.33,1.25a4.84,4.84,0,0,0-.86.06Z"/>
        </g>
    </g>
</svg>