<svg xmlns="http://www.w3.org/2000/svg" viewBox="0 0 17.37 17.37">
    <title>gear-2</title>
    <g id="Layer_2" data-name="Layer 2">
        <g id="Слой_1" data-name="Слой 1">
            <path class="cls-1"
                  d="M16.6,7l-1-.14a.1.1,0,0,1-.08-.07,7.31,7.31,0,0,0-.67-1.61.09.09,0,0,1,0-.11l.61-.8a.94.94,0,0,0-.09-1.19L14.28,2a.92.92,0,0,0-1.19-.08l-.8.6a.09.09,0,0,1-.11,0,7.31,7.31,0,0,0-1.61-.67.11.11,0,0,1-.07-.08c0-.33-.09-.67-.14-1A.91.91,0,0,0,9.46,0H7.91A.91.91,0,0,0,7,.77c0,.33-.1.67-.14,1a.1.1,0,0,1-.07.08,7.31,7.31,0,0,0-1.61.67.09.09,0,0,1-.11,0l-.8-.6A.92.92,0,0,0,3.09,2L2,3.09a.92.92,0,0,0-.08,1.19l.6.8a.09.09,0,0,1,0,.11A7.31,7.31,0,0,0,1.85,6.8a.1.1,0,0,1-.08.07L.77,7a.91.91,0,0,0-.77.9V9.46a.91.91,0,0,0,.77.9l1,.14a.11.11,0,0,1,.08.07,7.31,7.31,0,0,0,.67,1.61.09.09,0,0,1,0,.11l-.6.8A.92.92,0,0,0,2,14.28l1.1,1.1a.94.94,0,0,0,1.19.09l.8-.61a.09.09,0,0,1,.11,0,7.31,7.31,0,0,0,1.61.67.1.1,0,0,1,.07.08c0,.34.09.67.14,1a.91.91,0,0,0,.9.77H9.46a.91.91,0,0,0,.9-.77c.05-.33.1-.67.14-1a.11.11,0,0,1,.07-.08,7.31,7.31,0,0,0,1.61-.67.09.09,0,0,1,.11,0l.8.61a.94.94,0,0,0,1.19-.09l1.1-1.1a.94.94,0,0,0,.09-1.19l-.61-.8a.09.09,0,0,1,0-.11,7.31,7.31,0,0,0,.67-1.61.11.11,0,0,1,.08-.07l1-.14a.91.91,0,0,0,.77-.9V7.91A.91.91,0,0,0,16.6,7Zm0,2.45a.11.11,0,0,1-.08.1l-1,.14a.91.91,0,0,0-.77.66,5.85,5.85,0,0,1-.59,1.42.89.89,0,0,0,.08,1c.2.27.4.53.59.8a.08.08,0,0,1,0,.12l-1.1,1.1a.08.08,0,0,1-.12,0l-.8-.59a.89.89,0,0,0-1-.08,5.85,5.85,0,0,1-1.42.59.91.91,0,0,0-.66.77c0,.33-.09.66-.14,1a.11.11,0,0,1-.1.08H7.91a.11.11,0,0,1-.1-.08c0-.32-.09-.65-.14-1A.9.9,0,0,0,7,14.73a5.85,5.85,0,0,1-1.42-.59A1,1,0,0,0,5.14,14a.88.88,0,0,0-.55.19l-.79.59a.09.09,0,0,1-.13,0l-1.1-1.1a.08.08,0,0,1,0-.12c.19-.27.39-.53.59-.8a.89.89,0,0,0,.08-1,5.85,5.85,0,0,1-.59-1.42.91.91,0,0,0-.76-.66l-1-.14a.11.11,0,0,1-.08-.1V7.91a.11.11,0,0,1,.08-.1l1-.14A.9.9,0,0,0,2.64,7a5.85,5.85,0,0,1,.59-1.42.89.89,0,0,0-.08-1L2.56,3.8a.09.09,0,0,1,0-.13l1.1-1.1a.09.09,0,0,1,.13,0l.79.59a.89.89,0,0,0,1,.08A5.85,5.85,0,0,1,7,2.64a.9.9,0,0,0,.66-.76c0-.33.09-.66.14-1a.11.11,0,0,1,.1-.08H9.46a.11.11,0,0,1,.1.08c0,.33.1.66.14,1a.91.91,0,0,0,.66.76,5.85,5.85,0,0,1,1.42.59.89.89,0,0,0,1-.08l.8-.59a.08.08,0,0,1,.12,0l1.1,1.1a.09.09,0,0,1,0,.13l-.59.79a.89.89,0,0,0-.08,1A5.85,5.85,0,0,1,14.73,7a.9.9,0,0,0,.77.66l1,.14a.11.11,0,0,1,.08.1Z"/>
            <path class="cls-1"
                  d="M8.69,4.92a3.77,3.77,0,1,0,3.77,3.77A3.77,3.77,0,0,0,8.69,4.92Zm0,6.72a3,3,0,1,1,3-3A3,3,0,0,1,8.69,11.64Z"/>
        </g>
    </g>
</svg>