<svg xmlns="http://www.w3.org/2000/svg" viewBox="0 0 16.3 16.29">
    <title>gear</title>
    <g id="Layer_2" data-name="Layer 2">
        <g id="Слой_1" data-name="Слой 1">
            <path class="cls-1"
                  d="M15.49,6.48l-1.18-.2a6.55,6.55,0,0,0-.48-1.17l.69-1a1,1,0,0,0-.1-1.24l-1-1a1,1,0,0,0-.68-.28,1,1,0,0,0-.56.17l-1,.7A6.3,6.3,0,0,0,10,2L9.78.81A1,1,0,0,0,8.84,0H7.39a1,1,0,0,0-.95.8L6.24,2a5.61,5.61,0,0,0-1.16.49l-1-.69a.94.94,0,0,0-.56-.18,1,1,0,0,0-.68.28l-1,1a1,1,0,0,0-.1,1.24l.7,1A5.4,5.4,0,0,0,2,6.32l-1.17.2A1,1,0,0,0,0,7.46V8.91a1,1,0,0,0,.8.95l1.2.2a5.61,5.61,0,0,0,.49,1.16l-.69,1a1,1,0,0,0,.1,1.24l1,1a1,1,0,0,0,.68.28.91.91,0,0,0,.56-.18l1-.7a5.83,5.83,0,0,0,1.13.46l.19,1.18a1,1,0,0,0,1,.8H8.87a1,1,0,0,0,1-.8l.2-1.18a6.55,6.55,0,0,0,1.17-.48l1,.69a1,1,0,0,0,1.24-.1l1-1a1,1,0,0,0,.11-1.25l-.7-1A7.06,7.06,0,0,0,14.32,10l1.17-.19a1,1,0,0,0,.81-1V7.42a1,1,0,0,0-.81-.94Zm0,2.39a.15.15,0,0,1-.11.14l-1.44.24a.39.39,0,0,0-.33.3A5.42,5.42,0,0,1,13,11a.41.41,0,0,0,0,.45l.85,1.19a.15.15,0,0,1,0,.18l-1,1a.19.19,0,0,1-.1,0l-.08,0L11.45,13A.39.39,0,0,0,11,13a5.42,5.42,0,0,1-1.45.6.42.42,0,0,0-.3.33L9,15.36a.15.15,0,0,1-.14.11H7.43a.14.14,0,0,1-.14-.11l-.24-1.44a.41.41,0,0,0-.3-.33A5.66,5.66,0,0,1,5.33,13a.38.38,0,0,0-.21,0,.39.39,0,0,0-.23.07l-1.2.85-.08,0a.15.15,0,0,1-.1-.05l-1-1a.13.13,0,0,1,0-.17l.84-1.19a.39.39,0,0,0,0-.45,5.72,5.72,0,0,1-.61-1.44.39.39,0,0,0-.33-.3L.94,9a.14.14,0,0,1-.11-.13V7.46a.14.14,0,0,1,.11-.13l1.43-.24a.43.43,0,0,0,.34-.31A5.21,5.21,0,0,1,3.3,5.33a.43.43,0,0,0,0-.45l-.85-1.2a.14.14,0,0,1,0-.17l1-1a.12.12,0,0,1,.09-.05l.08,0,1.18.84a.41.41,0,0,0,.46,0,5.25,5.25,0,0,1,1.44-.61A.41.41,0,0,0,7,2.39L7.26.94A.13.13,0,0,1,7.39.83H8.84A.13.13,0,0,1,9,.94l.24,1.43a.42.42,0,0,0,.31.33A5.78,5.78,0,0,1,11,3.31a.41.41,0,0,0,.45,0l1.19-.84.08,0a.15.15,0,0,1,.1.05l1,1a.15.15,0,0,1,0,.18L13,4.85a.43.43,0,0,0,0,.45,5.42,5.42,0,0,1,.6,1.45.42.42,0,0,0,.34.3l1.44.25a.14.14,0,0,1,.11.13Z"/>
            <path class="cls-1"
                  d="M8.73,7.73H7.57A.86.86,0,0,1,7.57,6h2a.42.42,0,0,0,0-.83H8.56v-.8A.41.41,0,0,0,8.15,4a.42.42,0,0,0-.42.42v.8H7.57a1.69,1.69,0,1,0,0,3.38H8.73a.86.86,0,0,1,0,1.72H6.64a.41.41,0,0,0,0,.82H7.73v.82a.41.41,0,0,0,.42.41.41.41,0,0,0,.41-.41V11.1h.19a1.69,1.69,0,0,0,0-3.37Z"/>
        </g>
    </g>
</svg>