<svg xmlns="http://www.w3.org/2000/svg" viewBox="0 0 15.45 15.45">
    <title>globe</title>
    <g id="Layer_2" data-name="Layer 2">
        <g id="Слой_1" data-name="Слой 1">
            <path class="cls-1"
                  d="M0,7.71a7.72,7.72,0,1,1,7.68,7.73A7.74,7.74,0,0,1,0,7.71ZM8.35,9.65l1-.07a10.87,10.87,0,0,0,3.69-.86,4.18,4.18,0,0,0,1-.64.42.42,0,0,0,0-.72,4.06,4.06,0,0,0-.91-.62,10.05,10.05,0,0,0-3.24-.83c-.5-.06-1-.09-1.54-.13ZM7.1,5.79A12.17,12.17,0,0,0,2,6.91a2.6,2.6,0,0,0-.51.38c-.33.31-.34.58,0,.86a4.68,4.68,0,0,0,1,.63,10.52,10.52,0,0,0,3.08.75l1.52.13Zm6.79,3.9a9.25,9.25,0,0,1-2.7.86c-.93.15-1.88.24-2.83.36v3.26A6.36,6.36,0,0,0,13.89,9.69ZM8.35,4.52c1,.13,1.9.22,2.84.37a9.76,9.76,0,0,1,2.73.87A6.39,6.39,0,0,0,8.35,1.28Zm-1.26.06V1.27c-2.26,0-5.25,2.42-5.52,4.47A14.15,14.15,0,0,1,7.09,4.58Zm0,6.33c-1-.12-1.9-.21-2.83-.36a9.44,9.44,0,0,1-2.73-.87A6.4,6.4,0,0,0,7.1,14.16Z"/>
        </g>
    </g>
</svg>