<svg xmlns="http://www.w3.org/2000/svg" viewBox="0 0 17.37 17.37">
    <title>globe-2</title>
    <g id="Layer_2" data-name="Layer 2">
        <g id="Слой_1" data-name="Слой 1">
            <path class="cls-1"
                  d="M14.83,2.54A8.69,8.69,0,0,0,0,8.69a8.67,8.67,0,0,0,8.69,8.68A8.69,8.69,0,0,0,14.83,2.54ZM12.76,3.73l.38-1.58a8,8,0,0,1,3.17,4.41l-.2,0a.78.78,0,0,0-.61.59l-.08.31h0l-.46-.34a.8.8,0,0,0-.84-.07l-.57.3a.79.79,0,0,0,.08,1.43h0l-.36.41h0l-1-.62a.75.75,0,0,0-.74-.06.77.77,0,0,0-.46.59L11,9.62a.76.76,0,0,0,.23.7l.51.47s0,0,0,0L11,12.05a.73.73,0,0,0-.13.4l-.07,1.8h0l-1.1,1.08h0l-.71-.42h0s-.34-1.57-.36-1.61l-.31-.84A.8.8,0,0,0,7.57,12l-1.43-.12h0l-.82-1.41h0L5.51,9h0l1.25-.95h0L8,8.59a.79.79,0,0,0,.22.05l1.69.19a.76.76,0,0,0,.54-.15l1.11-.8a.78.78,0,0,0,.26-1l-.1-.24a.8.8,0,0,0-.67-.46L7.91,6.06h0V6h0l.94-.26a.72.72,0,0,0,.33-.18l1.15-1.09h0l1.74-.18A.79.79,0,0,0,12.76,3.73ZM6.88,3.1l.65-1.22a.87.87,0,0,0,.09-.59L7.53.86A7.36,7.36,0,0,1,8.69.77,7.46,7.46,0,0,1,9.85.86L9.74,1l-.91.36a1,1,0,0,0-.35.25L7.05,3.25a.1.1,0,0,1-.07,0,.1.1,0,0,1-.09,0C6.84,3.19,6.88,3.11,6.88,3.1ZM3.51,2.7V3.86a1,1,0,0,1-.43.8l-.84.54a1.65,1.65,0,0,0-.48.47L1,6.78A7.94,7.94,0,0,1,3.51,2.7ZM4,14.1,3.9,15a8,8,0,0,1-2.7-3.74h.49a.18.18,0,0,1,.15.08l1,1.55a1.46,1.46,0,0,0,.16.19L4,14A.17.17,0,0,1,4,14.1Zm4.68,2.5a7.83,7.83,0,0,1-4.07-1.13l.16-1.28a1,1,0,0,0-.3-.81l-1-.92-1-1.55a1,1,0,0,0-.8-.43H1A7.62,7.62,0,0,1,.77,8.69v-.2L2.4,6.11a.92.92,0,0,1,.26-.26l.84-.54a1.72,1.72,0,0,0,.78-1.45V2.11A7.86,7.86,0,0,1,6.77,1l.09.43a.08.08,0,0,1,0,.07L6.2,2.73A2,2,0,0,0,6.11,3a.89.89,0,0,0,.19.74.88.88,0,0,0,1.34,0L9.07,2.08l0,0L10,1.68a.81.81,0,0,0,.34-.24l.35-.4a7.44,7.44,0,0,1,1.73.69S12,3.55,12,3.55h0l-1.74.18A.81.81,0,0,0,9.8,4L8.65,5h0l-.94.25A.79.79,0,0,0,7.13,6a.78.78,0,0,0,.39.78.88.88,0,0,0,.35.1L11,7h0l.11.23v0L10,8.06h0L8.3,7.87l-1.22-.5a.79.79,0,0,0-.77.09l-1.26,1a.82.82,0,0,0-.3.51l-.21,1.37a.83.83,0,0,0,.1.51l.82,1.41a.8.8,0,0,0,.61.39l1.44.12h0l.31.84.33,1.5a.78.78,0,0,0,.37.51l.71.42a.8.8,0,0,0,.4.11.78.78,0,0,0,.55-.23l1.09-1.08a.75.75,0,0,0,.24-.52l.07-1.79h0l.83-1.25a.78.78,0,0,0-.12-1l-.51-.48h0l.07-.46h0l1,.62a.79.79,0,0,0,1-.14l.36-.42a.77.77,0,0,0,.17-.7.8.8,0,0,0-.49-.54h0l.58-.31h0l.47.35a.77.77,0,0,0,.73.11.79.79,0,0,0,.5-.55l.07-.31a0,0,0,0,0,0,0l.23,0A7.92,7.92,0,0,1,8.69,16.6Z"/>
        </g>
    </g>
</svg>