<svg xmlns="http://www.w3.org/2000/svg" viewBox="0 0 10 10">
    <title>hash</title>
    <g id="Layer_2" data-name="Layer 2">
        <g id="Слой_1" data-name="Слой 1">
            <path class="cls-1"
                  d="M5,3.81c-.39,0-.76,0-1.13-.05,0,.4-.06.82-.06,1.24a12.41,12.41,0,0,0,.06,1.24c.37,0,.74,0,1.13,0s.77,0,1.13,0A12.41,12.41,0,0,0,6.19,5c0-.42,0-.84-.06-1.24C5.77,3.79,5.39,3.81,5,3.81Z"/>
            <path class="cls-1"
                  d="M5,0a5,5,0,1,0,5,5A5,5,0,0,0,5,0ZM8.27,7a.36.36,0,0,1-.35.26h-.1A9.39,9.39,0,0,0,6.76,7,9.54,9.54,0,0,1,6.44,8.4a.35.35,0,0,1-.34.24.25.25,0,0,1-.12,0,.34.34,0,0,1-.22-.45A7.58,7.58,0,0,0,6,7c-.34,0-.69,0-1,0s-.7,0-1,0a6.94,6.94,0,0,0,.3,1.25A.36.36,0,0,1,4,8.65l-.11,0a.37.37,0,0,1-.34-.24A8.73,8.73,0,0,1,3.25,7a9.14,9.14,0,0,0-1.07.22A.36.36,0,0,1,1.74,7,.35.35,0,0,1,2,6.56a9.28,9.28,0,0,1,1.17-.24c0-.42-.06-.87-.06-1.32s0-.89.06-1.32A7.82,7.82,0,0,1,2,3.45.36.36,0,0,1,1.74,3a.35.35,0,0,1,.44-.25A9.23,9.23,0,0,0,3.25,3,7.45,7.45,0,0,1,3.57,1.6a.36.36,0,0,1,.68.23A7.54,7.54,0,0,0,4,3.05c.34,0,.69,0,1,0s.7,0,1,0a7.56,7.56,0,0,0-.29-1.24A.36.36,0,0,1,6,1.35a.37.37,0,0,1,.46.23A8.35,8.35,0,0,1,6.76,3a9.47,9.47,0,0,0,1.06-.21A.36.36,0,1,1,8,3.45a7.94,7.94,0,0,1-1.16.23q.06.65.06,1.32T6.85,6.32A9.49,9.49,0,0,1,8,6.56.35.35,0,0,1,8.27,7Z"/>
        </g>
    </g>
</svg>