<svg xmlns="http://www.w3.org/2000/svg" viewBox="0 0 15.86 14.18">
    <title>id</title>
    <g id="Layer_2" data-name="Layer 2">
        <g id="Слой_1" data-name="Слой 1">
            <path class="cls-1"
                  d="M6,2.94,7.69,4.21a.41.41,0,0,0,.24.08.43.43,0,0,0,.24-.08L9.89,2.94a.4.4,0,0,0,.17-.33V.41A.41.41,0,0,0,9.65,0H6.21A.41.41,0,0,0,5.8.41v2.2A.4.4,0,0,0,6,2.94ZM6.62.82H9.25V2.4l-1.32,1-1.31-1Z"/>
            <path class="cls-1"
                  d="M14.15,1.74h-3a.41.41,0,1,0,0,.81h3a.9.9,0,0,1,.9.9v9a.89.89,0,0,1-.9.89H1.71a.89.89,0,0,1-.89-.89v-9a.89.89,0,0,1,.89-.9h3a.41.41,0,1,0,0-.81h-3A1.71,1.71,0,0,0,0,3.45v9a1.72,1.72,0,0,0,1.71,1.71H14.15a1.71,1.71,0,0,0,1.71-1.71v-9a1.7,1.7,0,0,0-1.71-1.71Z"/>
            <path class="cls-1"
                  d="M3,6A1.43,1.43,0,1,0,4.39,4.59,1.44,1.44,0,0,0,3,6ZM5,6a.61.61,0,0,1-.61.61.61.61,0,1,1,0-1.22A.61.61,0,0,1,5,6Z"/>
            <path class="cls-1"
                  d="M4.39,7.74A2.11,2.11,0,0,0,2.5,8.82a4.83,4.83,0,0,0-.59,2,.42.42,0,0,0,.38.45A.41.41,0,0,0,2.73,11c.14-1.59.7-2.39,1.66-2.39S5.9,9.36,6.05,11a.4.4,0,0,0,.4.37h0a.41.41,0,0,0,.37-.44,5,5,0,0,0-.58-2A2.12,2.12,0,0,0,4.39,7.74Z"/>
            <path class="cls-1"
                  d="M13,5.35H8.42A.42.42,0,0,0,8,5.76a.41.41,0,0,0,.41.41H13a.41.41,0,0,0,.41-.41A.42.42,0,0,0,13,5.35Z"/>
            <path class="cls-1"
                  d="M13.4,8.69A.41.41,0,0,0,13,8.28H8.42A.41.41,0,0,0,8,8.69a.42.42,0,0,0,.41.41H13a.41.41,0,0,0,.41-.41Z"/>
            <path class="cls-1" d="M8.42,9.74a.41.41,0,1,0,0,.81H10.7a.41.41,0,1,0,0-.81Z"/>
            <path class="cls-1"
                  d="M13,6.81H8.42A.42.42,0,0,0,8,7.22a.41.41,0,0,0,.41.41H13a.41.41,0,0,0,.41-.41A.42.42,0,0,0,13,6.81Z"/>
        </g>
    </g>
</svg>