<svg xmlns="http://www.w3.org/2000/svg" viewBox="0 0 16.66 13.85">
    <title>key</title>
    <g id="Layer_2" data-name="Layer 2">
        <g id="Слой_1" data-name="Слой 1">
            <path class="cls-1"
                  d="M16.48,10a.6.6,0,0,0-.84,0l-2.39,2.39-1.11-1.12,1.68-1.68A.6.6,0,0,0,13,8.76l-1.68,1.69L7.75,6.91a4.31,4.31,0,1,0-6.49.45A4.27,4.27,0,0,0,4.31,8.62h0a4.24,4.24,0,0,0,2.6-.87l4,4h0l2,1.95a.59.59,0,0,0,.42.18.58.58,0,0,0,.42-.18l2.81-2.8a.61.61,0,0,0,0-.85ZM4.31,7.43a3.11,3.11,0,0,1-2.2-5.32,3.1,3.1,0,0,1,4.41,0,3.13,3.13,0,0,1,0,4.41,3.09,3.09,0,0,1-2.21.91Z"/>
        </g>
    </g>
</svg>