<svg xmlns="http://www.w3.org/2000/svg" viewBox="0 0 15.67 14.21">
    <title>lamp-2</title>
    <g id="Layer_2" data-name="Layer 2">
        <g id="Слой_1" data-name="Слой 1">
            <path class="cls-1"
                  d="M9.12.2A4.58,4.58,0,0,0,4.06,1.84,4.5,4.5,0,0,0,3.51,7,22.15,22.15,0,0,0,4.9,9.32a2.3,2.3,0,0,1,.53,1.83v.73a2.4,2.4,0,0,0,4.79.23c0-.54,0-1.09,0-1.64a1,1,0,0,1,.15-.55c.49-.75,1-1.51,1.45-2.27a4.85,4.85,0,0,0,.81-3.48A4.68,4.68,0,0,0,9.12.2ZM9.35,12a1.51,1.51,0,0,1-1.62,1.36,1.53,1.53,0,0,1-1.42-1.5c0-.43,0-.86,0-1.31h3l0,.05C9.37,11,9.39,11.51,9.35,12Zm1.88-5c-.47.77-1,1.51-1.44,2.29a.65.65,0,0,1-.69.39c-.43,0-.85,0-1.27,0H6.27a.28.28,0,0,1-.21-.1C5.51,8.66,5,7.8,4.43,6.91a3.92,3.92,0,0,1-.59-2.22A4,4,0,0,1,7.27.93a4,4,0,0,1,4.51,3.3A3.84,3.84,0,0,1,11.23,7Z"/>
            <path class="cls-1"
                  d="M15.25,4.46a8.68,8.68,0,0,0-1,0,.43.43,0,0,0-.42.45.46.46,0,0,0,.47.43h.93a.45.45,0,0,0,.46-.42A.41.41,0,0,0,15.25,4.46Z"/>
            <path class="cls-1"
                  d="M1.86,4.92a.42.42,0,0,0-.4-.46,9,9,0,0,0-1,0A.42.42,0,0,0,0,4.91a.45.45,0,0,0,.45.43h1A.45.45,0,0,0,1.86,4.92Z"/>
            <path class="cls-1"
                  d="M1.5.75C1.23.77,1.09.86,1,1a.38.38,0,0,0,.13.48c.32.21.66.4,1,.58A.4.4,0,0,0,2.62,2a.37.37,0,0,0,0-.5A4.12,4.12,0,0,0,1.5.75Z"/>
            <path class="cls-1"
                  d="M2.29,7.66a.68.68,0,0,0-.14,0c-.34.2-.69.38-1,.6a.4.4,0,0,0-.07.54A.4.4,0,0,0,1.6,9a10.14,10.14,0,0,0,.95-.55A.39.39,0,0,0,2.7,8,.44.44,0,0,0,2.29,7.66Z"/>
            <path class="cls-1"
                  d="M13.55,7.7a.41.41,0,0,0-.54.18.42.42,0,0,0,.11.56,10.21,10.21,0,0,0,1,.56.46.46,0,0,0,.62-.42c-.06-.11-.1-.26-.19-.32A9.38,9.38,0,0,0,13.55,7.7Z"/>
            <path class="cls-1"
                  d="M13.62,2.06c.28-.15.57-.31.84-.49a1.23,1.23,0,0,0,.26-.33A.47.47,0,0,0,14,.81a9.17,9.17,0,0,0-.86.5A.43.43,0,0,0,13,1.9.43.43,0,0,0,13.62,2.06Z"/>
        </g>
    </g>
</svg>