<svg xmlns="http://www.w3.org/2000/svg" viewBox="0 0 7.53 11.45">
    <title>lamp</title>
    <g id="Layer_2" data-name="Layer 2">
        <g id="Слой_1" data-name="Слой 1">
            <path class="cls-1"
                  d="M2.89.11a3.7,3.7,0,0,0-2.63,5c.37.95.87,1.86,1.3,2.79a.33.33,0,0,0,.34.22H5.62A.35.35,0,0,0,6,7.89c.32-.68.65-1.34,1-2a4.9,4.9,0,0,0,.58-2.19A3.73,3.73,0,0,0,2.89.11ZM4.65,7H3a.24.24,0,0,1-.17-.17c0-.41,0-.82,0-1.23a.84.84,0,0,1,.87-.78.84.84,0,0,1,.88.74C4.68,6,4.65,6.5,4.65,7Z"/>
            <path class="cls-1"
                  d="M5,8.92H2.24c0,.39,0,.75,0,1.11a1.5,1.5,0,0,0,1.6,1.41A1.47,1.47,0,0,0,5.29,9.92c0-.25,0-.49,0-.74S5.22,8.91,5,8.92Z"/>
        </g>
    </g>
</svg>