<svg xmlns="http://www.w3.org/2000/svg" viewBox="0 0 11.28 14.1">
    <title>like</title>
    <g id="Layer_2" data-name="Layer 2">
        <g id="Слой_1" data-name="Слой 1">
            <path class="cls-1"
                  d="M7.61,4.78c.5,0,1,0,1.45,0a2.29,2.29,0,0,1,2,1.14,1.22,1.22,0,0,1,.16,1c-.34,1.5-.66,3-1,4.51a1.94,1.94,0,0,1-.78,1.19,3.67,3.67,0,0,1-2.08.71c-.94,0-1.88,0-2.81,0a.72.72,0,0,1-.69-.55Q3,10,2.19,7.25a.83.83,0,0,1,.18-.79c.71-1,1.39-2,2.12-2.93a4.8,4.8,0,0,0,1-2.15A3.53,3.53,0,0,1,5.69.66.92.92,0,0,1,7,.09a1.49,1.49,0,0,1,.8.78,3.23,3.23,0,0,1,.28,2.2c-.11.51-.27,1-.4,1.5A1.91,1.91,0,0,0,7.61,4.78Zm-1.78.79,0-.1a.83.83,0,0,1,.14-.13L6.55,5a.47.47,0,0,0,.2-.22c.18-.56.35-1.12.51-1.69a2.73,2.73,0,0,0-.1-1.74A.92.92,0,0,0,6.75.86C6.55.75,6.47.77,6.41,1c-.11.37-.22.74-.31,1.12a3.61,3.61,0,0,1-.6,1.36C4.67,4.59,3.87,5.73,3.06,6.86A.36.36,0,0,0,3,7.22C3.51,8.81,4,10.41,4.52,12c.14.45.14.45.59.46.71,0,1.43.06,2.14,0A3.08,3.08,0,0,0,9,12a1.11,1.11,0,0,0,.52-.71c.34-1.53.67-3.07,1-4.61a.43.43,0,0,0,0-.25,1.37,1.37,0,0,0-1.17-.8c-.51,0-1,0-1.55,0S6.46,5.57,5.83,5.57Z"/>
            <path class="cls-1"
                  d="M2.89,13.68a.4.4,0,0,1-.33.41.38.38,0,0,1-.44-.26c-.12-.36-.23-.72-.34-1.07L0,7.32C0,7,0,6.82.23,6.73A.39.39,0,0,1,.78,7l.87,2.73c.4,1.25.8,2.5,1.19,3.74A1.08,1.08,0,0,1,2.89,13.68Z"/>
        </g>
    </g>
</svg>