<svg xmlns="http://www.w3.org/2000/svg" viewBox="0 0 6.73 8.42">
    <title>lock</title>
    <g id="Layer_2" data-name="Layer 2">
        <g id="Слой_1" data-name="Слой 1">
            <g id="InIgnT.tif">
                <path class="cls-1"
                      d="M0,3.37H.84V2.51a2.53,2.53,0,1,1,5.05,0v.83h.84v3.4A1.67,1.67,0,0,1,5.08,8.42H1.66A1.67,1.67,0,0,1,0,6.77Zm1.71,0H5A10.27,10.27,0,0,0,5,2.25,1.66,1.66,0,0,0,3.39.84a1.64,1.64,0,0,0-1.67,1.4A8.34,8.34,0,0,0,1.71,3.36Z"/>
            </g>
        </g>
    </g>
</svg>