<svg xmlns="http://www.w3.org/2000/svg" viewBox="0 0 12.05 16.6">
    <title>lock-2</title>
    <g id="Layer_2" data-name="Layer 2">
        <g id="Слой_1" data-name="Слой 1">
            <path class="cls-1"
                  d="M6,9a1.65,1.65,0,0,0-1.14,2.84V13.3a1.14,1.14,0,1,0,2.27,0V11.81a1.63,1.63,0,0,0,.51-1.19A1.64,1.64,0,0,0,6,9Zm.58,2.27a.76.76,0,0,0-.25.57V13.3a.34.34,0,1,1-.67,0V11.81a.77.77,0,0,0-.25-.57.87.87,0,0,1-.26-.62.85.85,0,1,1,1.7,0A.88.88,0,0,1,6.61,11.24Z"/>
            <path class="cls-1"
                  d="M10.86,6.8H9.66V3.63a3.64,3.64,0,0,0-7.27,0V6.8H1.2A1.2,1.2,0,0,0,0,8v7.4a1.2,1.2,0,0,0,1.2,1.2h9.66a1.19,1.19,0,0,0,1.19-1.2V8A1.19,1.19,0,0,0,10.86,6.8ZM3.19,3.63a2.84,2.84,0,0,1,5.67,0V6.8H3.19ZM11.26,15.4a.4.4,0,0,1-.4.4H1.2a.4.4,0,0,1-.4-.4V8a.4.4,0,0,1,.4-.4h9.66a.4.4,0,0,1,.4.4Z"/>
        </g>
    </g>
</svg>