<svg xmlns="http://www.w3.org/2000/svg" viewBox="0 0 18.14 15.18">
    <title>map</title>
    <g id="Layer_2" data-name="Layer 2">
        <g id="Слой_1" data-name="Слой 1">
            <path class="cls-1"
                  d="M10.3,15.18a.79.79,0,0,1-.4-.13,2.15,2.15,0,0,1-.58-.72c-.06-.09-.11-.18-.15-.25L9.09,14a1.19,1.19,0,0,1-.25-.39.89.89,0,0,1,0-.39.48.48,0,0,0,0-.12,2.78,2.78,0,0,0-.56-.67,2.76,2.76,0,0,0-.5-.39c.08.27.23.65.32.87.24.63.27.73.19.9a.34.34,0,0,1-.21.18c-.24.08-.45-.08-.74-.34l-.52-.5L6.67,13a1.65,1.65,0,0,1-.37-.56,1.86,1.86,0,0,0-.1-.2l-.13,0-.09,0a1.16,1.16,0,0,1-.89.11,1.68,1.68,0,0,0-.27-.06.33.33,0,0,0-.1.12.91.91,0,0,1-.54.44l-.2.09a1.34,1.34,0,0,0-.39.34l0,0-.17.2a1.56,1.56,0,0,1-1.15.75,1.79,1.79,0,0,1-.36,0,1.27,1.27,0,0,0-.33,0A.76.76,0,0,1,.76,14l-.12-.15a1.56,1.56,0,0,0-.2-.16.78.78,0,0,1-.37-1,6.07,6.07,0,0,1,.51-1l.19-.34a1,1,0,0,1,1.4-.5l.78.36.07,0a3.2,3.2,0,0,0,.23-.52.54.54,0,0,0,0-.11,1.27,1.27,0,0,1,0-.37,1.44,1.44,0,0,1,.59-.72l0,0a9.62,9.62,0,0,1,1.19-.81.35.35,0,0,1,.35.61,10.65,10.65,0,0,0-1.1.76l0,0c-.16.12-.3.23-.33.36a.45.45,0,0,0,0,.13,1,1,0,0,1,0,.3,2.9,2.9,0,0,1-.31.72,2.1,2.1,0,0,0-.13.26.36.36,0,0,1-.21.19A.36.36,0,0,1,3,12l-.38-.19-.76-.36a.47.47,0,0,0-.28,0s-.11.06-.21.24L1.2,12a6.67,6.67,0,0,0-.47.92l0,.07a.57.57,0,0,0,.14.11,2.25,2.25,0,0,1,.31.26l.17.2,0,.06h.12a2.37,2.37,0,0,1,.49,0l.27,0h0c.18,0,.41-.29.58-.49l.2-.24,0,0a2.26,2.26,0,0,1,.59-.5l.27-.11a.28.28,0,0,0,.19-.16c.35-.54.68-.5,1.15-.37.16.05.2,0,.41-.07l.1,0a.8.8,0,0,1,.82,0,1,1,0,0,1,.34.5,1.16,1.16,0,0,0,.2.33l0,0c-.21-.58-.24-.81-.13-1a.58.58,0,0,1,.62-.29A3.33,3.33,0,0,1,9.51,13a1.58,1.58,0,0,1,0,.3.56.56,0,0,0,0,.13,1.1,1.1,0,0,0,.12.16l.11.13q.09.13.18.3a2,2,0,0,0,.36.49.47.47,0,0,0,.09-.35,1.3,1.3,0,0,0-.13-.19.73.73,0,0,1-.24-.67.69.69,0,0,1,.48-.43,2,2,0,0,1,.4-.1,1.29,1.29,0,0,0,.48-.15,1.45,1.45,0,0,1-.1-.18,1.44,1.44,0,0,1,.15-1.21l.08-.2,0-.09c.1-.26.2-.53.49-.63a.78.78,0,0,1,.66.13c.22.13.25.11.45,0a2.58,2.58,0,0,1,.43-.19,1.8,1.8,0,0,1,1.2.2,2.15,2.15,0,0,0,.58.19,3.16,3.16,0,0,0,.66-.07l.37,0,.38,0,.35,0-.1,0a1.51,1.51,0,0,1-1-.71,1.44,1.44,0,0,1-.09-1.12,1.89,1.89,0,0,1,.13-.33.87.87,0,0,0,.11-.34,2.23,2.23,0,0,0-.46-.56c-.1-.11-.2-.21-.28-.31a.35.35,0,0,1-.08-.26.32.32,0,0,1,.13-.24l.3-.26c.21-.17.42-.35.64-.51l.14-.09.12-.08a.13.13,0,0,0,0-.07l-.19,0a1.41,1.41,0,0,1-1-.35.61.61,0,0,1-.11-.54.53.53,0,0,1-.21-.11A.63.63,0,0,1,15,4s0-.06,0-.09a2.24,2.24,0,0,0-.44-.75L14.38,3l-.19-.23a2.05,2.05,0,0,1-.49-.72,1.52,1.52,0,0,1,0-.73,1.26,1.26,0,0,0,0-.43.24.24,0,0,0-.23-.18h0c-.12,0-.17.06-.32.36s-.39.79-.58,1.18c-.09.2-.19.39-.29.59a2.9,2.9,0,0,0-.11.27c-.22.55-.55,1.38-1.19,1.38h0a.77.77,0,0,1-.58-.23,1.34,1.34,0,0,1-.23-1,1.89,1.89,0,0,0,0-.37c-.07-.13-.59-.25-.76-.28l-.22,0h0l0,.06-.8,1.09c-.09.12-.18.26-.28.41A3.25,3.25,0,0,1,6.87,5.38l-.11.06-.23.13a2.11,2.11,0,0,0-.06.29v0a1.62,1.62,0,0,0,0,.49h.07l.06,0a.65.65,0,0,1,.62-.06.63.63,0,0,1,.31.39h0a.26.26,0,0,0,.18-.1.75.75,0,0,0,.19-.5A.34.34,0,0,0,7.85,6a.67.67,0,0,1,0-.62,2,2,0,0,1,.88-1.08.69.69,0,0,1,.56,0,1.28,1.28,0,0,1,.63.85s0,.09.05.13a.35.35,0,0,1,.28.07,1.28,1.28,0,0,1,.34.7.76.76,0,0,1-.58.66l-.15.08a1.18,1.18,0,0,0-.41.5c0,.06,0,.12-.05.2a1.48,1.48,0,0,1-.13.45,1.53,1.53,0,0,1-.6.61,1.66,1.66,0,0,1-.31.12.35.35,0,0,1-.45-.23.35.35,0,0,1,.23-.44l.19-.08a.67.67,0,0,0,.31-.31.77.77,0,0,0,.06-.24A2.14,2.14,0,0,1,8.73,7a1.89,1.89,0,0,1,.66-.84L9.59,6a.63.63,0,0,1-.17-.24l0,0a2.08,2.08,0,0,1-.19-.43A1.38,1.38,0,0,0,9,4.9a1.34,1.34,0,0,0-.51.68h0v0A1.2,1.2,0,0,1,8.61,6a1.42,1.42,0,0,1-.36,1.08,1,1,0,0,1-.69.34A.81.81,0,0,1,7,7.19.48.48,0,0,1,6.86,7a.61.61,0,0,1-.25.08.75.75,0,0,1-.67-.19A1.34,1.34,0,0,1,5.76,5.8v0a1,1,0,0,1,.67-1l.1,0a2.92,2.92,0,0,0,.86-1c.11-.16.2-.31.3-.45l.8-1.09a.47.47,0,0,0,.06-.09.6.6,0,0,1,.33-.27.78.78,0,0,1,.42,0l.19,0c.43.1,1,.23,1.23.63a1.52,1.52,0,0,1,.11.74,1.16,1.16,0,0,0,0,.47H11s.08,0,.23-.27a4.82,4.82,0,0,0,.3-.66,2,2,0,0,1,.14-.32c.09-.2.19-.39.28-.59.19-.39.38-.79.58-1.19a1.07,1.07,0,0,1,1-.75h0a.94.94,0,0,1,.91.7,1.66,1.66,0,0,1,0,.7,1,1,0,0,0,0,.42,1.7,1.7,0,0,0,.35.48l.23.27.12.17a2.62,2.62,0,0,1,.58,1,1.49,1.49,0,0,1,0,.17A.55.55,0,0,1,16,4.1a.63.63,0,0,1,.11.62,2.89,2.89,0,0,0,.49.07l.27,0a.65.65,0,0,1,.55.45.84.84,0,0,1-.24.83,1.7,1.7,0,0,1-.23.17l-.09.06c-.21.15-.41.32-.61.49l0,0h0a2.63,2.63,0,0,1,.6.78,1.12,1.12,0,0,1-.11.92,1.22,1.22,0,0,0-.1.24.67.67,0,0,0,0,.56.8.8,0,0,0,.54.38l.14,0a1,1,0,0,1,.67.31.57.57,0,0,1,.11.54.7.7,0,0,1-.48.45,3.12,3.12,0,0,1-.85.12l-.33,0-.34.05a4.36,4.36,0,0,1-.81.07,2.6,2.6,0,0,1-.81-.24,1.4,1.4,0,0,0-.72-.18,1.64,1.64,0,0,0-.3.14,1,1,0,0,1-1.16,0l0,0a.87.87,0,0,0-.07.17.36.36,0,0,1,0,.09,2.34,2.34,0,0,1-.09.24c-.1.21-.22.49-.16.62l.07.12a.6.6,0,0,1-.14.89,1.82,1.82,0,0,1-.81.32l-.24.05h0a1.52,1.52,0,0,1,.23.35A1.12,1.12,0,0,1,10.74,15,.7.7,0,0,1,10.3,15.18Z"/>
        </g>
    </g>
</svg>