<svg xmlns="http://www.w3.org/2000/svg" viewBox="0 0 11.07 8.3">
    <title>payer</title>
    <g id="Layer_2" data-name="Layer 2">
        <g id="Слой_1" data-name="Слой 1">
            <g id="tgjpRM.tif">
                <path class="cls-1"
                      d="M11.06,8.3a.49.49,0,0,0,0-.11A3.08,3.08,0,0,0,8.39,5.25c-.61,0-1.22,0-1.83,0a5.86,5.86,0,0,1-1.19-.11A4.64,4.64,0,0,1,1.8,1.48.51.51,0,0,0,1.26,1H.57A.5.5,0,0,0,0,1.7,6.37,6.37,0,0,0,2.6,5.77a.37.37,0,0,1,.17.34c0,.56,0,1.12,0,1.68v.5H8.21c0-.13,0-.24,0-.36a.41.41,0,0,1,.42-.4A.4.4,0,0,1,9,8V8.3ZM8.47,2.09A2.07,2.07,0,1,0,6.38,4.14,2.06,2.06,0,0,0,8.47,2.09Z"/>
                <path class="cls-1"
                      d="M11.06,8.3H9V8a.4.4,0,0,0-.39-.42.41.41,0,0,0-.42.4c0,.12,0,.23,0,.36H2.77v-.5c0-.56,0-1.12,0-1.68a.37.37,0,0,0-.17-.34A6.37,6.37,0,0,1,0,1.7.5.5,0,0,1,.57,1h.69a.51.51,0,0,1,.54.44A4.64,4.64,0,0,0,5.37,5.09a5.86,5.86,0,0,0,1.19.11c.61,0,1.22,0,1.83,0a3.08,3.08,0,0,1,2.68,2.94A.49.49,0,0,1,11.06,8.3Z"/>
                <path class="cls-1" d="M8.47,2.09A2.07,2.07,0,1,1,6.41,0,2.07,2.07,0,0,1,8.47,2.09Z"/>
            </g>
        </g>
    </g>
</svg>