<svg xmlns="http://www.w3.org/2000/svg" viewBox="0 0 33.67 20.53">
    <title>icon-payment-5</title>
    <g id="Layer_2" data-name="Layer 2">
        <g id="Слой_1" data-name="Слой 1">
            <path class="cls-1" d="M27.58,8l-.93,3.37h2L27.68,8Z"/>
            <path class="cls-1"
                  d="M21.57,8.05a13.45,13.45,0,0,0-1.42,0c-.1,0-.27.16-.27.25,0,.68,0,1.37,0,2.11h1c1.35,0,1.54-.1,1.43-1.62A.72.72,0,0,0,21.57,8.05Z"/>
            <path class="cls-1"
                  d="M32.1,0H0V20.51H33.25l.42,0V0ZM9,12.87a1.55,1.55,0,0,1-1.5,1.27,28.35,28.35,0,0,1-3.57,0c-.89-.06-1.32-.6-1.42-1.52,0-.25,0-.51-.08-.8h2c.09.75.25.89,1,.9.36,0,.73,0,1.1,0A.65.65,0,0,0,7.18,12c0-.5-.15-.73-.62-.79s-1.24-.13-1.87-.16A2,2,0,0,1,2.48,8.81c0-1.66.56-2.34,2.26-2.41a21.33,21.33,0,0,1,2.65.08,1.69,1.69,0,0,1,1.55,2,.44.44,0,0,1-.31.31c-.53,0-1.07,0-1.59,0C6.81,8,6.71,7.93,5.9,7.93c-.3,0-.61,0-.91.06a.56.56,0,0,0-.53.63c0,.56.12.73.68.78.85.09,1.71.13,2.55.28,1,.18,1.35.56,1.43,1.59A6.12,6.12,0,0,1,9,12.87Zm8.19-5.08c-.1.17-.16.36-.27.58a2.89,2.89,0,0,0-2.73-.93,3.05,3.05,0,0,0-2,1.43h4.4a6.88,6.88,0,0,1-.45.94.61.61,0,0,1-.44.14H12.36l-.48,0c-.12.67-.07.72.51.72h3.39a9.35,9.35,0,0,1-.47,1,.53.53,0,0,1-.39.13H12.35c.6,1.49,2.78,1.75,4.42.5,0,.42,0,.79,0,1.16,0,.08-.14.18-.23.24a4,4,0,0,1-5.4-1.41.79.79,0,0,0-.89-.5,6,6,0,0,1-.75,0L10,10.72l.59,0V10H9.49A6,6,0,0,1,10,9c.07-.11.33-.12.49-.12a.57.57,0,0,0,.64-.36,4,4,0,0,1,6-1.32C17.3,7.36,17.4,7.52,17.23,7.79Zm5.23,4.35c-.67,0-1.34,0-2,0h-.56v2H17.81V6.4A.8.8,0,0,1,18,6.35c1.53,0,3.05,0,4.58.05a2,2,0,0,1,1.84,1.85,9.57,9.57,0,0,1,0,2.14A1.82,1.82,0,0,1,22.46,12.14Zm7.2,2c-.1,0-.23-.17-.28-.29-.14-.33-.15-.81-.39-1s-.71-.06-1.07-.07-.92,0-1.38,0a.43.43,0,0,0-.5.39c-.27,1-.28,1-1.31,1H23.61c.81-2.68,1.6-5.27,2.39-7.89h3.21L31.6,14.2C30.9,14.2,30.28,14.22,29.66,14.19Z"/>
        </g>
    </g>
</svg>