<svg xmlns="http://www.w3.org/2000/svg" viewBox="0 0 33.67 20.53">
    <title>payment-3</title>
    <g id="Layer_2" data-name="Layer 2">
        <g id="Слой_1" data-name="Слой 1">
            <path class="cls-1"
                  d="M6.46,9.45a.58.58,0,0,0-.57.5,2.56,2.56,0,0,0,0,.27h0a1,1,0,0,0,0,.17.66.66,0,0,0,.46.59A.63.63,0,0,0,7,10.74a.91.91,0,0,0,.12-.83A.64.64,0,0,0,6.46,9.45Z"/>
            <path class="cls-1"
                  d="M25.58,9.78a1.06,1.06,0,0,0-.72-1,2.81,2.81,0,0,0-2,.05.14.14,0,0,0-.07.11c0,.21,0,.42,0,.66L23,9.52a2.14,2.14,0,0,1,1.12-.15c.29,0,.47.23.43.49l-.27,0a2.56,2.56,0,0,0-1.31.22,1,1,0,0,0-.25,1.55,1.29,1.29,0,0,0,1.86-.18l.05,0,0,.43h1c0-.11,0-.21,0-.31C25.6,10.94,25.6,10.36,25.58,9.78Zm-1.87,1.37a.3.3,0,0,1-.24-.27.29.29,0,0,1,.18-.35,2.72,2.72,0,0,1,.57-.1,1.82,1.82,0,0,1,.32,0A.65.65,0,0,1,23.71,11.15Z"/>
            <path class="cls-1"
                  d="M20.36,8.64a1.27,1.27,0,0,0-.91.56c0-.14,0-.27,0-.41s-.05-.1-.08-.1h-.91v4.43h1.08V11.42a1.36,1.36,0,0,0,2,.11,2,2,0,0,0,.15-2.34A1.21,1.21,0,0,0,20.36,8.64Zm.41,2a.61.61,0,0,1-1.14.09,1,1,0,0,1,0-.93.61.61,0,0,1,.7-.32.71.71,0,0,1,.49.66v.11h0C20.82,10.37,20.81,10.5,20.77,10.63Z"/>
            <path class="cls-1"
                  d="M15,9.38a.63.63,0,0,0-.65.47,2.85,2.85,0,0,0-.09.44,3,3,0,0,0,.13.49.6.6,0,0,0,.63.37.63.63,0,0,0,.58-.37,1.25,1.25,0,0,0,0-.93A.66.66,0,0,0,15,9.38Z"/>
            <path class="cls-1"
                  d="M32.1,0H0V20.51H33.25l.42,0V0Zm-.7,14.17a2.75,2.75,0,0,1,0,.41,2.25,2.25,0,0,1-2.29,1.93H4.58a2.29,2.29,0,0,1-.52-.05,2.23,2.23,0,0,1-1.79-2.24V11.51c0-1.77,0-3.54,0-5.31A2.21,2.21,0,0,1,3.81,4.13,4.72,4.72,0,0,1,4.35,4h25a5.08,5.08,0,0,1,.59.15,2.23,2.23,0,0,1,1.49,2.2Z"/>
            <path class="cls-1"
                  d="M28.5,8.69s-.1.06-.12.11l-.21.67-.4,1.27c-.19-.56-.36-1.09-.54-1.61-.05-.15-.06-.34-.17-.42s-.29,0-.44,0h-.71l.07.2c.38,1,.76,1.93,1.15,2.89a.3.3,0,0,1-.05.35.72.72,0,0,1-.32.2,3.45,3.45,0,0,1-.56,0l-.07.78.34.06a1.35,1.35,0,0,0,1.59-.83,1.19,1.19,0,0,0,.08-.16c.45-1.13.89-2.26,1.33-3.39,0,0,0-.06,0-.11Z"/>
            <path class="cls-1"
                  d="M4.64,4.92A1.4,1.4,0,0,0,3.19,6.37v7.79a1.4,1.4,0,0,0,1.47,1.46H17.51V4.92H4.64ZM8.21,10.6c0,.47,0,.94-.05,1.4A1.24,1.24,0,0,1,7.1,13.11,3.79,3.79,0,0,1,5.24,13c-.09,0-.12-.06-.11-.16s0-.47,0-.68c.31.07.6.15.91.2a1.68,1.68,0,0,0,.5,0,.84.84,0,0,0,.62-1l-.07,0a1.25,1.25,0,0,1-1.34.42,1.28,1.28,0,0,1-1-1,2.21,2.21,0,0,1,.09-1.32,1.2,1.2,0,0,1,1-.79,1.21,1.21,0,0,1,1.26.47l.09.1h0V8.7h.88c.12,0,.09.1.09.16C8.21,9.44,8.22,10,8.21,10.6ZM10,11.83H9a1,1,0,0,1,0-.17V8.88c0-.14,0-.19.18-.18s.58,0,.88,0Zm0-3.67H9V7.4H10Zm3,1.38a3.36,3.36,0,0,0-.55,0,.77.77,0,0,0-.6.77c0,.43,0,.87,0,1.31v.21H10.8c0-.06,0-.11,0-.16V8.87c0-.13,0-.18.17-.17s.53,0,.81,0v.51l0,0a1,1,0,0,1,1.28-.58Zm3.71,1.12a1.46,1.46,0,0,1-1.14,1.16,6.37,6.37,0,0,1-.63.11,2,2,0,0,1-1.39-.53,1.58,1.58,0,0,1-.38-1.6,1.46,1.46,0,0,1,1.09-1.08A2.05,2.05,0,0,1,16.15,9,1.52,1.52,0,0,1,16.74,10.66Z"/>
        </g>
    </g>
</svg>