<svg xmlns="http://www.w3.org/2000/svg" viewBox="0 0 33.67 20.53">
    <title>payment-1</title>
    <g id="Layer_2" data-name="Layer 2">
        <g id="Слой_1" data-name="Слой 1">
            <g id="fvTC0f.tif">
                <path class="cls-1"
                      d="M33.67,0V20.53l-.42,0H0V0H32.1ZM16.83,5.32a6.29,6.29,0,0,0-9,8.65,6,6,0,0,0,3.61,2.4,6.17,6.17,0,0,0,5.34-1.16,6.33,6.33,0,0,0,8.7-.89,6.29,6.29,0,0,0-8.69-9Z"/>
                <path class="cls-1"
                      d="M18.32,13.52a6.32,6.32,0,0,0,0-6.49,3.92,3.92,0,0,1,5,.15,4.05,4.05,0,0,1-5,6.34Z"/>
            </g>
        </g>
    </g>
</svg>