<svg xmlns="http://www.w3.org/2000/svg" viewBox="0 0 33.67 20.53">
    <title>pay-4</title>
    <g id="Layer_2" data-name="Layer 2">
        <g id="Слой_1" data-name="Слой 1">
            <path class="cls-1"
                  d="M32.1,0H0V20.51H33.25l.42,0V0ZM10,14.24a.37.37,0,0,1-.41.28q-.85,0-1.71,0a.33.33,0,0,1-.4-.3c-.52-2-1.06-4-1.6-6.06a.89.89,0,0,0-.3-.44C4.82,7.17,4.1,6.65,3.31,6.07H7.67l1.14,5.74c.08-.19.13-.3.17-.41q.94-2.52,1.86-5.05A.39.39,0,0,1,11.29,6c.64,0,1.29,0,2,0-.54,1.32-1.06,2.58-1.57,3.84Q10.83,12.07,10,14.24Zm5.47-2.33c-.13.76-.26,1.53-.37,2.3,0,.24-.11.33-.37.32-.61,0-1.22,0-1.87,0l1.37-8.47h2.18C16,8,15.73,10,15.42,11.91Zm6.08,2a4.67,4.67,0,0,1-2.74.72,6.19,6.19,0,0,1-2.38-.44l.3-1.79a13.74,13.74,0,0,0,1.82.44,3.39,3.39,0,0,0,1.34-.14A.66.66,0,0,0,20,11.48c-.42-.3-.89-.52-1.33-.78A2.41,2.41,0,0,1,17.33,9a2.34,2.34,0,0,1,1-2.31,5,5,0,0,1,4.6-.4L22.68,8c-.61-.11-1.2-.25-1.79-.3a2.11,2.11,0,0,0-.95.2.54.54,0,0,0-.12,1,5.76,5.76,0,0,0,.82.53c.31.19.64.34.94.54A2.4,2.4,0,0,1,21.5,13.91Zm8.74.62c-.62,0-1.23,0-1.84,0-.07,0-.16-.12-.19-.2-.07-.29-.11-.58-.2-.86a.35.35,0,0,0-.25-.21c-.78,0-1.57,0-2.36,0-.11,0-.21.13-.31.2a.33.33,0,0,0,0,.06c-.13.33-.17.79-.41,1s-.7.06-1.06.06H22.41c.4-.95.77-1.85,1.14-2.74.68-1.61,1.36-3.23,2-4.84a1.18,1.18,0,0,1,1.35-.9c.45,0,.9,0,1.34,0,.1,0,.25.1.26.18.58,2.71,1.15,5.41,1.71,8.12A.92.92,0,0,1,30.24,14.53Z"/>
            <path class="cls-1" d="M26.92,8.44,25.8,11.49h1.83c-.22-1-.43-2-.64-3Z"/>
        </g>
    </g>
</svg>