<svg xmlns="http://www.w3.org/2000/svg" viewBox="0 0 33.67 20.53">
    <title>payment-2</title>
    <g id="Layer_2" data-name="Layer 2">
        <g id="Слой_1" data-name="Слой 1">
            <path class="cls-1"
                  d="M12.82,10.06l-.25,0a1.11,1.11,0,0,0-.87.81A1,1,0,0,0,12,12a1.25,1.25,0,0,0,1.73,0,1.07,1.07,0,0,0,.13-1.44A1.19,1.19,0,0,0,12.82,10.06Z"/>
            <path class="cls-1"
                  d="M32.1,0H0V20.51H33.25l.42,0V0ZM3.78,13.42H2.32V7H3.78Zm4.14,0H6.3a.25.25,0,0,1-.15-.06L4,10.44l0,0,.62-.47A3.65,3.65,0,0,0,6,7.39,2.61,2.61,0,0,0,6,7H7.48A5,5,0,0,1,6,10.64l2,2.78Zm1.92,0H8.46V7H9.84Zm5.57,0H14.08v-.27l-.09,0a2.12,2.12,0,0,1-.94.33l-.05,0h-.5c-.13,0-.27,0-.39-.09a2.34,2.34,0,0,1,.32-4.58A2.29,2.29,0,0,1,14,9.19l.09.05V9h1.34Zm3.37-3.19a4.06,4.06,0,0,0-.62.19,1,1,0,0,0-.65.74.93.93,0,0,0,0,.23v2H16.12V9h1.36v.56A1.76,1.76,0,0,1,18.78,9ZM24,13.36a.2.2,0,0,1,0,.07H22.68v-.14c0-.73,0-1.46,0-2.2a1.37,1.37,0,0,0-.05-.4.75.75,0,0,0-.69-.59,1.41,1.41,0,0,0-.5,0,.88.88,0,0,0-.67.87v2.42H19.41V9h1.32v.46l0,0a1.53,1.53,0,0,1,1.09-.55,2,2,0,0,1,1.52.4A1.49,1.49,0,0,1,24,10.48C24,11.44,24,12.4,24,13.36Zm5.47.06H28.16v-.27l-.07,0a2.28,2.28,0,0,1-1,.35h-.56l-.38-.08a2.35,2.35,0,0,1,.31-4.59,2.31,2.31,0,0,1,1.58.33l.08.05V9h1.32Zm1.43.1a.84.84,0,0,1-.84-.83.85.85,0,0,1,.84-.85.84.84,0,0,1,0,1.68Z"/>
            <path class="cls-1"
                  d="M26.93,10.05l-.29,0a1.13,1.13,0,0,0-.87.84A1,1,0,0,0,26.12,12a1.25,1.25,0,0,0,1.7,0,1.05,1.05,0,0,0,.32-.85A1.18,1.18,0,0,0,26.93,10.05Z"/>
        </g>
    </g>
</svg>