<svg xmlns="http://www.w3.org/2000/svg" viewBox="0 0 10.24 10.15">
    <title>pencil</title>
    <g id="Layer_2" data-name="Layer 2">
        <g id="Слой_1" data-name="Слой 1">
            <path class="cls-1"
                  d="M9.67,2.34a.78.78,0,0,0,0-1.18C9.47.94,9.25.73,9,.52c-.7-.7-1-.69-1.72,0C5.89,2,4.52,3.45,3,4.8A10.58,10.58,0,0,0,.12,9.34,3.78,3.78,0,0,0,0,9.91a.89.89,0,0,0,.32,0A11.23,11.23,0,0,0,3.8,8.19C5.79,6.27,7.73,4.3,9.67,2.34Z"/>
            <path class="cls-1"
                  d="M10.24,8.23c0-.62,0-.62-1.24-.79C8.77,7,9.33,6.23,8.31,6.2S7.7,7,7.54,7.43c-.43.22-1.15-.27-1.26.62-.13,1.12.76.72,1.26.84.11,1.23.11,1.25.54,1.25.24,0,.64,0,.69-.09A4.83,4.83,0,0,0,9,8.91C9.41,8.67,10.27,9.28,10.24,8.23Z"/>
        </g>
    </g>
</svg>