<svg xmlns="http://www.w3.org/2000/svg" viewBox="0 0 9.19 10.52">
    <title>phones</title>
    <g id="Layer_2" data-name="Layer 2">
        <g id="Слой_1" data-name="Слой 1">
            <g id="hYvysq.tif">
                <path class="cls-1"
                      d="M1,5.22A3.65,3.65,0,0,1,2.43,1.58a3.71,3.71,0,0,1,4.51.14A3.63,3.63,0,0,1,8.22,5.26c-.18,0-.37,0-.55-.06a.23.23,0,0,0-.25.12A2.71,2.71,0,0,0,6.91,7.7c0,.2.12.33.36.36s.51.13.77.19l.56.14c.16-.91.3-1.79.47-2.66a5.21,5.21,0,0,0,0-2.08A4.6,4.6,0,0,0,0,5.1C.11,5.74.24,6.37.35,7c.07.45.16.89.24,1.37L2.11,8c.05,0,.09-.08.1-.14a2.67,2.67,0,0,0-.47-2.56.29.29,0,0,0-.2-.09C1.34,5.18,1.15,5.21,1,5.22ZM2.82,9H2.08a.5.5,0,0,0-.56.49.5.5,0,0,0,.55.49H3.36a.66.66,0,0,1,.57.22,1,1,0,0,0,1.34,0,1,1,0,0,0,.05-1.37A.93.93,0,0,0,4,8.79a.78.78,0,0,1-.7.25Z"/>
                <path class="cls-1"
                      d="M1,5.22c.2,0,.39,0,.59,0a.29.29,0,0,1,.2.09,2.67,2.67,0,0,1,.47,2.56c0,.06,0,.13-.1.14l-1.52.4C.51,7.89.42,7.45.35,7,.24,6.37.11,5.74,0,5.1A4.6,4.6,0,0,1,9.1,3.65a5.21,5.21,0,0,1,0,2.08c-.17.87-.31,1.75-.47,2.66L8,8.25c-.26-.06-.51-.15-.77-.19S7,7.9,6.91,7.7a2.71,2.71,0,0,1,.51-2.38.23.23,0,0,1,.25-.12c.18,0,.37,0,.55.06A3.63,3.63,0,0,0,6.94,1.72a3.71,3.71,0,0,0-4.51-.14A3.65,3.65,0,0,0,1,5.22Z"/>
                <path class="cls-1"
                      d="M2.82,9h.45A.78.78,0,0,0,4,8.79a.93.93,0,0,1,1.35.08,1,1,0,0,1-.05,1.37,1,1,0,0,1-1.34,0A.66.66,0,0,0,3.36,10H2.07a.5.5,0,0,1-.55-.49A.5.5,0,0,1,2.08,9Z"/>
            </g>
        </g>
    </g>
</svg>