<svg xmlns="http://www.w3.org/2000/svg" viewBox="0 0 11.08 13.89">
    <title>phone</title>
    <g id="Layer_2" data-name="Layer 2">
        <g id="Слой_1" data-name="Слой 1">
            <path class="cls-1"
                  d="M4.8,3.4a2.33,2.33,0,0,1-.74,1.78l-.38.38a.46.46,0,0,0-.06.64C4.25,7.12,4.89,8,5.54,9a.46.46,0,0,0,.62.15,2.87,2.87,0,0,0,.4-.18A2.48,2.48,0,0,1,8.94,9a5.18,5.18,0,0,1,1.83,1.65,1.68,1.68,0,0,1-.13,2.1c-.25.27-.5.54-.77.79a1.45,1.45,0,0,1-1.49.3,11.55,11.55,0,0,1-8-8.4A11.16,11.16,0,0,1,0,1.85,1.5,1.5,0,0,1,.87.54c.3-.15.61-.28.92-.41A1.71,1.71,0,0,1,3.88.76,5.65,5.65,0,0,1,4.77,3C4.79,3.1,4.79,3.25,4.8,3.4ZM1,2.59A10.61,10.61,0,0,0,3.51,9.48a10.59,10.59,0,0,0,5.13,3.37.55.55,0,0,0,.59-.1c.22-.23.45-.46.66-.7a.66.66,0,0,0,.08-.86A4.28,4.28,0,0,0,8.3,9.76,1.43,1.43,0,0,0,7,9.8a3.68,3.68,0,0,1-.49.23,1.48,1.48,0,0,1-1.78-.49c-.66-.92-1.31-1.86-2-2.8a1.43,1.43,0,0,1-.17-1.27,2.15,2.15,0,0,1,.72-1,1.49,1.49,0,0,0,.45-1.45,5.07,5.07,0,0,0-.7-1.72.73.73,0,0,0-.93-.29l-.79.36A.57.57,0,0,0,1,2Z"/>
        </g>
    </g>
</svg>