<svg xmlns="http://www.w3.org/2000/svg" viewBox="0 0 9.93 9.94">
    <title>pie</title>
    <g id="Layer_2" data-name="Layer 2">
        <g id="Слой_1" data-name="Слой 1">
            <g id="NbxJmm.tif">
                <path class="cls-1"
                      d="M4.41,1.12A4.42,4.42,0,1,0,5,9.92c2.12-.23,4.13-2.47,3.82-4.4h-.3c-1.22,0-2.44,0-3.66,0-.41,0-.41,0-.41-.42v-4ZM9.93,4.36A4.3,4.3,0,0,0,5.55,0V4.36Z"/>
                <path class="cls-1"
                      d="M4.41,1.12v4c0,.42,0,.42.41.42,1.22,0,2.44,0,3.66,0h.3C9.09,7.45,7.08,9.69,5,9.92a4.42,4.42,0,1,1-.55-8.8Z"/>
                <path class="cls-1" d="M9.93,4.36H5.55V0A4.3,4.3,0,0,1,9.93,4.36Z"/>
            </g>
        </g>
    </g>
</svg>