<svg xmlns="http://www.w3.org/2000/svg" viewBox="0 0 9.58 9.83">
    <title>pin</title>
    <g id="Layer_2" data-name="Layer 2">
        <g id="Слой_1" data-name="Слой 1">
            <path class="cls-1"
                  d="M2.94,9.83A2.86,2.86,0,0,1,.26,8.06,2.87,2.87,0,0,1,.91,4.77c1-1,1.95-1.95,2.93-2.93C4.26,1.42,4.67,1,5.1.58A1.81,1.81,0,0,1,7.66.49a1.79,1.79,0,0,1,0,2.6C6.36,4.38,5.07,5.64,3.81,6.93c-.33.33-.57.29-.9,0S2.65,6.34,3,6C4.16,4.86,5.33,3.68,6.51,2.5l.21-.22c.27-.28.41-.59.09-.89s-.61-.19-.89.09-.41.41-.61.61C4.17,3.24,3,4.38,1.88,5.52a1.73,1.73,0,0,0-.12,2.62A1.77,1.77,0,0,0,4.34,8C5.7,6.62,7.07,5.26,8.42,3.89c.31-.31.57-.43.93-.06s.26.62-.06.94C7.87,6.17,6.47,7.58,5.06,9A2.89,2.89,0,0,1,2.94,9.83Z"/>
        </g>
    </g>
</svg>