<svg xmlns="http://www.w3.org/2000/svg" viewBox="0 0 10.13 8.37">
    <title>resize</title>
    <g id="Layer_2" data-name="Layer 2">
        <g id="Слой_1" data-name="Слой 1">
            <path class="cls-1"
                  d="M8,5.8C8,4.73,8,3.67,8,2.6c0-.39-.11-.54-.51-.53s-.81,0-1.21,0H3.86c-.41,0-.82,0-1.24,0s-.51.14-.51.52q0,1.61,0,3.21c0,.35.11.5.48.5,1.65,0,3.3,0,4.94,0C7.9,6.3,8,6.16,8,5.8Z"/>
            <path class="cls-1" d="M1.06,2.81c.11-.53.06-1.15.34-1.42s.92-.23,1.42-.33v-1C.64-.24-.26.66.07,2.81Z"/>
            <path class="cls-1" d="M9.06,2.82h1C10.48.34,9-.27,7.32.1v1c.52.11,1.14.06,1.41.35S9,2.32,9.06,2.82Z"/>
            <path class="cls-1"
                  d="M1.06,5.56h-1c-.37,2.51,1.05,3,2.76,2.73v-1c-.5-.1-1.12,0-1.4-.32S1.17,6.08,1.06,5.56Z"/>
            <path class="cls-1" d="M9.06,5.56C9,6.09,9,6.71,8.73,7s-.92.23-1.42.33v1c2.18.31,3.08-.6,2.75-2.74Z"/>
        </g>
    </g>
</svg>