<svg xmlns="http://www.w3.org/2000/svg" viewBox="0 0 10.94 10.92">
    <title>search-2</title>
    <g id="Layer_2" data-name="Layer 2">
        <g id="Слой_1" data-name="Слой 1">
            <path class="cls-1"
                  d="M10.85,3.28A4.05,4.05,0,0,0,6.82,0a6.7,6.7,0,0,0-.9.1,4.09,4.09,0,0,0-2.8,5.8A.4.4,0,0,1,3,6.42c-.94,1-1.87,2-2.79,3.07a.84.84,0,0,0,0,1.22.89.89,0,0,0,1.18,0c1-.92,2.05-1.84,3.06-2.77a.4.4,0,0,1,.54-.08,4,4,0,0,0,4.31-.48A3.94,3.94,0,0,0,10.85,3.28Zm-4,3.6A2.76,2.76,0,1,1,9.59,4.15,2.77,2.77,0,0,1,6.83,6.88Z"/>
            <path class="cls-1" d="M6.83,2.75A1.36,1.36,0,0,0,5.46,4.1,1.37,1.37,0,1,0,6.83,2.75Z"/>
        </g>
    </g>
</svg>