<svg xmlns="http://www.w3.org/2000/svg" viewBox="0 0 10.31 12.05">
    <title>sheet-2</title>
    <g id="Layer_2" data-name="Layer 2">
        <g id="Слой_1" data-name="Слой 1">
            <path class="cls-1"
                  d="M10,.49v5.9a.49.49,0,1,1-1,0V1H1V11.08H4.69a.49.49,0,1,1,0,1H.49A.49.49,0,0,1,0,11.57V.49A.49.49,0,0,1,.49,0H9.55A.49.49,0,0,1,10,.49ZM2.91,3.8H7.28a.49.49,0,1,0,0-1H2.91a.49.49,0,0,0,0,1ZM7.77,6a.49.49,0,0,0-.49-.49H2.91a.49.49,0,0,0,0,1H7.28A.49.49,0,0,0,7.77,6ZM2.91,8.09a.49.49,0,0,0,0,1h1.3a.49.49,0,0,0,0-1Zm7.26,0a.51.51,0,0,0-.69,0L8.33,9.26,7.18,8.11a.49.49,0,0,0-.69,0,.48.48,0,0,0,0,.68L7.64,10,6.49,11.11a.48.48,0,0,0,0,.68.46.46,0,0,0,.68,0l1.15-1.15,1.16,1.15a.48.48,0,0,0,.34.15.46.46,0,0,0,.34-.15.48.48,0,0,0,0-.68L9,10l1.16-1.16a.49.49,0,0,0,0-.68Z"/>
        </g>
    </g>
</svg>