<svg xmlns="http://www.w3.org/2000/svg" viewBox="0 0 12.13 12.14">
    <title>split</title>
    <g id="Layer_2" data-name="Layer 2">
        <g id="Слой_1" data-name="Слой 1">
            <g id="flJPbY.tif">
                <path class="cls-1"
                      d="M4.85,2.92H7.08V3.1c0,1.61,0,3.22,0,4.82a.3.3,0,0,0,.07.21l3.93,3.94.08.07,1-1L12,11.07,8.55,7.61a.31.31,0,0,1-.09-.19c0-1.47,0-2.95,0-4.42a.2.2,0,0,1,0-.07h2.22L7.77,0Z"/>
                <path class="cls-1"
                      d="M0,7.77a.61.61,0,0,0,.07.1l2.77,2.76,0,0V8.48H5.7V7.11H2.91V5c0-.06,0-.11,0-.17Z"/>
            </g>
        </g>
    </g>
</svg>