<svg xmlns="http://www.w3.org/2000/svg" viewBox="0 0 15.53 15.52">
    <title>tag</title>
    <g id="Layer_2" data-name="Layer 2">
        <g id="Слой_1" data-name="Слой 1">
            <path class="cls-1"
                  d="M14.93,8.58l-6-6a1.73,1.73,0,0,0-1.2-.49H7.6l-4.36.29a1,1,0,0,0-.88.88l-.1,1.55a3.18,3.18,0,0,1-.63-.48A2.73,2.73,0,0,1,.82,2.67a1.69,1.69,0,0,1,.45-1.41,2.21,2.21,0,0,1,3.05.36.4.4,0,0,0,.57,0,.42.42,0,0,0,0-.57A3,3,0,0,0,.7.69,2.48,2.48,0,0,0,0,2.75a3.48,3.48,0,0,0,1,2.13,4,4,0,0,0,1.14.78L2.07,7.6a1.7,1.7,0,0,0,.49,1.3l6,6a2,2,0,0,0,1.43.59,2,2,0,0,0,1.42-.59l3.5-3.49A2,2,0,0,0,15.53,10a2.06,2.06,0,0,0-.6-1.43Zm-.56,2.28-3.5,3.5a1.2,1.2,0,0,1-.86.36,1.22,1.22,0,0,1-.86-.36l-6-6a.87.87,0,0,1-.25-.68L3,5.89l.2,0,.3,0a2.43,2.43,0,0,0,1.76-.7.42.42,0,0,0,0-.57.4.4,0,0,0-.57,0,1.69,1.69,0,0,1-1.41.45,1.46,1.46,0,0,1-.22,0l.12-1.8a.13.13,0,0,1,.13-.13l4.36-.29h.06a.89.89,0,0,1,.63.25l6,6a1.24,1.24,0,0,1,.35.86,1.21,1.21,0,0,1-.35.85Z"/>
        </g>
    </g>
</svg>