<svg xmlns="http://www.w3.org/2000/svg" viewBox="0 0 9.81 10.49">
    <title>tags</title>
    <g id="Layer_2" data-name="Layer 2">
        <g id="Слой_1" data-name="Слой 1">
            <g id="JhUfTR">
                <path class="cls-1"
                      d="M2.05,0H3.36a1,1,0,0,1,.78.31l4,4,1.4,1.38c.35.35.35.49,0,.84l-3,3.05c-.27.27-.45.27-.71,0L.36,4.16A1.13,1.13,0,0,1,0,3.34V.59C0,.18.17,0,.59,0ZM.76,1.45a.63.63,0,0,0,.61.65A.66.66,0,0,0,2,1.48.65.65,0,0,0,1.4.84.63.63,0,0,0,.76,1.45Z"/>
                <path class="cls-1"
                      d="M4.85,10c-.45.18-.84.36-1.23.51s-.45-.05-.56-.3Q2,7.91.91,5.68a5.49,5.49,0,0,1-.37-.9Z"/>
                <path class="cls-1"
                      d="M2.06,10.15c-.49,0-.9,0-1.32,0S.32,10,.32,9.62c0-1.17,0-2.33,0-3.5a4.15,4.15,0,0,1,.06-.85Z"/>
            </g>
        </g>
    </g>
</svg>