<svg xmlns="http://www.w3.org/2000/svg" viewBox="0 0 14.07 10.71">
    <title>tooltip</title>
    <g id="Layer_2" data-name="Layer 2">
        <g id="Слой_1" data-name="Слой 1">
            <path class="cls-1"
                  d="M4.23,8.44H5l3.44,2.27V8.44h1.4A4.22,4.22,0,0,0,9.87,0H4.23A4.26,4.26,0,0,0,0,4.23,4.24,4.24,0,0,0,4.23,8.44ZM8.1,3.67l.84.84,1.77-1.77.66.66L8.94,5.83l-1.5-1.5ZM2.5,3.16l.66-.66L4.23,3.57,5.3,2.5,6,3.16,4.89,4.23,6,5.3,5.3,6,4.23,4.89,3.16,6,2.5,5.3,3.57,4.23Z"/>
        </g>
    </g>
</svg>