<svg xmlns="http://www.w3.org/2000/svg" viewBox="0 0 13.22 17.37">
    <title>user_1</title>
    <g id="Layer_2" data-name="Layer 2">
        <g id="Слой_1" data-name="Слой 1">
            <path class="cls-1"
                  d="M10.63,11.28A2.29,2.29,0,0,1,8.32,9.19a4,4,0,0,0,.9-.89,5.41,5.41,0,0,0,1-2.55.36.36,0,0,0,.1-.14A4.11,4.11,0,0,0,10.63,4,3.84,3.84,0,0,0,6.94,0,3.41,3.41,0,0,0,5.41.36a3.33,3.33,0,0,0-.55.1A3.06,3.06,0,0,0,3,2.2,4.3,4.3,0,0,0,2.74,5a4.35,4.35,0,0,0,.2.61A.38.38,0,0,0,3,5.78,4.86,4.86,0,0,0,4.9,9.19a2.28,2.28,0,0,1-2.31,2.09A2.68,2.68,0,0,0,0,14v3a.39.39,0,0,0,.39.39H12.83a.38.38,0,0,0,.39-.39V14A2.68,2.68,0,0,0,10.63,11.28ZM5.08,1.21a2.12,2.12,0,0,1,.45-.07.42.42,0,0,0,.16,0A2.67,2.67,0,0,1,6.94.78,3.06,3.06,0,0,1,9.84,4v.16a1.72,1.72,0,0,0-1.22-.51H6a.77.77,0,0,1-.44-.14.7.7,0,0,1-.24-.32.48.48,0,0,0-.91.06,3.62,3.62,0,0,1-.88,1.59C3.09,3.19,3.8,1.58,5.08,1.21ZM3.79,5.6A4.31,4.31,0,0,0,4.93,4l.12.1A1.48,1.48,0,0,0,6,4.4H8.62A.94.94,0,0,1,9.47,5h0c0,2.21-1.28,4-2.86,4A2.47,2.47,0,0,1,4.74,8,4.62,4.62,0,0,1,3.79,5.6Zm1.85,4a2.91,2.91,0,0,0,1,.17,2.87,2.87,0,0,0,1-.17,3.11,3.11,0,0,0,1.14,1.84L6.67,14.35a.07.07,0,0,1-.06,0,.05.05,0,0,1-.05,0L4.5,11.42A3.06,3.06,0,0,0,5.64,9.58Zm6.8,7H.78V14a1.91,1.91,0,0,1,1.9-1.9,3.53,3.53,0,0,0,1.15-.24l2.09,3a.87.87,0,0,0,.69.36h0a.87.87,0,0,0,.7-.36l2.09-3a3.22,3.22,0,0,0,1.14.24,1.9,1.9,0,0,1,1.9,1.9Z"/>
        </g>
    </g>
</svg>