<svg xmlns="http://www.w3.org/2000/svg" viewBox="0 0 13.27 14.3">
    <title>user</title>
    <g id="Layer_2" data-name="Layer 2">
        <g id="Слой_1" data-name="Слой 1">
            <path class="cls-1"
                  d="M12.67,9.27H.48A.44.44,0,0,0,0,9.74c0,.15,0,.3,0,.45a3,3,0,0,0,.79,2.08,5.63,5.63,0,0,0,2.49,1.51,11.06,11.06,0,0,0,4.88.42,8.18,8.18,0,0,0,2.94-.86,3.51,3.51,0,0,0,2.16-3.49C13.24,9.41,13.11,9.27,12.67,9.27Zm-1,2.5A4.51,4.51,0,0,1,9.56,13a10.11,10.11,0,0,1-6.43-.22,4,4,0,0,1-1.74-1.21,1.86,1.86,0,0,1-.47-1.35H12.33A2.09,2.09,0,0,1,11.71,11.77Z"/>
            <path class="cls-1"
                  d="M6.58,7.09A3.55,3.55,0,1,0,3.09,3.43,3.54,3.54,0,0,0,6.58,7.09Zm0-6.17A2.64,2.64,0,0,1,9.26,3.54,2.63,2.63,0,1,1,4,3.55,2.62,2.62,0,0,1,6.61.92Z"/>
        </g>
    </g>
</svg>