<svg xmlns="http://www.w3.org/2000/svg" viewBox="0 0 8.84 6.22">
    <title>youtube</title>
    <g id="Layer_2" data-name="Layer 2">
        <g id="Слой_1" data-name="Слой 1">
            <g id="_Group_" data-name="&lt;Group&gt;">
                <g id="_Group_2" data-name="&lt;Group&gt;">
                    <path id="_Compound_Path_" data-name="&lt;Compound Path&gt;" class="cls-1"
                          d="M8.49.53C8.17.15,7.58,0,6.46,0H2.38C1.23,0,.63.16.31.57A2.87,2.87,0,0,0,0,2.34V3.87C0,5.43.37,6.22,2.38,6.22H6.46a2.57,2.57,0,0,0,1.86-.47,2.49,2.49,0,0,0,.52-1.88V2.34A2.83,2.83,0,0,0,8.49.53ZM5.67,3.32l-1.85,1a.31.31,0,0,1-.13,0,.26.26,0,0,1-.15,0A.27.27,0,0,1,3.4,4V2.11a.29.29,0,0,1,.14-.25.31.31,0,0,1,.28,0l1.85,1a.29.29,0,0,1,.16.26.28.28,0,0,1-.16.25Z"/>
                </g>
            </g>
        </g>
    </g>
</svg>